<svg width="16" height="18" viewBox="0 0 16 18" xmlns="http://www.w3.org/2000/svg"><path d="M76.3401247,19.3945454 C76.0915397,18.8880468 75.9757915,18.3241896 76.0042132,17.7581818 L76.0042132,4.25818182 C75.9757915,3.69217402 76.0915397,3.12831681 76.3401247,2.6218182 L84.3220224,11 L76.3401247,19.3945454 Z M87.6971333,14.5590909 L79.54728,19.1818182 C78.9098915,19.6490133 78.1611132,19.9316693 77.3798509,20 L77.3078698,20 L85.0818222,11.8181818 L87.6971333,14.5590909 Z M88.6808742,8.01363636 L90.4004213,9.00363637 C91.0402528,9.37181819 92,10.0345455 92,11.0245455 C92,12.0145454 91.0402528,12.6609091 90.4004213,13.0290909 L88.6808742,14.0190909 L85.8336242,11 L88.6808742,8.01363636 Z M77.3078698,2 L77.3798509,2 C78.1605112,2.07108126 78.9086028,2.35347801 79.54728,2.81818183 L87.6971333,7.46545455 L85.0818222,10.1818182 L77.3078698,2 Z" transform="translate(-76 -2)" /></svg>