<svg xmlns="http://www.w3.org/2000/svg" width="40" height="40" viewBox="0 0 40 40">
  <g fill="none" fill-rule="evenodd">
    <rect width="40" height="40" fill="#0D2547" rx="6"/>
    <g fill="#F0B90B" fill-rule="nonzero" transform="translate(9 7)">
      <polygon points="11.005 0 4.248 3.897 6.732 5.337 11.005 2.879 15.278 5.337 17.762 3.897"/>
      <polygon points="15.278 7.372 17.762 8.812 17.762 11.691 13.49 14.148 13.49 19.063 11.005 20.503 8.521 19.063 8.521 14.148 4.248 11.691 4.248 8.812 6.732 7.372 11.005 9.829"/>
      <polygon points="17.762 13.726 17.762 16.606 15.278 18.045 15.278 15.166"/>
      <polygon points="15.253 20.081 19.526 17.623 19.526 12.709 22.011 11.269 22.011 19.063 15.253 22.96"/>
      <polygon points="19.526 7.794 17.042 6.354 19.526 4.915 22.011 6.354 22.011 9.234 19.526 10.673"/>
      <polygon points="8.521 24.002 8.521 21.123 11.005 22.563 13.49 21.123 13.49 24.002 11.005 25.442"/>
      <polygon points="6.732 18.045 4.248 16.606 4.248 13.726 6.732 15.166"/>
      <polygon points="11.005 7.794 8.521 6.354 11.005 4.915 13.49 6.354"/>
      <polygon points="4.969 6.354 2.484 7.794 2.484 10.673 0 9.234 0 6.354 2.484 4.915"/>
      <polygon points="0 11.269 2.484 12.709 2.484 17.623 6.757 20.081 6.757 22.96 0 19.063"/>
    </g>
  </g>
</svg>
