<svg xmlns="http://www.w3.org/2000/svg" xmlns:xlink="http://www.w3.org/1999/xlink" width="40" height="40" viewBox="0 0 40 40">
  <defs>
    <path id="btn-login_google-a" d="M12.1884518,10.4162437 L12.1884518,14.6192893 L19.0717005,14.6192893 C18.767132,16.3857868 17.0006345,19.857868 12.1884518,19.857868 C8.0463198,19.857868 4.63515228,16.4467005 4.63515228,12.1827411 C4.63515228,7.91878173 8.0463198,4.50761421 12.1884518,4.50761421 C14.5640863,4.50761421 16.1478426,5.54314721 17.0615482,6.39593909 L20.3508883,3.2284264 C18.2189086,1.21827411 15.4777919,0 12.1884518,0 C5.42703046,0 0.0057106599,5.4822335 0.0057106599,12.1827411 C0.0057106599,18.8832487 5.42703046,24.3654822 12.1884518,24.3654822 C19.1935279,24.3654822 23.8838832,19.4314721 23.8838832,12.4263959 C23.8838832,11.6345178 23.8229695,11.0253807 23.7011421,10.4162437 L12.1884518,10.4162437 Z"/>
  </defs>
  <g fill="none" fill-rule="evenodd">
    <rect width="40" height="40" fill="#0D2547" rx="6"/>
    <g transform="translate(8 8)">
      <mask id="btn-login_google-b" fill="#fff">
        <use xlink:href="#btn-login_google-a"/>
      </mask>
      <use fill="#2CA94F" fill-rule="nonzero" xlink:href="#btn-login_google-a"/>
      <path fill="#3E82F7" fill-rule="nonzero" d="M20.5336294,21.1979695 C22.6656091,19.0659898 23.8838832,16.0203046 23.8838832,12.4873096 C23.8838832,11.6954315 23.8229695,10.964467 23.7011421,10.3553299 L12.1884518,10.3553299 L12.1884518,14.6192893 L19.0717005,14.6192893 C18.8889594,15.6548223 18.2189086,17.2994924 16.7569797,18.4568528 L20.5336294,21.1979695 Z" mask="url(#btn-login_google-b)"/>
      <path fill="#FCBD00" fill-rule="nonzero" d="M1.46763959,17.9695431 C0.55393401,16.2639594 0.0057106599,14.3147208 0.0057106599,12.1827411 C0.0057106599,10.3553299 0.371192893,8.64974619 1.10215736,7.12690355 L5.00063452,9.8680203 C4.7569797,10.5989848 4.63515228,11.3908629 4.63515228,12.1827411 C4.63515228,13.2182741 4.8178934,14.2538071 5.24428934,15.1675127 L1.46763959,17.9695431 Z" mask="url(#btn-login_google-b)"/>
      <path fill="#ED422C" fill-rule="nonzero" d="M1.10215736,7.12690355 C2.99048223,2.92385787 7.25444162,0 12.1884518,0 C15.4777919,0 18.3959391,1.27918782 20.5279188,3.2284264 L17.0558376,6.63959391 C16.142132,5.78680203 14.5583756,4.75126904 12.1827411,4.75126904 C8.7715736,4.75126904 5.8534264,6.82233503 4.93972081,10.0507614 L1.10215736,7.12690355 Z" mask="url(#btn-login_google-b)"/>
    </g>
  </g>
</svg>
