<svg xmlns="http://www.w3.org/2000/svg" width="40" height="40" viewBox="0 0 40 40">
  <g fill="none" fill-rule="evenodd">
    <rect width="40" height="40" fill="#0D2547" rx="6"/>
    <g fill-rule="nonzero" stroke-width=".9" transform="translate(8 8)">
      <polygon fill="#E17726" stroke="#E17726" points="23.687 0 13.952 7.203 15.762 2.958"/>
      <polygon fill="#E27625" stroke="#E27625" points="1.232 0 10.88 7.27 9.157 2.958"/>
      <polygon fill="#E27625" stroke="#E27625" points="20.182 16.701 17.592 20.658 23.138 22.185 24.726 16.788"/>
      <polygon fill="#E27625" stroke="#E27625" points=".202 16.788 1.781 22.185 7.318 20.658 4.737 16.701"/>
      <polygon fill="#E27625" stroke="#E27625" points="7.019 10.017 5.479 12.341 10.967 12.591 10.784 6.684"/>
      <polygon fill="#E27625" stroke="#E27625" points="17.9 10.017 14.077 6.617 13.952 12.591 19.44 12.341"/>
      <polygon fill="#E27625" stroke="#E27625" points="7.318 20.658 10.64 19.054 7.78 16.826"/>
      <polygon fill="#E27625" stroke="#E27625" points="14.279 19.054 17.592 20.658 17.139 16.826"/>
      <polygon fill="#D5BFB2" stroke="#D5BFB2" points="17.592 20.658 14.279 19.054 14.549 21.206 14.52 22.118"/>
      <polygon fill="#D5BFB2" stroke="#D5BFB2" points="7.318 20.658 10.399 22.118 10.38 21.206 10.64 19.054"/>
      <polygon fill="#233447" stroke="#233447" points="10.457 15.405 7.703 14.598 9.648 13.705"/>
      <polygon fill="#233447" stroke="#233447" points="14.462 15.405 15.271 13.705 17.226 14.598"/>
      <polygon fill="#CC6228" stroke="#CC6228" points="7.318 20.658 7.799 16.701 4.737 16.788"/>
      <polygon fill="#CC6228" stroke="#CC6228" points="17.12 16.701 17.592 20.658 20.182 16.788"/>
      <polygon fill="#CC6228" stroke="#CC6228" points="19.44 12.341 13.952 12.591 14.462 15.405 15.271 13.705 17.226 14.598"/>
      <polygon fill="#CC6228" stroke="#CC6228" points="7.703 14.598 9.648 13.705 10.457 15.405 10.967 12.591 5.479 12.341"/>
      <polygon fill="#E27525" stroke="#E27525" points="5.479 12.341 7.78 16.826 7.703 14.598"/>
      <polygon fill="#E27525" stroke="#E27525" points="17.226 14.598 17.139 16.826 19.44 12.341"/>
      <polygon fill="#E27525" stroke="#E27525" points="10.967 12.591 10.457 15.405 11.102 18.728 11.247 14.348"/>
      <polygon fill="#E27525" stroke="#E27525" points="13.952 12.591 13.682 14.339 13.817 18.728 14.462 15.405"/>
      <polygon fill="#F5841F" stroke="#F5841F" points="14.462 15.405 13.817 18.728 14.279 19.054 17.139 16.826 17.226 14.598"/>
      <polygon fill="#F5841F" stroke="#F5841F" points="7.703 14.598 7.78 16.826 10.64 19.054 11.102 18.728 10.457 15.405"/>
      <polygon fill="#C0AC9D" stroke="#C0AC9D" points="14.52 22.118 14.549 21.206 14.299 20.994 10.621 20.994 10.38 21.206 10.399 22.118 7.318 20.658 8.396 21.542 10.582 23.05 14.328 23.05 16.523 21.542 17.592 20.658"/>
      <polygon fill="#161616" stroke="#161616" points="14.279 19.054 13.817 18.728 11.102 18.728 10.64 19.054 10.38 21.206 10.62 20.994 14.299 20.994 14.549 21.206"/>
      <polygon fill="#763E1A" stroke="#763E1A" points="24.101 7.674 24.919 3.698 23.687 0 14.279 6.963 17.9 10.017 23.013 11.506 24.139 10.19 23.648 9.834 24.428 9.124 23.831 8.663 24.611 8.067"/>
      <polygon fill="#763E1A" stroke="#763E1A" points="0 3.698 .828 7.674 .298 8.067 1.088 8.663 .491 9.124 1.271 9.834 .78 10.19 1.906 11.506 7.019 10.017 10.64 6.963 1.232 0"/>
      <polygon fill="#F5841F" stroke="#F5841F" points="23.013 11.506 17.9 10.017 19.44 12.341 17.139 16.826 20.182 16.788 24.727 16.788"/>
      <polygon fill="#F5841F" stroke="#F5841F" points="7.019 10.017 1.906 11.506 .202 16.788 4.737 16.788 7.78 16.826 5.479 12.341"/>
      <polygon fill="#F5841F" stroke="#F5841F" points="13.952 12.591 14.279 6.963 15.762 2.958 9.157 2.958 10.64 6.963 10.967 12.591 11.092 14.358 11.102 18.728 13.817 18.728 13.827 14.358"/>
    </g>
  </g>
</svg>
