<?xml version="1.0" encoding="UTF-8"?>
<svg width="24px" height="22px" viewBox="0 0 24 22" version="1.1" xmlns="http://www.w3.org/2000/svg" xmlns:xlink="http://www.w3.org/1999/xlink">
    <g id="页面-1" stroke="none" stroke-width="1" fill="none" fill-rule="evenodd">
        <g id="2.0LOGIN-状态" transform="translate(-1242.000000, -462.000000)" fill="#7FA0CD">
            <g id="编组-7" transform="translate(481.000000, 236.000000)">
                <g id="编组-3" transform="translate(70.000000, 0.000000)">
                    <g id="编组-4" transform="translate(390.000000, 215.000000)">
                        <g id="编组-11" transform="translate(301.000000, 11.000000)">
                            <path d="M23.9471201,11.7807728 C23.9471201,11.7297297 24,11.5765766 24,11.4744665 C24,11.3213133 24,11.2192272 23.9471201,11.2192272 C23.9471201,11.1681602 23.8942649,11.015007 23.8942649,10.963964 L23.8942649,10.9129209 C23.8942649,10.8618539 23.8942649,10.8618539 23.8414098,10.8108108 C21.621147,6.16517314 16.863441,3 12,3 C7.13655896,3 2.37885299,6.11410614 0.158590199,10.7597677 C0.105735059,10.8108108 0.105735059,10.8618539 0.105735059,10.9129209 L0.105735059,10.963964 C0.0528799195,11.066074 0.0528799195,11.1681602 0.0528799195,11.1681602 C0.0528799195,11.2702703 0,11.4234234 0,11.4234234 L0,11.5765766 C0,11.5765766 0,11.7297297 0.0528799195,11.7807728 C0.0528799195,11.8318398 0.0528799195,11.8828829 0.105735059,11.933926 C0.105735059,11.984993 0.158590199,12.036036 0.158590199,12.0870791 C0.158590199,12.1381461 0.158590199,12.1381461 0.211470119,12.1891892 C2.43173291,16.8858939 7.18943888,20 12.0528551,20 C16.9162714,20 21.6740022,16.8858939 23.8942649,12.2402323 C23.9471201,12.1891892 23.9471201,12.1381461 23.9471201,12.0870791 L23.9471201,11.7807728 L23.9471201,11.7807728 Z M22.3612181,11.5255335 C20.4052806,15.6606686 16.2290802,18.3663584 12,18.3663584 C7.77091976,18.3663584 3.64757458,15.6096016 1.63878191,11.5255335 L1.63878191,11.2702703 C3.59471944,7.18617821 7.77091976,4.42942145 12,4.42942145 C16.2290802,4.42942145 20.4052806,7.18617821 22.3612181,11.2702703 L22.3612181,11.5255335 C22.3612181,11.4744665 22.3612181,11.4744665 22.3612181,11.5255335 L22.3612181,11.5255335 Z M12,7.59459459 C9.77973721,7.59459459 7.98238988,9.33032235 7.98238988,11.4744665 C7.98238988,13.6186106 9.77973721,15.3543623 12,15.3543623 C14.2202628,15.3543623 16.0176101,13.6186106 16.0176101,11.4744665 C16.0176101,9.33032235 14.2202628,7.59459459 12,7.59459459 Z M12,13.7717638 C10.6784233,13.7717638 9.62114701,12.7507587 9.62114701,11.4744665 C9.62114701,10.1981743 10.6784233,9.1771692 12,9.1771692 C13.3215767,9.1771692 14.378853,10.1981982 14.378853,11.4744665 C14.378853,12.6996917 13.3215767,13.7717638 12,13.7717638 L12,13.7717638 Z" id="形状" fill-rule="nonzero"></path>
                            <rect id="矩形" transform="translate(12.000000, 11.000000) rotate(45.000000) translate(-12.000000, -11.000000) " x="11" y="-3" width="2" height="28" rx="1"></rect>
                        </g>
                    </g>
                </g>
            </g>
        </g>
    </g>
</svg>