<svg xmlns="http://www.w3.org/2000/svg" width="40" height="40" viewBox="0 0 40 40">
  <g fill="none" fill-rule="evenodd">
    <rect width="40" height="40" fill="#0D2547" rx="6"/>
    <g transform="translate(4.4 5.6)">
      <rect width="25" height="11" x="3.6" y="7.4" fill="#F8F125"/>
      <path fill="#402E34" fill-rule="nonzero" d="M16.2,-7.06990022e-13 C25.1470286,-7.06990022e-13 32.4,5.61971764 32.4,12.5538725 C32.4,19.4864936 25.1470286,25.1062112 16.2,25.1062112 C15.309113,25.106679 14.4191136,25.0503252 13.5354857,24.937497 L6.73457143,29.3593436 C5.9616,29.7657915 5.68851429,29.7213123 6.00634285,28.7258983 L7.38257143,23.084708 C2.93914286,20.84541 7.42517159e-13,16.9649827 7.42517159e-13,12.5538725 C7.42517159e-13,5.62125138 7.25297143,-7.06990022e-13 16.2,-7.06990022e-13 Z M25.3136571,12.3621518 L27.5816571,10.1780694 C27.853664,9.89724247 27.8531239,9.45271962 27.5804354,9.17254679 C27.3077468,8.89237396 26.8608501,8.87717936 26.5695429,9.13817621 L23.5949143,12.0001831 L23.5949143,9.63511631 C23.5948247,9.23535971 23.2688119,8.91134019 22.8666857,8.91134019 C22.4645595,8.91134019 22.1385468,9.23535971 22.1384571,9.63511631 L22.1384571,13.5569553 C22.1111662,13.6688327 22.1111662,13.7855739 22.1384571,13.8974513 L22.1384571,16.1045402 C22.1385468,16.5042967 22.4645595,16.8283163 22.8666857,16.8283163 C23.2688119,16.8283163 23.5948247,16.5042967 23.5949143,16.1045402 L23.5949143,14.0140175 L24.2537143,13.3805722 L26.4569143,16.4987179 C26.6065677,16.7105051 26.8585101,16.8268359 27.1178371,16.8038895 C27.3771641,16.7809431 27.6044778,16.6222057 27.7141514,16.3874721 C27.823825,16.1527385 27.7991963,15.8776703 27.6495428,15.6658831 L25.3136571,12.360618 L25.3136571,12.3621518 Z M20.7498857,15.313117 L18.4973143,15.313117 L18.4973143,9.65812279 C18.4794064,9.27166605 18.1590169,8.96749858 17.7698571,8.96749858 C17.3806974,8.96749858 17.0603079,9.27166605 17.0424,9.65812279 L17.0424,16.0370545 C17.0424,16.4358335 17.3664,16.7609919 17.7690857,16.7609919 L20.7498857,16.7609919 C21.0100954,16.7609919 21.2505638,16.6230804 21.3806854,16.3990697 C21.510807,16.175059 21.510807,15.8990499 21.3806854,15.6750392 C21.2505638,15.4510285 21.0100954,15.3130594 20.7498857,15.313117 L20.7498857,15.313117 Z M11.7133714,13.6382449 L12.7872,11.0201068 L13.7715429,13.6382449 L11.7133714,13.6382449 L11.7133714,13.6382449 Z M15.606,14.3867225 L15.6090857,14.3621823 C15.608721,14.179803 15.5386833,14.0043701 15.4131429,13.8713772 L13.7993143,9.57683322 C13.6607845,9.15775862 13.2753005,8.86805731 12.8319429,8.84981785 C12.3853823,8.84787469 11.9842152,9.1208686 11.8244571,9.53542155 L9.26177143,15.7855169 C9.10967221,16.1556888 9.28823384,16.5783467 9.66060001,16.7295497 C10.0329662,16.8807526 10.4581294,16.7032432 10.6102286,16.3330712 L11.1193714,15.0861197 L14.3130857,15.0861197 L14.7744,16.3131323 C14.8597924,16.5628446 15.075038,16.7466311 15.3362413,16.792858 C15.5974446,16.839085 15.8632689,16.7404366 16.0301048,16.5353629 C16.1969408,16.3302891 16.2383857,16.0512439 16.1382857,15.8069896 L15.606,14.3867225 L15.606,14.3867225 Z M10.4806286,9.66579161 C10.4806286,9.26657023 10.1555297,8.94270003 9.75394287,8.94185419 L4.74737142,8.94185419 C4.48716176,8.94185419 4.24669331,9.07976565 4.11657174,9.30377634 C3.98645017,9.52778703 3.98645017,9.80379622 4.11657174,10.0278069 C4.24669331,10.2518176 4.48716176,10.3897867 4.74737142,10.389729 L6.53708573,10.389729 L6.53708573,16.1198778 C6.53717533,16.5196344 6.86318812,16.8436539 7.26531429,16.8436539 C7.66744046,16.8436539 7.99345325,16.5196344 7.99354286,16.1198778 L7.99354286,10.389729 L9.7524,10.389729 C10.1545895,10.389729 10.4806286,10.0656112 10.4806286,9.66579161 Z"/>
    </g>
  </g>
</svg>
