<svg xmlns="http://www.w3.org/2000/svg" width="40" height="40" viewBox="0 0 40 40">
  <g fill="none" fill-rule="evenodd">
    <rect width="40" height="40" fill="#0D2547" rx="6"/>
    <path fill="#3365F9" fill-rule="nonzero" d="M25.6072647,8.1421875 C24.3269015,6.9609375 22.5770718,5.1890625 21.1259934,3.9234375 L21.0406359,3.8390625 C20.9123965,3.73348321 20.7684391,3.648103 20.6138481,3.5859375 C17.0715098,2.953125 0.853575492,0 0.512145295,0 C0.436160483,0.0142095557 0.363688718,0.0428645735 0.298751422,0.084375 L0.213393873,0.16875 C0.118410479,0.264673492 0.0456055006,0.379820567 0,0.50625 L0,0.928125 C1.83518731,5.90625 9.00522144,22.359375 10.4562998,26.240625 C10.5416573,26.49375 10.7123724,26.9578125 11.0111238,27 L11.0538026,27 C11.2245177,27 11.9073781,26.1140625 11.9073781,26.1140625 L25.564586,9.703125 C25.7268201,9.50603748 25.869726,9.29414617 25.9913737,9.0703125 C26.0381982,8.71558635 25.8921809,8.36276373 25.6072647,8.1421875 Z M15.1082862,9.8296875 L20.3577755,5.5265625 L23.473326,8.353125 L15.1082862,9.8296875 Z M13.059705,9.5765625 L3.96912604,2.2359375 L18.6506245,4.89375 L13.059705,9.5765625 Z M13.8706017,11.5171875 L23.1745746,10.040625 L12.504881,22.696875 L13.8706017,11.5171875 Z M2.77412035,2.953125 L12.2914871,10.96875 L10.9257663,22.696875 L2.77412035,2.953125 Z" transform="translate(7 7)"/>
  </g>
</svg>
