<svg xmlns="http://www.w3.org/2000/svg" width="40" height="40" viewBox="0 0 40 40">
  <g fill="none" fill-rule="evenodd">
    <rect width="40" height="40" fill="#0D2547" rx="6"/>
    <g transform="translate(4.4 5.6)">
      <rect width="23" height="11" x="3.6" y="6.4" fill="#FFF"/>
      <path fill="#00C300" fill-rule="nonzero" d="M15.6004288,-3.64153152e-13 C6.98424863,-3.64153152e-13 3.64153152e-13,5.4909466 3.64153152e-13,12.2638884 C3.64153152e-13,18.5552377 6.02885581,23.7368644 13.792214,24.4427609 C14.051781,24.4868522 14.281389,24.6366032 14.4262402,24.8562748 C14.7708254,25.4229164 14.5259087,26.6301766 14.258367,27.9838753 C13.9907594,29.3374092 15.4458469,28.6350056 15.7677742,28.4781544 C16.0240693,28.3539585 22.6197032,24.6405055 26.5463518,20.9990524 C29.4177742,18.7742363 31.2,15.6826193 31.2,12.2642839 C31.2009894,5.4909466 24.2161801,-3.64153152e-13 15.6004288,-3.64153152e-13 Z M10.4,15.5663119 C10.3959459,16.0305417 10.0255676,16.4037055 9.57255135,16.4 L6.75861622,16.4 C6.26194595,16.4 5.6,16.2240736 5.6,15.3995131 L5.6,9.23369321 C5.60192432,9.01055805 5.69019551,8.79738901 5.84531892,8.64126436 C6.00063516,8.48481504 6.20998364,8.39806213 6.42744865,8.4 L6.59311351,8.4 C6.81058703,8.3980679 7.01994353,8.4848193 7.17527568,8.64126436 C7.33037511,8.79740298 7.41863211,9.01056593 7.42056216,9.23369321 L7.42056216,14.5659861 L9.57212973,14.5659861 C10.0252757,14.5619862 10.3959135,14.93515 10.4,15.3995131 L10.4,15.5663119 L10.4,15.5663119 Z M12.8,15.1622817 C12.8,15.6250226 12.4417569,16 12,16 C11.5581176,16 11.2,15.6250226 11.2,15.1622817 L11.2,9.23771826 C11.2,8.77504348 11.5581176,8.4 12,8.4 C12.4417569,8.4 12.8,8.77504348 12.8,9.23771826 L12.8,15.1622817 L12.8,15.1622817 Z M19.997583,15.1615636 C19.9489364,15.6013357 19.5868958,15.9467693 19.133077,15.9863882 C18.7244878,16.0541434 18.3162453,15.8646708 18.1140526,15.5134407 L15.3284674,11.7219311 L15.3284674,15.1606054 C15.3172334,15.6160399 14.933678,15.9795152 14.4641997,15.9795152 C13.9949256,15.9795152 13.6111999,15.6160399 13.6,15.1606054 L13.6,9.22432729 C13.6019283,9.00379321 13.6940679,8.7930426 13.8561348,8.63847124 C14.0181566,8.48388517 14.2368148,8.39811418 14.4639954,8.4 C14.8828946,8.4024892 15.2635181,8.63706066 15.4440072,9.00399519 C15.7120569,9.38805638 18.2704092,12.8498279 18.2704092,12.8498279 L18.2704092,9.22432729 C18.2820176,8.76889278 18.6657773,8.40554968 19.1352216,8.40554968 C19.6046659,8.40554968 19.9883916,8.76889278 20,9.22436033 L20,15.1605723 L19.997617,15.1615636 L19.997583,15.1615636 Z M25.168643,11.373681 C25.458882,11.373681 25.7270344,11.5311992 25.8721702,11.7868234 C26.0173159,12.0424258 26.0173159,12.3575719 25.8721702,12.6131743 C25.7268383,12.8689431 25.4587163,13.0263963 25.168643,13.0263168 L23.0195317,13.0263168 L23.0195317,14.3476588 L25.1685133,14.3476588 C25.4630596,14.3405703 25.7383014,14.496461 25.8878675,14.7550847 C26.0373307,15.0134687 26.0373307,15.3341542 25.8878675,15.5925382 C25.7382468,15.8510805 25.4630177,16.0068881 25.1685133,15.9997659 L21.9452679,15.9997659 C21.749524,16.0021524 21.5608923,15.9250882 21.4209955,15.7855781 C21.2811679,15.6463878 21.2016229,15.4561132 21.2,15.2569488 L21.2,9.14357763 C21.2015248,8.94430293 21.2810238,8.75388382 21.4208658,8.61455178 C21.5607992,8.47500116 21.7494694,8.39789282 21.9452679,8.40023188 L25.168643,8.40023188 C25.4631389,8.39314499 25.7383515,8.54894336 25.8879973,8.80745952 C26.0373342,9.0658904 26.0373342,9.38651522 25.8879973,9.6449461 C25.738353,9.90348407 25.4631586,10.0593353 25.168643,10.052339 L23.0195317,10.052339 L23.0195317,11.3742097 L25.1685133,11.3742097 L25.168643,11.373681 L25.168643,11.373681 Z"/>
    </g>
  </g>
</svg>
