<svg xmlns="http://www.w3.org/2000/svg" width="40" height="40" viewBox="0 0 40 40">
  <path fill="#2D5186" d="M694,1174 C682.95625,1174 674,1182.95625 674,1194 C674,1205.04375 682.95625,1214 694,1214 C705.04375,1214 714,1205.04375 714,1194 C714,1182.95625 705.04375,1174 694,1174 Z M705.3125,1199.3125 C704.53125,1200.09375 703.2625,1200.09375 702.48125,1199.3125 L694,1190.83125 L685.5125,1199.3125 C684.73125,1200.09375 683.4625,1200.09375 682.68125,1199.3125 C681.9,1198.53125 681.9,1197.2625 682.68125,1196.48125 L692.58125,1186.58125 C693.3625,1185.8 694.63125,1185.8 695.4125,1186.58125 L705.3125,1196.4875 C706.09375,1197.26875 706.09375,1198.53125 705.3125,1199.3125 Z" transform="matrix(1 0 0 -1 -674 1214)"/>
</svg>
