<?xml version="1.0" encoding="UTF-8"?>
<svg width="20px" height="20px" viewBox="0 0 20 20" version="1.1" xmlns="http://www.w3.org/2000/svg" xmlns:xlink="http://www.w3.org/1999/xlink">
    <g id="页面-1" stroke="none" stroke-width="1" fill="none" fill-rule="evenodd">
        <g id="2.0LOGIN-状态" transform="translate(-1244.000000, -389.000000)" fill="#02996A" fill-rule="nonzero">
            <g id="编组-7" transform="translate(481.000000, 236.000000)">
                <g id="编组-3" transform="translate(70.000000, 0.000000)">
                    <g id="编组-5" transform="translate(390.000000, 140.000000)">
                        <path d="M313,33 C318.523136,33 323,28.5231361 323,23 C323,17.4768639 318.523136,13 313,13 C307.476864,13 303,17.4768639 303,23 C303,28.5231361 307.476864,33 313,33 Z M318.269374,19.2125064 C318.635261,18.8460972 319.228905,18.8456742 319.595314,19.2115616 C319.961723,19.577449 319.962146,20.1710926 319.596259,20.5375018 L312.105625,28.0374963 C311.759263,28.3844751 311.204051,28.4059959 310.83187,28.0868689 L306.456893,24.3368827 C306.063732,23.9998223 306.018253,23.4078609 306.355313,23.0146997 C306.692374,22.6215386 307.284335,22.5760598 307.677496,22.9131201 L311.392502,26.0981453 L318.269374,19.2125284 L318.269374,19.2125064 Z" id="形状"></path>
                    </g>
                </g>
            </g>
        </g>
    </g>
</svg>