<?xml version="1.0" encoding="UTF-8"?>
<svg width="199px" height="68px" viewBox="0 0 199 68" version="1.1" xmlns="http://www.w3.org/2000/svg" xmlns:xlink="http://www.w3.org/1999/xlink">
    <g id="icon-logo-g" stroke="none" stroke-width="1" fill="none" fill-rule="evenodd">
        <g id="2.0LOGIN" transform="translate(-491.000000, -401.000000)" fill-rule="nonzero">
            <g id="2.0LOGO" transform="translate(491.000000, 401.000000)">
                <path d="M38.8677717,10.6425534 L36.4363807,17.5504791 L41.9336813,17.5504791 L44.3732092,10.6425534 L53.1090374,10.6425534 L50.6756629,17.5504791 L52.244508,17.5508776 C58.2963967,17.5508776 61.4400393,22.4569027 59.2660307,28.5087912 C57.501683,33.4202875 52.7771602,37.5770763 47.8243801,38.9692542 C51.7773985,40.3601596 53.51545,44.5169483 51.7511023,49.4284447 C49.5770937,55.4803332 42.9086864,60.3863583 36.8567976,60.3863583 L35.2879578,60.3859456 L32.640836,67.4944029 L23.9404649,67.4944029 L26.5459762,60.3859456 L21.0486755,60.3859456 L18.5341871,67.4944029 L9.73712764,67.4944029 L12.3075051,60.3859456 L0,60.3863583 L3.01170256,52.0025425 L9.37152411,52.0025425 L18.5341871,26.4960141 L12.9412035,26.4960141 L8.85401614,17.5508776 L27.6952103,17.5504791 L30.0965815,10.6425534 L38.8677717,10.6425534 Z M45.4253014,26.5164434 L24.8349897,26.5164434 L26.4881804,28.6886558 L18.3221572,51.4207925 L36.4789582,51.4207925 C38.7307325,51.4207925 41.2118995,49.595369 42.0208002,47.3435947 C42.8084138,45.1510779 41.7202127,43.3627673 39.5837539,43.2701641 L39.4082465,43.2663972 L25.8459495,43.2662975 L28.9338644,34.6703266 L42.4960131,34.6708387 C44.7477871,34.6708387 47.2289544,32.8454152 48.0378549,30.5936412 C48.8467557,28.3418669 47.6770755,26.5164434 45.4253014,26.5164434 Z" id="形状结合" fill="#02996A"></path>
                <g id="编组-27" transform="translate(47.481195, 44.906384)" fill="#02996A">
                    <path d="M7.69957769,22.5880189 L16.1602854,-9.44326437e-13 L6.77415866,-9.44326437e-13 L7.69957769,1.56505157 L0.0179887255,22.5880189 L7.69957769,22.5880189 Z M25.5339844,22.5829793 L31.6754373,6.40492215 L30.7864655,4.99134217 L40.5757808,4.99134217 L42.5072213,4.71429964e-13 L17.7672549,4.71429964e-13 L16.1024924,4.99134217 L24.6378045,4.99134217 L17.7672549,22.5829793 L25.5339844,22.5829793 Z" id="BITGAME备份-2"></path>
                </g>
                <path d="M166.565992,1.29787228 C178.652791,1.29787228 188.451078,11.0101657 188.451078,22.9908869 C188.451078,32.3329368 182.493516,40.2957353 174.138839,43.3500832 C181.443892,39.9750619 186.506648,32.6314319 186.506648,24.1157099 C186.506648,17.0611777 183.032243,10.8110144 177.687055,6.95476939 L174.498383,9.19217517 L177.230923,19.0227797 L183.134945,23.1388521 L186.462479,23.1388651 L183.264732,23.8472308 L180.028358,31.8122735 L180.423104,37.8109944 L179.174877,32.1637373 L173.367157,30.5933118 L165.830909,34.9794001 L172.407251,29.6689671 L171.014374,22.9846649 L162.776778,19.3399797 L157.65797,22.328201 L157.267245,29.4750958 L157.245035,28.7195794 L157.257074,29.459885 L91.0082853,38.7418994 L157.016869,22.1785621 L153.615924,19.3790514 L122.426245,26.3574654 L150.842063,17.0960801 L154.08604,10.7483939 L159.860978,11.5864901 L167.021859,7.34763896 L165.964243,2.92143631 C165.680182,2.91035495 165.394699,2.90476226 165.107897,2.90476226 C161.078431,2.90476226 157.309091,4.00872432 154.09092,5.92816096 C151.938235,7.43849413 150.431225,8.70381077 149.569911,9.72423694 C148.169578,11.3832572 147.006687,13.2680986 146.08124,15.3787612 L145.979389,15.6142086 L56.0680965,39.2451919 L121.955401,16.1786281 L102.552438,18.5123088 L159.433036,2.47440134 C159.430517,2.47593217 159.427997,2.47746283 159.425479,2.47899333 C161.663463,1.71345537 164.065766,1.29787228 166.565992,1.29787228 Z M167.05223,7.38631556 L161.218812,12.3353625 L163.028825,18.4107031 L171.006328,22.9366436 L177.154089,19.0515924 L173.314723,9.26174113 L167.05223,7.38631556 Z" id="形状结合" fill="#FFAB00" transform="translate(122.259587, 22.323978) rotate(-1.000000) translate(-122.259587, -22.323978) "></path>
                <path d="M108.856555,65.2778158 L112.617468,55.2402915 L112.617468,55.2402915 L102.01832,55.2402915 L104.073517,57.7356102 L101.897067,63.6590346 L92.4846969,63.6590346 L97.7557563,50.0915807 L96.9180212,48.7367127 L107.558092,48.7367127 L106.527538,51.4099628 L114.384822,51.4099628 L116.100406,46.7389871 C116.35989,46.0324975 115.99752,45.2494213 115.291031,44.9899377 C115.140552,44.9346688 114.981501,44.906384 114.821194,44.906384 L92.0148686,44.906384 L92.0148686,44.906384 L84.3407707,64.816113 L86.0111579,67.4893633 L105.666231,67.4893633 C107.086729,67.4893633 108.358152,66.608007 108.856555,65.2778158 Z M116.138339,67.4893633 L120.399638,61.3448778 L129.66914,61.3448778 L128.965694,67.4893633 L135.99961,67.4893633 L138.316789,46.4181138 C138.39906,45.6699888 137.859278,44.9968206 137.111153,44.91455 C137.061685,44.9091101 137.011956,44.906384 136.962189,44.906384 L122.370458,44.906384 L122.370458,44.906384 L123.279801,46.0235632 L108.927212,67.4893633 L116.138339,67.4893633 Z M130.538878,57.4761554 L122.764172,57.4761554 L128.041275,49.8466618 L127.18614,48.7412296 L131.518919,48.7412296 L130.538878,57.4761554 Z M143.910511,67.4893633 L148.318787,55.9983774 L149.000932,65.9731916 L155.314012,65.9731916 L164.159468,55.5993847 L159.242276,67.4893633 L166.334243,67.4893633 L174.373162,46.761921 C174.645312,46.0602133 174.297087,45.2707459 173.595379,44.9985958 C173.438238,44.9376503 173.271154,44.906384 173.102608,44.906384 L166.81202,44.906384 L166.81202,44.906384 L155.05858,59.0706202 L154.226854,44.906384 L143.978348,44.906384 L145.150833,46.4638309 L136.818544,67.4893633 L143.910511,67.4893633 Z M190.113817,67.4893633 L191.444312,63.3930395 L177.843744,63.3930395 L179.969314,57.9135418 L192.425145,57.9135418 L193.899108,53.6842204 L181.756717,53.6842204 L183.2747,50.0785521 L181.828749,49.1357052 L196.287871,49.1357052 L198.03439,44.906384 L175.671131,44.906384 L176.462511,46.4638309 L169.039982,65.1681066 L170.495819,67.4893633 L190.113817,67.4893633 Z" id="BITGAME备份-3" fill="#FFFFFF"></path>
            </g>
        </g>
    </g>
</svg>