<?xml version="1.0" encoding="UTF-8"?>
<svg width="12px" height="10px" viewBox="0 0 12 10" version="1.1" xmlns="http://www.w3.org/2000/svg" xmlns:xlink="http://www.w3.org/1999/xlink">
    <g id="页面-1" stroke="none" stroke-width="1" fill="none" fill-rule="evenodd">
        <g id="2.0SIGN-UP" transform="translate(-843.000000, -614.000000)" fill="#02996A" fill-rule="nonzero">
            <g id="编组-7" transform="translate(380.000000, 245.000000)">
                <g id="编组-3" transform="translate(70.000000, 0.000000)">
                    <g id="编组-12" transform="translate(390.000000, 64.000000)">
                        <g id="编组-11" transform="translate(0.000000, 301.000000)">
                            <g id="zhengquexuanzhongqueding" transform="translate(3.000000, 4.000000)">
                                <path d="M10.9051065,0.219655432 C11.1259798,-0.0404671401 11.5093992,-0.0742382046 11.7706542,0.14341915 C12.0319092,0.361076505 12.0763545,0.751311146 11.870987,1.02435193 L11.8640023,1.03351936 L4.7516098,9.77109733 C4.63025674,9.91965304 4.44932429,10.003829 4.25988167,9.99986609 C4.07043905,9.99590318 3.89303648,9.90423126 3.77774685,9.75072527 L3.76976437,9.74053924 L0.124762992,4.68317451 C-0.0818902969,4.40189501 -0.0260484267,4.00285637 0.249489301,3.79189675 C0.525027029,3.58093713 0.915920086,3.63794265 1.12257339,3.91922214 L1.12955806,3.92838956 L4.30259512,8.33079246 L10.9051065,0.219655432 L10.9051065,0.219655432 Z" id="路径"></path>
                            </g>
                        </g>
                    </g>
                </g>
            </g>
        </g>
    </g>
</svg>