<?xml version="1.0" encoding="UTF-8"?>
<svg width="14px" height="14px" viewBox="0 0 14 14" version="1.1" xmlns="http://www.w3.org/2000/svg" xmlns:xlink="http://www.w3.org/1999/xlink">
  <g stroke="none" stroke-width="1" fill="none" fill-rule="evenodd">
    <path fill="currentColor" d="M7,0 C10.85,0 14,3.15 14,7 C14,10.85 10.85,14 7,14 C3.15,14 0,10.85 0,7 C0,3.15 3.15,0 7,0 Z M7,1.3125 C3.85,1.3125 1.3125,3.85 1.3125,7 C1.3125,10.15 3.85,12.6875 7,12.6875 C10.15,12.6875 12.6875,10.15 12.6875,7 C12.6875,3.85 10.15,1.3125 7,1.3125 Z M6.875,9.36744792 C7.35824916,9.36744792 7.75,9.75919877 7.75,10.2424479 C7.75,10.7256971 7.35824916,11.1174479 6.875,11.1174479 C6.39175084,11.1174479 6,10.7256971 6,10.2424479 C6,9.75919877 6.39175084,9.36744792 6.875,9.36744792 Z M6.93588541,3 C7.41913457,3 7.81088541,3.39175084 7.81088541,3.875 L7.81088541,7.725 C7.81088541,8.20824916 7.41913457,8.6 6.93588541,8.6 C6.45263626,8.6 6.06088541,8.20824916 6.06088541,7.725 L6.06088541,3.875 C6.06088541,3.39175084 6.45263626,3 6.93588541,3 Z"  fill-rule="nonzero"></path>
  </g>
</svg>