<svg xmlns="http://www.w3.org/2000/svg" width="14" height="14" viewBox="0 0 14 14"><path fill="#FF4646" d="M4.60040353,171.274291 L10,176.674 L15.3995965,171.274291 C15.765318,170.90857 16.3599873,170.90857 16.7257088,171.274291 C17.0914304,171.640013 17.0914304,172.234682 16.7257088,172.600404 L11.326,178 L16.7257088,183.399596 C17.0914304,183.765318 17.0914304,184.359987 16.7257088,184.725709 C16.3599873,185.09143 15.765318,185.09143 15.3995965,184.725709 L10,179.326 L4.60040353,184.725709 C4.23468196,185.09143 3.64001274,185.09143 3.27429118,184.725709 C2.90856961,184.359987 2.90856961,183.765318 3.27429118,183.399596 L8.674,178 L3.27429118,172.600404 C2.90856961,172.234682 2.90856961,171.640013 3.27429118,171.274291 C3.64001274,170.90857 4.23468196,170.90857 4.60040353,171.274291 Z" transform="translate(-3 -171)"/></svg>