<svg xmlns="http://www.w3.org/2000/svg" width="20" height="14" viewBox="0 0 20 14"><path fill="#FFF" d="M111.581282,0.334543749 L99.8501269,11.4613178 L95.4187185,7.25864835 C95.1424914,6.97746164 94.7264828,6.86171517 94.333893,6.95681636 C93.9413032,7.05191754 93.634747,7.34269858 93.5344864,7.71508586 C93.4342259,8.08747315 93.5562517,8.48207418 93.8526932,8.74408671 L99.0671142,13.6908767 C99.2742916,13.8887325 99.5561335,14 99.8501269,14 C100.14412,14 100.425962,13.8887325 100.63314,13.6908767 L113.147307,1.8199821 C113.443748,1.55796958 113.565774,1.16336855 113.465514,0.790981259 C113.365253,0.418593971 113.058697,0.127812936 112.666107,0.0327117522 C112.273517,-0.0623894318 111.857509,0.0533570405 111.581282,0.334543749" transform="translate(-93.5)"/></svg>