<svg xmlns="http://www.w3.org/2000/svg" width="983" height="156" viewBox="0 0 983 156"><g fill="none" transform="translate(.96 .76)"><path fill="#FFF" d="M162.12,27.2 L162.12,37.28 L167.4,37.28 C167.4,39.7333333 167.28,41.7466667 167.04,43.32 C166.8,44.8933333 166.466667,46.12 166.04,47 C165.613333,47.88 165.093333,48.48 164.48,48.8 C163.866667,49.12 163.16,49.28 162.36,49.28 C161.24,49.28 160.346667,48.9866667 159.68,48.4 C159.013333,47.8133333 158.506667,46.7733333 158.16,45.28 C157.813333,43.7866667 157.586667,41.7733333 157.48,39.24 C157.373333,36.7066667 157.32,33.52 157.32,29.68 C157.32,25.84 157.373333,22.6533333 157.48,20.12 C157.586667,17.5866667 157.813333,15.5733333 158.16,14.08 C158.506667,12.5866667 159.04,11.5466667 159.76,10.96 C160.48,10.3733333 161.453333,10.08 162.68,10.08 C164.44,10.08 165.586667,10.9066667 166.12,12.56 C166.653333,13.9466667 166.92,16.16 166.92,19.2 L181.32,19.2 C181.32,15.7333333 180.866667,12.7866667 179.96,10.36 C179.053333,7.93333333 177.8,5.94666667 176.2,4.4 C174.6,2.85333333 172.693333,1.73333333 170.48,1.04 C168.266667,0.346666667 165.853333,0 163.24,0 C158.866667,0 155.293333,0.653333333 152.52,1.96 C149.746667,3.26666667 147.573333,5.17333333 146,7.68 C144.426667,10.1866667 143.36,13.28 142.8,16.96 C142.24,20.64 141.96,24.88 141.96,29.68 C141.96,34.4266667 142.106667,38.64 142.4,42.32 C142.693333,46 143.4,49.0933333 144.52,51.6 C145.64,54.1066667 147.293333,55.9866667 149.48,57.24 C151.666667,58.4933333 154.653333,59.12 158.44,59.12 C159.72,59.12 160.986667,59.04 162.24,58.88 C163.493333,58.72 164.666667,58.44 165.76,58.04 C166.853333,57.64 167.84,57.04 168.72,56.24 C169.6,55.44 170.28,54.4266667 170.76,53.2 L170.92,53.2 L171.24,58.24 L181.32,58.24 L181.32,27.2 L162.12,27.2 Z"/><polygon fill="#FFF" points="188.733 1.12 188.733 58.24 223.293 58.24 223.293 46.08 203.613 46.08 203.613 34.72 221.373 34.72 221.373 23.04 203.613 23.04 203.613 13.28 222.573 13.28 222.573 1.12"/><polygon fill="#FFF" points="237.587 13.76 237.587 58.24 252.467 58.24 252.467 13.76 263.667 13.76 263.667 1.12 226.547 1.12 226.547 13.76"/><path fill="#FFF" d="M305.373333,25.28 L305.373333,11.84 L308.253333,11.84 C310.493333,11.84 312.106667,12.3466667 313.093333,13.36 C314.08,14.3733333 314.573333,16.08 314.573333,18.48 C314.573333,20.5066667 314.066667,22.1466667 313.053333,23.4 C312.04,24.6533333 310.466667,25.28 308.333333,25.28 L305.373333,25.28 Z M290.493333,1.12 L290.493333,58.24 L305.373333,58.24 L305.373333,35.36 L309.293333,35.36 C310.2,35.36 310.96,35.48 311.573333,35.72 C312.186667,35.96 312.693333,36.3866667 313.093333,37 C313.493333,37.6133333 313.773333,38.4533333 313.933333,39.52 C314.093333,40.5866667 314.173333,41.92 314.173333,43.52 L314.173333,47.36 C314.173333,47.9466667 314.186667,48.7066667 314.213333,49.64 C314.24,50.5733333 314.293333,51.5466667 314.373333,52.56 C314.453333,53.5733333 314.586667,54.5866667 314.773333,55.6 C314.96,56.6133333 315.24,57.4933333 315.613333,58.24 L331.453333,58.24 L331.453333,57.44 C330.973333,57.1733333 330.626667,56.8933333 330.413333,56.6 C330.2,56.3066667 329.986667,56 329.773333,55.68 C329.613333,55.36 329.48,54.9066667 329.373333,54.32 C329.266667,53.7333333 329.186667,53.08 329.133333,52.36 C329.08,51.64 329.053333,50.88 329.053333,50.08 C329.053333,49.28 329.053333,48.5066667 329.053333,47.76 L329.053333,42.88 C329.053333,39.04 328.386667,36.0266667 327.053333,33.84 C325.72,31.6533333 323.266667,30.4 319.693333,30.08 L319.693333,29.92 C323.106667,29.3866667 325.586667,27.9466667 327.133333,25.6 C328.68,23.2533333 329.453333,20.16 329.453333,16.32 C329.453333,14.1333333 329.173333,12.1066667 328.613333,10.24 C328.053333,8.37333333 327.146667,6.76 325.893333,5.4 C324.64,4.04 323.013333,2.98666667 321.013333,2.24 C319.013333,1.49333333 316.6,1.12 313.773333,1.12 L290.493333,1.12 Z"/><polygon fill="#FFF" points="337.747 1.12 337.747 58.24 372.307 58.24 372.307 46.08 352.627 46.08 352.627 34.72 370.387 34.72 370.387 23.04 352.627 23.04 352.627 13.28 371.587 13.28 371.587 1.12"/><path fill="#FFF" d="M397.72 12.8 393.64 37.04 401.96 37.04 397.88 12.8 397.72 12.8ZM407.16 1.12 421.08 58.24 405.24 58.24 403.72 48.24 391.88 48.24 390.36 58.24 374.76 58.24 388.44 1.12 407.16 1.12ZM424.893333 1.12 424.893333 58.24 446.493333 58.24C450.813333 58.24 454.173333 57.4533333 456.573333 55.88 458.973333 54.3066667 460.773333 52.2 461.973333 49.56 463.173333 46.92 463.906667 43.88 464.173333 40.44 464.44 37 464.573333 33.4133333 464.573333 29.68 464.573333 25.9466667 464.44 22.36 464.173333 18.92 463.906667 15.48 463.173333 12.44 461.973333 9.8 460.773333 7.16 458.973333 5.05333333 456.573333 3.48 454.173333 1.90666667 450.813333 1.12 446.493333 1.12L424.893333 1.12ZM439.773333 47.52 439.773333 11.84 442.733333 11.84C444.173333 11.84 445.32 12.04 446.173333 12.44 447.026667 12.84 447.68 13.68 448.133333 14.96 448.586667 16.24 448.88 18.0533333 449.013333 20.4 449.146667 22.7466667 449.213333 25.84 449.213333 29.68 449.213333 33.52 449.146667 36.6133333 449.013333 38.96 448.88 41.3066667 448.586667 43.12 448.133333 44.4 447.68 45.68 447.026667 46.52 446.173333 46.92 445.32 47.32 444.173333 47.52 442.733333 47.52L439.773333 47.52Z"/><polygon fill="#FFF" points="479.587 35.76 479.587 58.24 494.467 58.24 494.467 35.76 509.027 1.12 492.707 1.12 487.107 21.04 486.947 21.04 481.347 1.12 465.267 1.12"/><polygon fill="#FFF" points="539.373 13.76 539.373 58.24 554.253 58.24 554.253 13.76 565.453 13.76 565.453 1.12 528.333 1.12 528.333 13.76"/><path fill="#FFF" d="M583.826667 29.68C583.826667 25.84 583.88 22.6533333 583.986667 20.12 584.093333 17.5866667 584.32 15.5733333 584.666667 14.08 585.013333 12.5866667 585.52 11.5466667 586.186667 10.96 586.853333 10.3733333 587.746667 10.08 588.866667 10.08 589.986667 10.08 590.88 10.3733333 591.546667 10.96 592.213333 11.5466667 592.72 12.5866667 593.066667 14.08 593.413333 15.5733333 593.64 17.5866667 593.746667 20.12 593.853333 22.6533333 593.906667 25.84 593.906667 29.68 593.906667 33.52 593.853333 36.7066667 593.746667 39.24 593.64 41.7733333 593.413333 43.7866667 593.066667 45.28 592.72 46.7733333 592.213333 47.8133333 591.546667 48.4 590.88 48.9866667 589.986667 49.28 588.866667 49.28 587.746667 49.28 586.853333 48.9866667 586.186667 48.4 585.52 47.8133333 585.013333 46.7733333 584.666667 45.28 584.32 43.7866667 584.093333 41.7733333 583.986667 39.24 583.88 36.7066667 583.826667 33.52 583.826667 29.68ZM568.466667 29.68C568.466667 35.0133333 568.813333 39.56 569.506667 43.32 570.2 47.08 571.346667 50.1466667 572.946667 52.52 574.546667 54.8933333 576.653333 56.5866667 579.266667 57.6 581.88 58.6133333 585.08 59.12 588.866667 59.12 592.653333 59.12 595.853333 58.6133333 598.466667 57.6 601.08 56.5866667 603.186667 54.8933333 604.786667 52.52 606.386667 50.1466667 607.533333 47.08 608.226667 43.32 608.92 39.56 609.266667 35.0133333 609.266667 29.68 609.266667 24.3466667 608.92 19.8 608.226667 16.04 607.533333 12.28 606.386667 9.21333333 604.786667 6.84 603.186667 4.46666667 601.08 2.73333333 598.466667 1.64 595.853333.546666667 592.653333 0 588.866667 0 585.08 0 581.88.546666667 579.266667 1.64 576.653333 2.73333333 574.546667 4.46666667 572.946667 6.84 571.346667 9.21333333 570.2 12.28 569.506667 16.04 568.813333 19.8 568.466667 24.3466667 568.466667 29.68ZM660.333333 17.6 674.253333 17.6C674.253333 11.4666667 672.8 7 669.893333 4.2 666.986667 1.4 662.28 0 655.773333 0 649.48 0 644.786667 1.52 641.693333 4.56 638.6 7.6 637.053333 12.0266667 637.053333 17.84 637.053333 21.2 637.626667 23.92 638.773333 26 639.92 28.08 641.36 29.76 643.093333 31.04 644.826667 32.32 646.706667 33.36 648.733333 34.16 650.76 34.96 652.64 35.7466667 654.373333 36.52 656.106667 37.2933333 657.546667 38.2266667 658.693333 39.32 659.84 40.4133333 660.413333 41.8933333 660.413333 43.76 660.413333 45.3066667 660 46.6133333 659.173333 47.68 658.346667 48.7466667 657.16 49.28 655.613333 49.28 654.173333 49.28 653 48.7866667 652.093333 47.8 651.186667 46.8133333 650.733333 45.0933333 650.733333 42.64L650.733333 41.28 636.333333 41.28 636.333333 43.28C636.333333 46.2666667 636.76 48.7733333 637.613333 50.8 638.466667 52.8266667 639.706667 54.4666667 641.333333 55.72 642.96 56.9733333 644.96 57.8533333 647.333333 58.36 649.706667 58.8666667 652.44 59.12 655.533333 59.12 662.093333 59.12 667.106667 57.7466667 670.573333 55 674.04 52.2533333 675.773333 47.84 675.773333 41.76 675.773333 38.2933333 675.173333 35.48 673.973333 33.32 672.773333 31.16 671.266667 29.4133333 669.453333 28.08 667.64 26.7466667 665.693333 25.6666667 663.613333 24.84 661.533333 24.0133333 659.586667 23.2 657.773333 22.4 655.96 21.6 654.453333 20.6533333 653.253333 19.56 652.053333 18.4666667 651.453333 16.9866667 651.453333 15.12 651.453333 13.84 651.826667 12.68 652.573333 11.64 653.32 10.6 654.493333 10.08 656.093333 10.08 657.533333 10.08 658.6 10.68 659.293333 11.88 659.986667 13.08 660.333333 14.5333333 660.333333 16.24L660.333333 17.6Z"/><polygon fill="#FFF" points="689.907 13.76 689.907 58.24 704.787 58.24 704.787 13.76 715.987 13.76 715.987 1.12 678.867 1.12 678.867 13.76"/><path fill="#FFF" d="M734.92 12.8 730.84 37.04 739.16 37.04 735.08 12.8 734.92 12.8ZM744.36 1.12 758.28 58.24 742.44 58.24 740.92 48.24 729.08 48.24 727.56 58.24 711.96 58.24 725.64 1.12 744.36 1.12ZM776.973333 25.28 776.973333 11.84 779.853333 11.84C782.093333 11.84 783.706667 12.3466667 784.693333 13.36 785.68 14.3733333 786.173333 16.08 786.173333 18.48 786.173333 20.5066667 785.666667 22.1466667 784.653333 23.4 783.64 24.6533333 782.066667 25.28 779.933333 25.28L776.973333 25.28ZM762.093333 1.12 762.093333 58.24 776.973333 58.24 776.973333 35.36 780.893333 35.36C781.8 35.36 782.56 35.48 783.173333 35.72 783.786667 35.96 784.293333 36.3866667 784.693333 37 785.093333 37.6133333 785.373333 38.4533333 785.533333 39.52 785.693333 40.5866667 785.773333 41.92 785.773333 43.52L785.773333 47.36C785.773333 47.9466667 785.786667 48.7066667 785.813333 49.64 785.84 50.5733333 785.893333 51.5466667 785.973333 52.56 786.053333 53.5733333 786.186667 54.5866667 786.373333 55.6 786.56 56.6133333 786.84 57.4933333 787.213333 58.24L803.053333 58.24 803.053333 57.44C802.573333 57.1733333 802.226667 56.8933333 802.013333 56.6 801.8 56.3066667 801.586667 56 801.373333 55.68 801.213333 55.36 801.08 54.9066667 800.973333 54.32 800.866667 53.7333333 800.786667 53.08 800.733333 52.36 800.68 51.64 800.653333 50.88 800.653333 50.08 800.653333 49.28 800.653333 48.5066667 800.653333 47.76L800.653333 42.88C800.653333 39.04 799.986667 36.0266667 798.653333 33.84 797.32 31.6533333 794.866667 30.4 791.293333 30.08L791.293333 29.92C794.706667 29.3866667 797.186667 27.9466667 798.733333 25.6 800.28 23.2533333 801.053333 20.16 801.053333 16.32 801.053333 14.1333333 800.773333 12.1066667 800.213333 10.24 799.653333 8.37333333 798.746667 6.76 797.493333 5.4 796.24 4.04 794.613333 2.98666667 792.613333 2.24 790.613333 1.49333333 788.2 1.12 785.373333 1.12L762.093333 1.12Z"/><polygon fill="#FFF" points="815.427 13.76 815.427 58.24 830.307 58.24 830.307 13.76 841.507 13.76 841.507 1.12 804.387 1.12 804.387 13.76"/><polygon fill="#FFF" points="0 97.12 0 154.24 34.56 154.24 34.56 142.08 14.88 142.08 14.88 130.72 32.64 130.72 32.64 119.04 14.88 119.04 14.88 109.28 33.84 109.28 33.84 97.12"/><path fill="#FFF" d="M59.9733333 108.8 55.8933333 133.04 64.2133333 133.04 60.1333333 108.8 59.9733333 108.8ZM69.4133333 97.12 83.3333333 154.24 67.4933333 154.24 65.9733333 144.24 54.1333333 144.24 52.6133333 154.24 37.0133333 154.24 50.6933333 97.12 69.4133333 97.12ZM102.026667 121.28 102.026667 107.84 104.906667 107.84C107.146667 107.84 108.76 108.346667 109.746667 109.36 110.733333 110.373333 111.226667 112.08 111.226667 114.48 111.226667 116.506667 110.72 118.146667 109.706667 119.4 108.693333 120.653333 107.12 121.28 104.986667 121.28L102.026667 121.28ZM87.1466667 97.12 87.1466667 154.24 102.026667 154.24 102.026667 131.36 105.946667 131.36C106.853333 131.36 107.613333 131.48 108.226667 131.72 108.84 131.96 109.346667 132.386667 109.746667 133 110.146667 133.613333 110.426667 134.453333 110.586667 135.52 110.746667 136.586667 110.826667 137.92 110.826667 139.52L110.826667 143.36C110.826667 143.946667 110.84 144.706667 110.866667 145.64 110.893333 146.573333 110.946667 147.546667 111.026667 148.56 111.106667 149.573333 111.24 150.586667 111.426667 151.6 111.613333 152.613333 111.893333 153.493333 112.266667 154.24L128.106667 154.24 128.106667 153.44C127.626667 153.173333 127.28 152.893333 127.066667 152.6 126.853333 152.306667 126.64 152 126.426667 151.68 126.266667 151.36 126.133333 150.906667 126.026667 150.32 125.92 149.733333 125.84 149.08 125.786667 148.36 125.733333 147.64 125.706667 146.88 125.706667 146.08 125.706667 145.28 125.706667 144.506667 125.706667 143.76L125.706667 138.88C125.706667 135.04 125.04 132.026667 123.706667 129.84 122.373333 127.653333 119.92 126.4 116.346667 126.08L116.346667 125.92C119.76 125.386667 122.24 123.946667 123.786667 121.6 125.333333 119.253333 126.106667 116.16 126.106667 112.32 126.106667 110.133333 125.826667 108.106667 125.266667 106.24 124.706667 104.373333 123.8 102.76 122.546667 101.4 121.293333 100.04 119.666667 98.9866667 117.666667 98.24 115.666667 97.4933333 113.253333 97.12 110.426667 97.12L87.1466667 97.12Z"/><polygon fill="#FFF" points="134.4 97.12 134.4 154.24 148.32 154.24 148.32 118.96 148.48 118.96 158.4 154.24 174.72 154.24 174.72 97.12 160.8 97.12 160.8 132.32 160.64 132.32 151.04 97.12"/><polygon fill="#FFF" points="182.533 97.12 182.533 154.24 197.413 154.24 197.413 97.12"/><polygon fill="#FFF" points="205.227 97.12 205.227 154.24 219.147 154.24 219.147 118.96 219.307 118.96 229.227 154.24 245.547 154.24 245.547 97.12 231.627 97.12 231.627 132.32 231.467 132.32 221.867 97.12"/><path fill="#FFF" d="M273.12,123.2 L273.12,133.28 L278.4,133.28 C278.4,135.733333 278.28,137.746667 278.04,139.32 C277.8,140.893333 277.466667,142.12 277.04,143 C276.613333,143.88 276.093333,144.48 275.48,144.8 C274.866667,145.12 274.16,145.28 273.36,145.28 C272.24,145.28 271.346667,144.986667 270.68,144.4 C270.013333,143.813333 269.506667,142.773333 269.16,141.28 C268.813333,139.786667 268.586667,137.773333 268.48,135.24 C268.373333,132.706667 268.32,129.52 268.32,125.68 C268.32,121.84 268.373333,118.653333 268.48,116.12 C268.586667,113.586667 268.813333,111.573333 269.16,110.08 C269.506667,108.586667 270.04,107.546667 270.76,106.96 C271.48,106.373333 272.453333,106.08 273.68,106.08 C275.44,106.08 276.586667,106.906667 277.12,108.56 C277.653333,109.946667 277.92,112.16 277.92,115.2 L292.32,115.2 C292.32,111.733333 291.866667,108.786667 290.96,106.36 C290.053333,103.933333 288.8,101.946667 287.2,100.4 C285.6,98.8533333 283.693333,97.7333333 281.48,97.04 C279.266667,96.3466667 276.853333,96 274.24,96 C269.866667,96 266.293333,96.6533333 263.52,97.96 C260.746667,99.2666667 258.573333,101.173333 257,103.68 C255.426667,106.186667 254.36,109.28 253.8,112.96 C253.24,116.64 252.96,120.88 252.96,125.68 C252.96,130.426667 253.106667,134.64 253.4,138.32 C253.693333,142 254.4,145.093333 255.52,147.6 C256.64,150.106667 258.293333,151.986667 260.48,153.24 C262.666667,154.493333 265.653333,155.12 269.44,155.12 C270.72,155.12 271.986667,155.04 273.24,154.88 C274.493333,154.72 275.666667,154.44 276.76,154.04 C277.853333,153.64 278.84,153.04 279.72,152.24 C280.6,151.44 281.28,150.426667 281.76,149.2 L281.92,149.2 L282.24,154.24 L292.32,154.24 L292.32,123.2 L273.12,123.2 Z"/><polygon fill="#FFF" points="339.787 97.12 334.427 136.64 334.267 136.64 329.787 97.12 315.387 97.12 325.147 154.24 341.467 154.24 346.427 115.84 346.587 115.84 351.547 154.24 367.867 154.24 377.627 97.12 363.227 97.12 359.227 136.64 359.067 136.64 353.227 97.12"/><polygon fill="#FFF" points="381.92 97.12 381.92 154.24 396.8 154.24 396.8 97.12"/><polygon fill="#FFF" points="412.133 109.76 412.133 154.24 427.013 154.24 427.013 109.76 438.213 109.76 438.213 97.12 401.093 97.12 401.093 109.76"/><polygon fill="#FFF" points="442.907 97.12 442.907 154.24 457.787 154.24 457.787 130.72 466.907 130.72 466.907 154.24 481.787 154.24 481.787 97.12 466.907 97.12 466.907 118.08 457.787 118.08 457.787 97.12"/><path fill="#FFAB00" d="M527.653333,143.52 L527.653333,129.6 L531.813333,129.6 C533.2,129.6 534.426667,130.186667 535.493333,131.36 C536.56,132.533333 537.093333,134.24 537.093333,136.48 C537.093333,138.88 536.56,140.653333 535.493333,141.8 C534.426667,142.946667 533.2,143.52 531.813333,143.52 L527.653333,143.52 Z M527.653333,119.52 L527.653333,107.84 L531.253333,107.84 C532.8,107.84 533.973333,108.426667 534.773333,109.6 C535.573333,110.773333 535.973333,112.16 535.973333,113.76 C535.973333,115.306667 535.573333,116.653333 534.773333,117.8 C533.973333,118.946667 532.8,119.52 531.253333,119.52 L527.653333,119.52 Z M512.773333,97.12 L512.773333,154.24 L535.253333,154.24 C538.346667,154.24 540.986667,153.826667 543.173333,153 C545.36,152.173333 547.133333,151.013333 548.493333,149.52 C549.853333,148.026667 550.853333,146.24 551.493333,144.16 C552.133333,142.08 552.453333,139.813333 552.453333,137.36 C552.453333,135.866667 552.253333,134.386667 551.853333,132.92 C551.453333,131.453333 550.826667,130.106667 549.973333,128.88 C549.12,127.653333 548.026667,126.626667 546.693333,125.8 C545.36,124.973333 543.76,124.48 541.893333,124.32 L541.893333,124.16 C543.493333,123.84 544.853333,123.28 545.973333,122.48 C547.093333,121.68 548.013333,120.706667 548.733333,119.56 C549.453333,118.413333 549.986667,117.133333 550.333333,115.72 C550.68,114.306667 550.853333,112.853333 550.853333,111.36 C550.853333,107.04 549.586667,103.586667 547.053333,101 C544.52,98.4133333 540.586667,97.12 535.253333,97.12 L512.773333,97.12 Z"/><polygon fill="#FFAB00" points="558.987 97.12 558.987 154.24 573.867 154.24 573.867 97.12"/><polygon fill="#FFAB00" points="589.2 109.76 589.2 154.24 604.08 154.24 604.08 109.76 615.28 109.76 615.28 97.12 578.16 97.12 578.16 109.76"/><path fill="#FFAB00" d="M639.173333 123.2 639.173333 133.28 644.453333 133.28C644.453333 135.733333 644.333333 137.746667 644.093333 139.32 643.853333 140.893333 643.52 142.12 643.093333 143 642.666667 143.88 642.146667 144.48 641.533333 144.8 640.92 145.12 640.213333 145.28 639.413333 145.28 638.293333 145.28 637.4 144.986667 636.733333 144.4 636.066667 143.813333 635.56 142.773333 635.213333 141.28 634.866667 139.786667 634.64 137.773333 634.533333 135.24 634.426667 132.706667 634.373333 129.52 634.373333 125.68 634.373333 121.84 634.426667 118.653333 634.533333 116.12 634.64 113.586667 634.866667 111.573333 635.213333 110.08 635.56 108.586667 636.093333 107.546667 636.813333 106.96 637.533333 106.373333 638.506667 106.08 639.733333 106.08 641.493333 106.08 642.64 106.906667 643.173333 108.56 643.706667 109.946667 643.973333 112.16 643.973333 115.2L658.373333 115.2C658.373333 111.733333 657.92 108.786667 657.013333 106.36 656.106667 103.933333 654.853333 101.946667 653.253333 100.4 651.653333 98.8533333 649.746667 97.7333333 647.533333 97.04 645.32 96.3466667 642.906667 96 640.293333 96 635.92 96 632.346667 96.6533333 629.573333 97.96 626.8 99.2666667 624.626667 101.173333 623.053333 103.68 621.48 106.186667 620.413333 109.28 619.853333 112.96 619.293333 116.64 619.013333 120.88 619.013333 125.68 619.013333 130.426667 619.16 134.64 619.453333 138.32 619.746667 142 620.453333 145.093333 621.573333 147.6 622.693333 150.106667 624.346667 151.986667 626.533333 153.24 628.72 154.493333 631.706667 155.12 635.493333 155.12 636.773333 155.12 638.04 155.04 639.293333 154.88 640.546667 154.72 641.72 154.44 642.813333 154.04 643.906667 153.64 644.893333 153.04 645.773333 152.24 646.653333 151.44 647.333333 150.426667 647.813333 149.2L647.973333 149.2 648.293333 154.24 658.373333 154.24 658.373333 123.2 639.173333 123.2ZM684.426667 108.8 680.346667 133.04 688.666667 133.04 684.586667 108.8 684.426667 108.8ZM693.866667 97.12 707.786667 154.24 691.946667 154.24 690.426667 144.24 678.586667 144.24 677.066667 154.24 661.466667 154.24 675.146667 97.12 693.866667 97.12Z"/><polygon fill="#FFAB00" points="711.04 97.12 711.04 154.24 724.96 154.24 724.96 111.68 725.12 111.68 733.04 154.24 743.76 154.24 751.68 111.68 751.84 111.68 751.84 154.24 765.76 154.24 765.76 97.12 744.48 97.12 738.48 130.96 738.32 130.96 732.32 97.12"/><polygon fill="#FFAB00" points="773.573 97.12 773.573 154.24 808.133 154.24 808.133 142.08 788.453 142.08 788.453 130.72 806.213 130.72 806.213 119.04 788.453 119.04 788.453 109.28 807.413 109.28 807.413 97.12"/><polygon fill="#FFAB00" points="815.067 138.4 815.067 154.24 828.507 154.24 828.507 138.4"/><path fill="#FFAB00" d="M859.84 114.48 859.84 117.68 874.24 117.68 874.24 114.08C874.24 111.306667 873.906667 108.813333 873.24 106.6 872.573333 104.386667 871.506667 102.493333 870.04 100.92 868.573333 99.3466667 866.666667 98.1333333 864.32 97.28 861.973333 96.4266667 859.12 96 855.76 96 851.92 96 848.693333 96.52 846.08 97.56 843.466667 98.6 841.36 100.293333 839.76 102.64 838.16 104.986667 837.026667 108.053333 836.36 111.84 835.693333 115.626667 835.36 120.24 835.36 125.68 835.36 131.013333 835.64 135.56 836.2 139.32 836.76 143.08 837.786667 146.146667 839.28 148.52 840.773333 150.893333 842.853333 152.586667 845.52 153.6 848.186667 154.613333 851.6 155.12 855.76 155.12 858.16 155.12 860.493333 154.866667 862.76 154.36 865.026667 153.853333 867.04 152.866667 868.8 151.4 870.56 149.933333 871.973333 147.92 873.04 145.36 874.106667 142.8 874.64 139.52 874.64 135.52L874.64 131.28 860.24 131.28C860.24 134 860.173333 136.253333 860.04 138.04 859.906667 139.826667 859.68 141.253333 859.36 142.32 859.04 143.386667 858.586667 144.146667 858 144.6 857.413333 145.053333 856.666667 145.28 855.76 145.28 854.64 145.28 853.746667 144.986667 853.08 144.4 852.413333 143.813333 851.906667 142.773333 851.56 141.28 851.213333 139.786667 850.986667 137.773333 850.88 135.24 850.773333 132.706667 850.72 129.52 850.72 125.68 850.72 121.84 850.773333 118.653333 850.88 116.12 850.986667 113.586667 851.213333 111.573333 851.56 110.08 851.906667 108.586667 852.413333 107.546667 853.08 106.96 853.746667 106.373333 854.64 106.08 855.76 106.08 857.2 106.08 858.24 106.666667 858.88 107.84 859.52 109.013333 859.84 111.226667 859.84 114.48ZM895.013333 125.68C895.013333 121.84 895.066667 118.653333 895.173333 116.12 895.28 113.586667 895.506667 111.573333 895.853333 110.08 896.2 108.586667 896.706667 107.546667 897.373333 106.96 898.04 106.373333 898.933333 106.08 900.053333 106.08 901.173333 106.08 902.066667 106.373333 902.733333 106.96 903.4 107.546667 903.906667 108.586667 904.253333 110.08 904.6 111.573333 904.826667 113.586667 904.933333 116.12 905.04 118.653333 905.093333 121.84 905.093333 125.68 905.093333 129.52 905.04 132.706667 904.933333 135.24 904.826667 137.773333 904.6 139.786667 904.253333 141.28 903.906667 142.773333 903.4 143.813333 902.733333 144.4 902.066667 144.986667 901.173333 145.28 900.053333 145.28 898.933333 145.28 898.04 144.986667 897.373333 144.4 896.706667 143.813333 896.2 142.773333 895.853333 141.28 895.506667 139.786667 895.28 137.773333 895.173333 135.24 895.066667 132.706667 895.013333 129.52 895.013333 125.68ZM879.653333 125.68C879.653333 131.013333 880 135.56 880.693333 139.32 881.386667 143.08 882.533333 146.146667 884.133333 148.52 885.733333 150.893333 887.84 152.586667 890.453333 153.6 893.066667 154.613333 896.266667 155.12 900.053333 155.12 903.84 155.12 907.04 154.613333 909.653333 153.6 912.266667 152.586667 914.373333 150.893333 915.973333 148.52 917.573333 146.146667 918.72 143.08 919.413333 139.32 920.106667 135.56 920.453333 131.013333 920.453333 125.68 920.453333 120.346667 920.106667 115.8 919.413333 112.04 918.72 108.28 917.573333 105.213333 915.973333 102.84 914.373333 100.466667 912.266667 98.7333333 909.653333 97.64 907.04 96.5466667 903.84 96 900.053333 96 896.266667 96 893.066667 96.5466667 890.453333 97.64 887.84 98.7333333 885.733333 100.466667 884.133333 102.84 882.533333 105.213333 881.386667 108.28 880.693333 112.04 880 115.8 879.653333 120.346667 879.653333 125.68Z"/><polygon fill="#FFAB00" points="926.587 97.12 926.587 154.24 940.507 154.24 940.507 111.68 940.667 111.68 948.587 154.24 959.307 154.24 967.227 111.68 967.387 111.68 967.387 154.24 981.307 154.24 981.307 97.12 960.027 97.12 954.027 130.96 953.867 130.96 947.867 97.12"/></g></svg>