<svg xmlns="http://www.w3.org/2000/svg" width="483" height="348" viewBox="0 0 483 348"><g fill="none" transform="translate(.94 .76)"><path fill="#FFF" d="M79.4,27.2 L79.4,37.28 L84.68,37.28 C84.68,39.7333333 84.56,41.7466667 84.32,43.32 C84.08,44.8933333 83.7466667,46.12 83.32,47 C82.8933333,47.88 82.3733333,48.48 81.76,48.8 C81.1466667,49.12 80.44,49.28 79.64,49.28 C78.52,49.28 77.6266667,48.9866667 76.96,48.4 C76.2933333,47.8133333 75.7866667,46.7733333 75.44,45.28 C75.0933333,43.7866667 74.8666667,41.7733333 74.76,39.24 C74.6533333,36.7066667 74.6,33.52 74.6,29.68 C74.6,25.84 74.6533333,22.6533333 74.76,20.12 C74.8666667,17.5866667 75.0933333,15.5733333 75.44,14.08 C75.7866667,12.5866667 76.32,11.5466667 77.04,10.96 C77.76,10.3733333 78.7333333,10.08 79.96,10.08 C81.72,10.08 82.8666667,10.9066667 83.4,12.56 C83.9333333,13.9466667 84.2,16.16 84.2,19.2 L98.6,19.2 C98.6,15.7333333 98.1466667,12.7866667 97.24,10.36 C96.3333333,7.93333333 95.08,5.94666667 93.48,4.4 C91.88,2.85333333 89.9733333,1.73333333 87.76,1.04 C85.5466667,0.346666667 83.1333333,0 80.52,0 C76.1466667,0 72.5733333,0.653333333 69.8,1.96 C67.0266667,3.26666667 64.8533333,5.17333333 63.28,7.68 C61.7066667,10.1866667 60.64,13.28 60.08,16.96 C59.52,20.64 59.24,24.88 59.24,29.68 C59.24,34.4266667 59.3866667,38.64 59.68,42.32 C59.9733333,46 60.68,49.0933333 61.8,51.6 C62.92,54.1066667 64.5733333,55.9866667 66.76,57.24 C68.9466667,58.4933333 71.9333333,59.12 75.72,59.12 C77,59.12 78.2666667,59.04 79.52,58.88 C80.7733333,58.72 81.9466667,58.44 83.04,58.04 C84.1333333,57.64 85.12,57.04 86,56.24 C86.88,55.44 87.56,54.4266667 88.04,53.2 L88.2,53.2 L88.52,58.24 L98.6,58.24 L98.6,27.2 L79.4,27.2 Z"/><polygon fill="#FFF" points="106.013 1.12 106.013 58.24 140.573 58.24 140.573 46.08 120.893 46.08 120.893 34.72 138.653 34.72 138.653 23.04 120.893 23.04 120.893 13.28 139.853 13.28 139.853 1.12"/><polygon fill="#FFF" points="154.867 13.76 154.867 58.24 169.747 58.24 169.747 13.76 180.947 13.76 180.947 1.12 143.827 1.12 143.827 13.76"/><path fill="#FFF" d="M222.653333,25.28 L222.653333,11.84 L225.533333,11.84 C227.773333,11.84 229.386667,12.3466667 230.373333,13.36 C231.36,14.3733333 231.853333,16.08 231.853333,18.48 C231.853333,20.5066667 231.346667,22.1466667 230.333333,23.4 C229.32,24.6533333 227.746667,25.28 225.613333,25.28 L222.653333,25.28 Z M207.773333,1.12 L207.773333,58.24 L222.653333,58.24 L222.653333,35.36 L226.573333,35.36 C227.48,35.36 228.24,35.48 228.853333,35.72 C229.466667,35.96 229.973333,36.3866667 230.373333,37 C230.773333,37.6133333 231.053333,38.4533333 231.213333,39.52 C231.373333,40.5866667 231.453333,41.92 231.453333,43.52 L231.453333,47.36 C231.453333,47.9466667 231.466667,48.7066667 231.493333,49.64 C231.52,50.5733333 231.573333,51.5466667 231.653333,52.56 C231.733333,53.5733333 231.866667,54.5866667 232.053333,55.6 C232.24,56.6133333 232.52,57.4933333 232.893333,58.24 L248.733333,58.24 L248.733333,57.44 C248.253333,57.1733333 247.906667,56.8933333 247.693333,56.6 C247.48,56.3066667 247.266667,56 247.053333,55.68 C246.893333,55.36 246.76,54.9066667 246.653333,54.32 C246.546667,53.7333333 246.466667,53.08 246.413333,52.36 C246.36,51.64 246.333333,50.88 246.333333,50.08 C246.333333,49.28 246.333333,48.5066667 246.333333,47.76 L246.333333,42.88 C246.333333,39.04 245.666667,36.0266667 244.333333,33.84 C243,31.6533333 240.546667,30.4 236.973333,30.08 L236.973333,29.92 C240.386667,29.3866667 242.866667,27.9466667 244.413333,25.6 C245.96,23.2533333 246.733333,20.16 246.733333,16.32 C246.733333,14.1333333 246.453333,12.1066667 245.893333,10.24 C245.333333,8.37333333 244.426667,6.76 243.173333,5.4 C241.92,4.04 240.293333,2.98666667 238.293333,2.24 C236.293333,1.49333333 233.88,1.12 231.053333,1.12 L207.773333,1.12 Z"/><polygon fill="#FFF" points="255.027 1.12 255.027 58.24 289.587 58.24 289.587 46.08 269.907 46.08 269.907 34.72 287.667 34.72 287.667 23.04 269.907 23.04 269.907 13.28 288.867 13.28 288.867 1.12"/><path fill="#FFF" d="M315 12.8 310.92 37.04 319.24 37.04 315.16 12.8 315 12.8ZM324.44 1.12 338.36 58.24 322.52 58.24 321 48.24 309.16 48.24 307.64 58.24 292.04 58.24 305.72 1.12 324.44 1.12ZM342.173333 1.12 342.173333 58.24 363.773333 58.24C368.093333 58.24 371.453333 57.4533333 373.853333 55.88 376.253333 54.3066667 378.053333 52.2 379.253333 49.56 380.453333 46.92 381.186667 43.88 381.453333 40.44 381.72 37 381.853333 33.4133333 381.853333 29.68 381.853333 25.9466667 381.72 22.36 381.453333 18.92 381.186667 15.48 380.453333 12.44 379.253333 9.8 378.053333 7.16 376.253333 5.05333333 373.853333 3.48 371.453333 1.90666667 368.093333 1.12 363.773333 1.12L342.173333 1.12ZM357.053333 47.52 357.053333 11.84 360.013333 11.84C361.453333 11.84 362.6 12.04 363.453333 12.44 364.306667 12.84 364.96 13.68 365.413333 14.96 365.866667 16.24 366.16 18.0533333 366.293333 20.4 366.426667 22.7466667 366.493333 25.84 366.493333 29.68 366.493333 33.52 366.426667 36.6133333 366.293333 38.96 366.16 41.3066667 365.866667 43.12 365.413333 44.4 364.96 45.68 364.306667 46.52 363.453333 46.92 362.6 47.32 361.453333 47.52 360.013333 47.52L357.053333 47.52Z"/><polygon fill="#FFF" points="396.867 35.76 396.867 58.24 411.747 58.24 411.747 35.76 426.307 1.12 409.987 1.12 404.387 21.04 404.227 21.04 398.627 1.12 382.547 1.12"/><polygon fill="#FFF" points="95.427 109.76 95.427 154.24 110.307 154.24 110.307 109.76 121.507 109.76 121.507 97.12 84.387 97.12 84.387 109.76"/><path fill="#FFF" d="M139.88 125.68C139.88 121.84 139.933333 118.653333 140.04 116.12 140.146667 113.586667 140.373333 111.573333 140.72 110.08 141.066667 108.586667 141.573333 107.546667 142.24 106.96 142.906667 106.373333 143.8 106.08 144.92 106.08 146.04 106.08 146.933333 106.373333 147.6 106.96 148.266667 107.546667 148.773333 108.586667 149.12 110.08 149.466667 111.573333 149.693333 113.586667 149.8 116.12 149.906667 118.653333 149.96 121.84 149.96 125.68 149.96 129.52 149.906667 132.706667 149.8 135.24 149.693333 137.773333 149.466667 139.786667 149.12 141.28 148.773333 142.773333 148.266667 143.813333 147.6 144.4 146.933333 144.986667 146.04 145.28 144.92 145.28 143.8 145.28 142.906667 144.986667 142.24 144.4 141.573333 143.813333 141.066667 142.773333 140.72 141.28 140.373333 139.786667 140.146667 137.773333 140.04 135.24 139.933333 132.706667 139.88 129.52 139.88 125.68ZM124.52 125.68C124.52 131.013333 124.866667 135.56 125.56 139.32 126.253333 143.08 127.4 146.146667 129 148.52 130.6 150.893333 132.706667 152.586667 135.32 153.6 137.933333 154.613333 141.133333 155.12 144.92 155.12 148.706667 155.12 151.906667 154.613333 154.52 153.6 157.133333 152.586667 159.24 150.893333 160.84 148.52 162.44 146.146667 163.586667 143.08 164.28 139.32 164.973333 135.56 165.32 131.013333 165.32 125.68 165.32 120.346667 164.973333 115.8 164.28 112.04 163.586667 108.28 162.44 105.213333 160.84 102.84 159.24 100.466667 157.133333 98.7333333 154.52 97.64 151.906667 96.5466667 148.706667 96 144.92 96 141.133333 96 137.933333 96.5466667 135.32 97.64 132.706667 98.7333333 130.6 100.466667 129 102.84 127.4 105.213333 126.253333 108.28 125.56 112.04 124.866667 115.8 124.52 120.346667 124.52 125.68ZM216.386667 113.6 230.306667 113.6C230.306667 107.466667 228.853333 103 225.946667 100.2 223.04 97.4 218.333333 96 211.826667 96 205.533333 96 200.84 97.52 197.746667 100.56 194.653333 103.6 193.106667 108.026667 193.106667 113.84 193.106667 117.2 193.68 119.92 194.826667 122 195.973333 124.08 197.413333 125.76 199.146667 127.04 200.88 128.32 202.76 129.36 204.786667 130.16 206.813333 130.96 208.693333 131.746667 210.426667 132.52 212.16 133.293333 213.6 134.226667 214.746667 135.32 215.893333 136.413333 216.466667 137.893333 216.466667 139.76 216.466667 141.306667 216.053333 142.613333 215.226667 143.68 214.4 144.746667 213.213333 145.28 211.666667 145.28 210.226667 145.28 209.053333 144.786667 208.146667 143.8 207.24 142.813333 206.786667 141.093333 206.786667 138.64L206.786667 137.28 192.386667 137.28 192.386667 139.28C192.386667 142.266667 192.813333 144.773333 193.666667 146.8 194.52 148.826667 195.76 150.466667 197.386667 151.72 199.013333 152.973333 201.013333 153.853333 203.386667 154.36 205.76 154.866667 208.493333 155.12 211.586667 155.12 218.146667 155.12 223.16 153.746667 226.626667 151 230.093333 148.253333 231.826667 143.84 231.826667 137.76 231.826667 134.293333 231.226667 131.48 230.026667 129.32 228.826667 127.16 227.32 125.413333 225.506667 124.08 223.693333 122.746667 221.746667 121.666667 219.666667 120.84 217.586667 120.013333 215.64 119.2 213.826667 118.4 212.013333 117.6 210.506667 116.653333 209.306667 115.56 208.106667 114.466667 207.506667 112.986667 207.506667 111.12 207.506667 109.84 207.88 108.68 208.626667 107.64 209.373333 106.6 210.546667 106.08 212.146667 106.08 213.586667 106.08 214.653333 106.68 215.346667 107.88 216.04 109.08 216.386667 110.533333 216.386667 112.24L216.386667 113.6Z"/><polygon fill="#FFF" points="245.96 109.76 245.96 154.24 260.84 154.24 260.84 109.76 272.04 109.76 272.04 97.12 234.92 97.12 234.92 109.76"/><path fill="#FFF" d="M290.973333 108.8 286.893333 133.04 295.213333 133.04 291.133333 108.8 290.973333 108.8ZM300.413333 97.12 314.333333 154.24 298.493333 154.24 296.973333 144.24 285.133333 144.24 283.613333 154.24 268.013333 154.24 281.693333 97.12 300.413333 97.12ZM333.026667 121.28 333.026667 107.84 335.906667 107.84C338.146667 107.84 339.76 108.346667 340.746667 109.36 341.733333 110.373333 342.226667 112.08 342.226667 114.48 342.226667 116.506667 341.72 118.146667 340.706667 119.4 339.693333 120.653333 338.12 121.28 335.986667 121.28L333.026667 121.28ZM318.146667 97.12 318.146667 154.24 333.026667 154.24 333.026667 131.36 336.946667 131.36C337.853333 131.36 338.613333 131.48 339.226667 131.72 339.84 131.96 340.346667 132.386667 340.746667 133 341.146667 133.613333 341.426667 134.453333 341.586667 135.52 341.746667 136.586667 341.826667 137.92 341.826667 139.52L341.826667 143.36C341.826667 143.946667 341.84 144.706667 341.866667 145.64 341.893333 146.573333 341.946667 147.546667 342.026667 148.56 342.106667 149.573333 342.24 150.586667 342.426667 151.6 342.613333 152.613333 342.893333 153.493333 343.266667 154.24L359.106667 154.24 359.106667 153.44C358.626667 153.173333 358.28 152.893333 358.066667 152.6 357.853333 152.306667 357.64 152 357.426667 151.68 357.266667 151.36 357.133333 150.906667 357.026667 150.32 356.92 149.733333 356.84 149.08 356.786667 148.36 356.733333 147.64 356.706667 146.88 356.706667 146.08 356.706667 145.28 356.706667 144.506667 356.706667 143.76L356.706667 138.88C356.706667 135.04 356.04 132.026667 354.706667 129.84 353.373333 127.653333 350.92 126.4 347.346667 126.08L347.346667 125.92C350.76 125.386667 353.24 123.946667 354.786667 121.6 356.333333 119.253333 357.106667 116.16 357.106667 112.32 357.106667 110.133333 356.826667 108.106667 356.266667 106.24 355.706667 104.373333 354.8 102.76 353.546667 101.4 352.293333 100.04 350.666667 98.9866667 348.666667 98.24 346.666667 97.4933333 344.253333 97.12 341.426667 97.12L318.146667 97.12Z"/><polygon fill="#FFF" points="371.48 109.76 371.48 154.24 386.36 154.24 386.36 109.76 397.56 109.76 397.56 97.12 360.44 97.12 360.44 109.76"/><polygon fill="#FFF" points="0 193.12 0 250.24 34.56 250.24 34.56 238.08 14.88 238.08 14.88 226.72 32.64 226.72 32.64 215.04 14.88 215.04 14.88 205.28 33.84 205.28 33.84 193.12"/><path fill="#FFF" d="M59.9733333 204.8 55.8933333 229.04 64.2133333 229.04 60.1333333 204.8 59.9733333 204.8ZM69.4133333 193.12 83.3333333 250.24 67.4933333 250.24 65.9733333 240.24 54.1333333 240.24 52.6133333 250.24 37.0133333 250.24 50.6933333 193.12 69.4133333 193.12ZM102.026667 217.28 102.026667 203.84 104.906667 203.84C107.146667 203.84 108.76 204.346667 109.746667 205.36 110.733333 206.373333 111.226667 208.08 111.226667 210.48 111.226667 212.506667 110.72 214.146667 109.706667 215.4 108.693333 216.653333 107.12 217.28 104.986667 217.28L102.026667 217.28ZM87.1466667 193.12 87.1466667 250.24 102.026667 250.24 102.026667 227.36 105.946667 227.36C106.853333 227.36 107.613333 227.48 108.226667 227.72 108.84 227.96 109.346667 228.386667 109.746667 229 110.146667 229.613333 110.426667 230.453333 110.586667 231.52 110.746667 232.586667 110.826667 233.92 110.826667 235.52L110.826667 239.36C110.826667 239.946667 110.84 240.706667 110.866667 241.64 110.893333 242.573333 110.946667 243.546667 111.026667 244.56 111.106667 245.573333 111.24 246.586667 111.426667 247.6 111.613333 248.613333 111.893333 249.493333 112.266667 250.24L128.106667 250.24 128.106667 249.44C127.626667 249.173333 127.28 248.893333 127.066667 248.6 126.853333 248.306667 126.64 248 126.426667 247.68 126.266667 247.36 126.133333 246.906667 126.026667 246.32 125.92 245.733333 125.84 245.08 125.786667 244.36 125.733333 243.64 125.706667 242.88 125.706667 242.08 125.706667 241.28 125.706667 240.506667 125.706667 239.76L125.706667 234.88C125.706667 231.04 125.04 228.026667 123.706667 225.84 122.373333 223.653333 119.92 222.4 116.346667 222.08L116.346667 221.92C119.76 221.386667 122.24 219.946667 123.786667 217.6 125.333333 215.253333 126.106667 212.16 126.106667 208.32 126.106667 206.133333 125.826667 204.106667 125.266667 202.24 124.706667 200.373333 123.8 198.76 122.546667 197.4 121.293333 196.04 119.666667 194.986667 117.666667 194.24 115.666667 193.493333 113.253333 193.12 110.426667 193.12L87.1466667 193.12Z"/><polygon fill="#FFF" points="134.4 193.12 134.4 250.24 148.32 250.24 148.32 214.96 148.48 214.96 158.4 250.24 174.72 250.24 174.72 193.12 160.8 193.12 160.8 228.32 160.64 228.32 151.04 193.12"/><polygon fill="#FFF" points="182.533 193.12 182.533 250.24 197.413 250.24 197.413 193.12"/><polygon fill="#FFF" points="205.227 193.12 205.227 250.24 219.147 250.24 219.147 214.96 219.307 214.96 229.227 250.24 245.547 250.24 245.547 193.12 231.627 193.12 231.627 228.32 231.467 228.32 221.867 193.12"/><path fill="#FFF" d="M273.12,219.2 L273.12,229.28 L278.4,229.28 C278.4,231.733333 278.28,233.746667 278.04,235.32 C277.8,236.893333 277.466667,238.12 277.04,239 C276.613333,239.88 276.093333,240.48 275.48,240.8 C274.866667,241.12 274.16,241.28 273.36,241.28 C272.24,241.28 271.346667,240.986667 270.68,240.4 C270.013333,239.813333 269.506667,238.773333 269.16,237.28 C268.813333,235.786667 268.586667,233.773333 268.48,231.24 C268.373333,228.706667 268.32,225.52 268.32,221.68 C268.32,217.84 268.373333,214.653333 268.48,212.12 C268.586667,209.586667 268.813333,207.573333 269.16,206.08 C269.506667,204.586667 270.04,203.546667 270.76,202.96 C271.48,202.373333 272.453333,202.08 273.68,202.08 C275.44,202.08 276.586667,202.906667 277.12,204.56 C277.653333,205.946667 277.92,208.16 277.92,211.2 L292.32,211.2 C292.32,207.733333 291.866667,204.786667 290.96,202.36 C290.053333,199.933333 288.8,197.946667 287.2,196.4 C285.6,194.853333 283.693333,193.733333 281.48,193.04 C279.266667,192.346667 276.853333,192 274.24,192 C269.866667,192 266.293333,192.653333 263.52,193.96 C260.746667,195.266667 258.573333,197.173333 257,199.68 C255.426667,202.186667 254.36,205.28 253.8,208.96 C253.24,212.64 252.96,216.88 252.96,221.68 C252.96,226.426667 253.106667,230.64 253.4,234.32 C253.693333,238 254.4,241.093333 255.52,243.6 C256.64,246.106667 258.293333,247.986667 260.48,249.24 C262.666667,250.493333 265.653333,251.12 269.44,251.12 C270.72,251.12 271.986667,251.04 273.24,250.88 C274.493333,250.72 275.666667,250.44 276.76,250.04 C277.853333,249.64 278.84,249.04 279.72,248.24 C280.6,247.44 281.28,246.426667 281.76,245.2 L281.92,245.2 L282.24,250.24 L292.32,250.24 L292.32,219.2 L273.12,219.2 Z"/><polygon fill="#FFF" points="339.787 193.12 334.427 232.64 334.267 232.64 329.787 193.12 315.387 193.12 325.147 250.24 341.467 250.24 346.427 211.84 346.587 211.84 351.547 250.24 367.867 250.24 377.627 193.12 363.227 193.12 359.227 232.64 359.067 232.64 353.227 193.12"/><polygon fill="#FFF" points="381.92 193.12 381.92 250.24 396.8 250.24 396.8 193.12"/><polygon fill="#FFF" points="412.133 205.76 412.133 250.24 427.013 250.24 427.013 205.76 438.213 205.76 438.213 193.12 401.093 193.12 401.093 205.76"/><polygon fill="#FFF" points="442.907 193.12 442.907 250.24 457.787 250.24 457.787 226.72 466.907 226.72 466.907 250.24 481.787 250.24 481.787 193.12 466.907 193.12 466.907 214.08 457.787 214.08 457.787 193.12"/><path fill="#FFAB00" d="M22.0266667,335.52 L22.0266667,321.6 L26.1866667,321.6 C27.5733333,321.6 28.8,322.186667 29.8666667,323.36 C30.9333333,324.533333 31.4666667,326.24 31.4666667,328.48 C31.4666667,330.88 30.9333333,332.653333 29.8666667,333.8 C28.8,334.946667 27.5733333,335.52 26.1866667,335.52 L22.0266667,335.52 Z M22.0266667,311.52 L22.0266667,299.84 L25.6266667,299.84 C27.1733333,299.84 28.3466667,300.426667 29.1466667,301.6 C29.9466667,302.773333 30.3466667,304.16 30.3466667,305.76 C30.3466667,307.306667 29.9466667,308.653333 29.1466667,309.8 C28.3466667,310.946667 27.1733333,311.52 25.6266667,311.52 L22.0266667,311.52 Z M7.14666667,289.12 L7.14666667,346.24 L29.6266667,346.24 C32.72,346.24 35.36,345.826667 37.5466667,345 C39.7333333,344.173333 41.5066667,343.013333 42.8666667,341.52 C44.2266667,340.026667 45.2266667,338.24 45.8666667,336.16 C46.5066667,334.08 46.8266667,331.813333 46.8266667,329.36 C46.8266667,327.866667 46.6266667,326.386667 46.2266667,324.92 C45.8266667,323.453333 45.2,322.106667 44.3466667,320.88 C43.4933333,319.653333 42.4,318.626667 41.0666667,317.8 C39.7333333,316.973333 38.1333333,316.48 36.2666667,316.32 L36.2666667,316.16 C37.8666667,315.84 39.2266667,315.28 40.3466667,314.48 C41.4666667,313.68 42.3866667,312.706667 43.1066667,311.56 C43.8266667,310.413333 44.36,309.133333 44.7066667,307.72 C45.0533333,306.306667 45.2266667,304.853333 45.2266667,303.36 C45.2266667,299.04 43.96,295.586667 41.4266667,293 C38.8933333,290.413333 34.96,289.12 29.6266667,289.12 L7.14666667,289.12 Z"/><polygon fill="#FFAB00" points="53.36 289.12 53.36 346.24 68.24 346.24 68.24 289.12"/><polygon fill="#FFAB00" points="83.573 301.76 83.573 346.24 98.453 346.24 98.453 301.76 109.653 301.76 109.653 289.12 72.533 289.12 72.533 301.76"/><path fill="#FFAB00" d="M133.546667 315.2 133.546667 325.28 138.826667 325.28C138.826667 327.733333 138.706667 329.746667 138.466667 331.32 138.226667 332.893333 137.893333 334.12 137.466667 335 137.04 335.88 136.52 336.48 135.906667 336.8 135.293333 337.12 134.586667 337.28 133.786667 337.28 132.666667 337.28 131.773333 336.986667 131.106667 336.4 130.44 335.813333 129.933333 334.773333 129.586667 333.28 129.24 331.786667 129.013333 329.773333 128.906667 327.24 128.8 324.706667 128.746667 321.52 128.746667 317.68 128.746667 313.84 128.8 310.653333 128.906667 308.12 129.013333 305.586667 129.24 303.573333 129.586667 302.08 129.933333 300.586667 130.466667 299.546667 131.186667 298.96 131.906667 298.373333 132.88 298.08 134.106667 298.08 135.866667 298.08 137.013333 298.906667 137.546667 300.56 138.08 301.946667 138.346667 304.16 138.346667 307.2L152.746667 307.2C152.746667 303.733333 152.293333 300.786667 151.386667 298.36 150.48 295.933333 149.226667 293.946667 147.626667 292.4 146.026667 290.853333 144.12 289.733333 141.906667 289.04 139.693333 288.346667 137.28 288 134.666667 288 130.293333 288 126.72 288.653333 123.946667 289.96 121.173333 291.266667 119 293.173333 117.426667 295.68 115.853333 298.186667 114.786667 301.28 114.226667 304.96 113.666667 308.64 113.386667 312.88 113.386667 317.68 113.386667 322.426667 113.533333 326.64 113.826667 330.32 114.12 334 114.826667 337.093333 115.946667 339.6 117.066667 342.106667 118.72 343.986667 120.906667 345.24 123.093333 346.493333 126.08 347.12 129.866667 347.12 131.146667 347.12 132.413333 347.04 133.666667 346.88 134.92 346.72 136.093333 346.44 137.186667 346.04 138.28 345.64 139.266667 345.04 140.146667 344.24 141.026667 343.44 141.706667 342.426667 142.186667 341.2L142.346667 341.2 142.666667 346.24 152.746667 346.24 152.746667 315.2 133.546667 315.2ZM178.8 300.8 174.72 325.04 183.04 325.04 178.96 300.8 178.8 300.8ZM188.24 289.12 202.16 346.24 186.32 346.24 184.8 336.24 172.96 336.24 171.44 346.24 155.84 346.24 169.52 289.12 188.24 289.12Z"/><polygon fill="#FFAB00" points="205.413 289.12 205.413 346.24 219.333 346.24 219.333 303.68 219.493 303.68 227.413 346.24 238.133 346.24 246.053 303.68 246.213 303.68 246.213 346.24 260.133 346.24 260.133 289.12 238.853 289.12 232.853 322.96 232.693 322.96 226.693 289.12"/><polygon fill="#FFAB00" points="267.947 289.12 267.947 346.24 302.507 346.24 302.507 334.08 282.827 334.08 282.827 322.72 300.587 322.72 300.587 311.04 282.827 311.04 282.827 301.28 301.787 301.28 301.787 289.12"/><polygon fill="#FFAB00" points="309.44 330.4 309.44 346.24 322.88 346.24 322.88 330.4"/><path fill="#FFAB00" d="M354.213333 306.48 354.213333 309.68 368.613333 309.68 368.613333 306.08C368.613333 303.306667 368.28 300.813333 367.613333 298.6 366.946667 296.386667 365.88 294.493333 364.413333 292.92 362.946667 291.346667 361.04 290.133333 358.693333 289.28 356.346667 288.426667 353.493333 288 350.133333 288 346.293333 288 343.066667 288.52 340.453333 289.56 337.84 290.6 335.733333 292.293333 334.133333 294.64 332.533333 296.986667 331.4 300.053333 330.733333 303.84 330.066667 307.626667 329.733333 312.24 329.733333 317.68 329.733333 323.013333 330.013333 327.56 330.573333 331.32 331.133333 335.08 332.16 338.146667 333.653333 340.52 335.146667 342.893333 337.226667 344.586667 339.893333 345.6 342.56 346.613333 345.973333 347.12 350.133333 347.12 352.533333 347.12 354.866667 346.866667 357.133333 346.36 359.4 345.853333 361.413333 344.866667 363.173333 343.4 364.933333 341.933333 366.346667 339.92 367.413333 337.36 368.48 334.8 369.013333 331.52 369.013333 327.52L369.013333 323.28 354.613333 323.28C354.613333 326 354.546667 328.253333 354.413333 330.04 354.28 331.826667 354.053333 333.253333 353.733333 334.32 353.413333 335.386667 352.96 336.146667 352.373333 336.6 351.786667 337.053333 351.04 337.28 350.133333 337.28 349.013333 337.28 348.12 336.986667 347.453333 336.4 346.786667 335.813333 346.28 334.773333 345.933333 333.28 345.586667 331.786667 345.36 329.773333 345.253333 327.24 345.146667 324.706667 345.093333 321.52 345.093333 317.68 345.093333 313.84 345.146667 310.653333 345.253333 308.12 345.36 305.586667 345.586667 303.573333 345.933333 302.08 346.28 300.586667 346.786667 299.546667 347.453333 298.96 348.12 298.373333 349.013333 298.08 350.133333 298.08 351.573333 298.08 352.613333 298.666667 353.253333 299.84 353.893333 301.013333 354.213333 303.226667 354.213333 306.48ZM389.386667 317.68C389.386667 313.84 389.44 310.653333 389.546667 308.12 389.653333 305.586667 389.88 303.573333 390.226667 302.08 390.573333 300.586667 391.08 299.546667 391.746667 298.96 392.413333 298.373333 393.306667 298.08 394.426667 298.08 395.546667 298.08 396.44 298.373333 397.106667 298.96 397.773333 299.546667 398.28 300.586667 398.626667 302.08 398.973333 303.573333 399.2 305.586667 399.306667 308.12 399.413333 310.653333 399.466667 313.84 399.466667 317.68 399.466667 321.52 399.413333 324.706667 399.306667 327.24 399.2 329.773333 398.973333 331.786667 398.626667 333.28 398.28 334.773333 397.773333 335.813333 397.106667 336.4 396.44 336.986667 395.546667 337.28 394.426667 337.28 393.306667 337.28 392.413333 336.986667 391.746667 336.4 391.08 335.813333 390.573333 334.773333 390.226667 333.28 389.88 331.786667 389.653333 329.773333 389.546667 327.24 389.44 324.706667 389.386667 321.52 389.386667 317.68ZM374.026667 317.68C374.026667 323.013333 374.373333 327.56 375.066667 331.32 375.76 335.08 376.906667 338.146667 378.506667 340.52 380.106667 342.893333 382.213333 344.586667 384.826667 345.6 387.44 346.613333 390.64 347.12 394.426667 347.12 398.213333 347.12 401.413333 346.613333 404.026667 345.6 406.64 344.586667 408.746667 342.893333 410.346667 340.52 411.946667 338.146667 413.093333 335.08 413.786667 331.32 414.48 327.56 414.826667 323.013333 414.826667 317.68 414.826667 312.346667 414.48 307.8 413.786667 304.04 413.093333 300.28 411.946667 297.213333 410.346667 294.84 408.746667 292.466667 406.64 290.733333 404.026667 289.64 401.413333 288.546667 398.213333 288 394.426667 288 390.64 288 387.44 288.546667 384.826667 289.64 382.213333 290.733333 380.106667 292.466667 378.506667 294.84 376.906667 297.213333 375.76 300.28 375.066667 304.04 374.373333 307.8 374.026667 312.346667 374.026667 317.68Z"/><polygon fill="#FFAB00" points="420.96 289.12 420.96 346.24 434.88 346.24 434.88 303.68 435.04 303.68 442.96 346.24 453.68 346.24 461.6 303.68 461.76 303.68 461.76 346.24 475.68 346.24 475.68 289.12 454.4 289.12 448.4 322.96 448.24 322.96 442.24 289.12"/></g></svg>