<svg xmlns="http://www.w3.org/2000/svg" xmlns:xlink="http://www.w3.org/1999/xlink" width="75" height="71" viewBox="0 0 75 71"><defs><linearGradient id="howIcon1c" x1="50%" x2="50%" y1=".971%" y2="99.438%"><stop offset="0%" stop-color="#FCCE61"/><stop offset="100%" stop-color="#FFAC02"/></linearGradient><filter id="howIcon1b" width="130.8%" height="132.8%" x="-15.4%" y="-8.2%" filterUnits="objectBoundingBox"><feOffset dy="5" in="SourceAlpha" result="shadowOffsetOuter1"/><feGaussianBlur in="shadowOffsetOuter1" result="shadowBlurOuter1" stdDeviation="2.5"/><feColorMatrix in="shadowBlurOuter1" values="0 0 0 0 0 0 0 0 0 0 0 0 0 0 0 0 0 0 0.5 0"/></filter><path id="howIcon1a" d="M30.4306641,0.540158853 C31.6881578,-0.180052951 33.2356704,-0.180052951 34.4931641,0.540158853 L34.4931641,0.540158853 L41.0820312,4.32442686 C42.3198242,5.03200285 43.7163086,5.40474377 45.1445312,5.40474377 L45.1445312,5.40474377 L52.8125,5.40474377 C53.3710938,5.40474377 53.828125,5.85961405 53.828125,6.41556661 L53.828125,6.41556661 L53.828125,11.6465748 L60.9375,15.7340897 C63.4511719,17.1745122 65,19.8468751 65,22.7340378 L65,22.7340378 L65,56.9567086 C65,59.1868365 63.1782227,61 60.9375,61 L60.9375,61 L4.0625,61 C1.82177734,61 0,59.1868365 0,56.9567086 L0,56.9567086 L0,22.696132 C0,19.8026516 1.54882812,17.1366064 4.0625,15.6898662 L4.0625,15.6898662 L11.171875,11.6023513 L11.171875,6.41556661 C11.171875,5.85961405 11.6289062,5.40474377 12.1875,5.40474377 L12.1875,5.40474377 L19.7856445,5.40474377 C21.2138672,5.40474377 22.6103516,5.02568521 23.8481445,4.31810922 L23.8481445,4.31810922 Z M33.4013672,42.4703538 C32.7729492,42.1102482 31.9985352,42.1102482 31.3701172,42.4703538 L31.3701172,42.4703538 L30.6083984,42.9062712 L26.5458984,45.243799 L15.234375,51.7446534 L11.171875,54.0821812 L7.80761719,56.0153799 C7.35693359,56.2744032 7.54101562,56.9567086 8.06152344,56.9567086 L8.06152344,56.9567086 L56.7099609,56.9567086 C57.2304687,56.9567086 57.4145508,56.2744032 56.9638672,56.0153799 L56.9638672,56.0153799 L53.828125,54.2148517 L49.765625,51.8773239 L38.4477539,45.3701518 L34.3852539,43.032624 Z M60.9375,33.3224071 C60.9375,32.9370309 60.512207,32.6906428 60.1757812,32.8864897 L60.1757812,32.8864897 L53.828125,36.5317696 L49.765625,38.8692974 L43.2719727,42.5967067 C42.9355469,42.7925536 42.9355469,43.2790121 43.2719727,43.474859 L43.2719727,43.474859 L49.765625,47.2085859 L53.828125,49.5461137 L60.1757812,53.1913936 C60.512207,53.3872405 60.9375,53.1471701 60.9375,52.7554762 L60.9375,52.7554762 Z M4.82421875,32.7664545 C4.48779297,32.5706076 4.0625,32.810678 4.0625,33.2023719 L4.0625,33.2023719 L4.0625,52.6228057 C4.0625,53.0081819 4.48779297,53.25457 4.82421875,53.0587231 L4.82421875,53.0587231 L11.171875,49.4197608 L15.234375,47.082233 L21.7216797,43.3548238 C22.0581055,43.1589769 22.0581055,42.6725184 21.7216797,42.4766714 L21.7216797,42.4766714 L15.234375,38.7492622 L11.171875,36.4117344 Z M49.2578125,9.44803513 L15.7421875,9.44803513 C15.4628906,9.44803513 15.234375,9.67547027 15.234375,9.95344656 L15.234375,9.95344656 L15.234375,33.4929835 C15.234375,33.8594067 15.4248047,34.1879242 15.7421875,34.3711358 L15.7421875,34.3711358 L26.0317383,40.2844494 C26.3427734,40.4676611 26.7299805,40.4676611 27.0473633,40.2844494 L27.0473633,40.2844494 L30.3735352,38.3765213 C31.6367188,37.6499924 33.1918945,37.65631 34.4550781,38.3891566 L34.4550781,38.3891566 L37.9335938,40.4108023 C38.2509766,40.5940139 38.6381836,40.5940139 38.9555664,40.4108023 L38.9555664,40.4108023 L49.2578125,34.491171 C49.5751953,34.3079594 49.765625,33.9731243 49.765625,33.6130187 L49.765625,33.6130187 L49.765625,9.95344656 C49.765625,9.67547027 49.5371094,9.44803513 49.2578125,9.44803513 L49.2578125,9.44803513 Z M43.7650966,28.9046154 C44.0457428,28.9046154 44.2753623,29.1263269 44.2753623,29.3973077 L44.2753623,32.3534615 C44.2753623,32.6244423 44.0457428,32.8461538 43.7650966,32.8461538 L20.2928744,32.8461538 C20.0122283,32.8461538 19.7826087,32.6244423 19.7826087,32.3534615 L19.7826087,29.3973077 C19.7826087,29.1263269 20.0122283,28.9046154 20.2928744,28.9046154 L43.7650966,28.9046154 Z M53.828125,16.4416657 L53.828125,31.4207966 C53.828125,31.6166436 54.0375977,31.7366788 54.2089844,31.6419141 L54.2089844,31.6419141 L60.6835938,27.9524108 C60.8422852,27.8639638 60.9375,27.699705 60.9375,27.5164934 L60.9375,27.5164934 L60.9375,22.8919789 C60.9375,21.4515564 60.1694336,20.1248514 58.9189453,19.3983225 L58.9189453,19.3983225 L53.828125,16.4416657 Z M11.171875,16.4227127 L6.07470703,19.3920048 C4.83056641,20.1185337 4.0625,21.4515564 4.0625,22.8856613 L4.0625,22.8856613 L4.0625,27.3775053 C4.0625,27.5543993 4.15771484,27.7249756 4.31640625,27.8134226 L4.31640625,27.8134226 L10.7910156,31.5281966 C10.9624023,31.6229612 11.171875,31.502926 11.171875,31.3070791 L11.171875,31.3070791 L11.171875,16.4227127 Z M43.7650966,21.0215385 C44.0457428,21.0215385 44.2753623,21.24325 44.2753623,21.5142308 L44.2753623,24.4703846 C44.2753623,24.7413654 44.0457428,24.9630769 43.7650966,24.9630769 L20.2928744,24.9630769 C20.0122283,24.9630769 19.7826087,24.7413654 19.7826087,24.4703846 L19.7826087,21.5142308 C19.7826087,21.24325 20.0122283,21.0215385 20.2928744,21.0215385 L43.7650966,21.0215385 Z M43.7650966,13.1384615 C44.0457428,13.1384615 44.2753623,13.3601731 44.2753623,13.6311538 L44.2753623,16.5873077 C44.2753623,16.8582885 44.0457428,17.08 43.7650966,17.08 L20.2928744,17.08 C20.0122283,17.08 19.7826087,16.8582885 19.7826087,16.5873077 L19.7826087,13.6311538 C19.7826087,13.3601731 20.0122283,13.1384615 20.2928744,13.1384615 L43.7650966,13.1384615 Z M33.4902344,4.63399136 C32.8554688,4.26756808 32.074707,4.26756808 31.4462891,4.63399136 L31.4462891,4.63399136 L30.9321289,4.93092057 C30.7099609,5.06359106 30.7988281,5.40474377 31.059082,5.40474377 L31.059082,5.40474377 L33.8774414,5.40474377 C34.1376953,5.40474377 34.2265625,5.06359106 34.0043945,4.93092057 L34.0043945,4.93092057 Z"/></defs><g fill="none" transform="translate(5)"><use xlink:href="#howIcon1a" fill="#000" filter="url(#howIcon1b)"/><use xlink:href="#howIcon1a" fill="url(#howIcon1c)"/></g></svg>