<svg xmlns="http://www.w3.org/2000/svg" xmlns:xlink="http://www.w3.org/1999/xlink" width="75" height="75" viewBox="0 0 75 75"><defs><linearGradient id="howIcon2c" x1="50%" x2="50%" y1="0%" y2="100%"><stop offset="0%" stop-color="#FCCF65"/><stop offset="100%" stop-color="#FFAB00"/></linearGradient><linearGradient id="howIcon2f" x1="50%" x2="50%" y1=".971%" y2="99.438%"><stop offset="0%" stop-color="#FCCE61"/><stop offset="100%" stop-color="#FFAC02"/></linearGradient><filter id="howIcon2b" width="130.8%" height="130.8%" x="-15.4%" y="-7.7%" filterUnits="objectBoundingBox"><feOffset dy="5" in="SourceAlpha" result="shadowOffsetOuter1"/><feMorphology in="SourceAlpha" radius="4" result="shadowInner"/><feOffset dy="5" in="shadowInner" result="shadowInner"/><feComposite in="shadowOffsetOuter1" in2="shadowInner" operator="out" result="shadowOffsetOuter1"/><feGaussianBlur in="shadowOffsetOuter1" result="shadowBlurOuter1" stdDeviation="2.5"/><feColorMatrix in="shadowBlurOuter1" values="0 0 0 0 0 0 0 0 0 0 0 0 0 0 0 0 0 0 0.5 0"/></filter><filter id="howIcon2e" width="157.1%" height="180%" x="-28.6%" y="-20%" filterUnits="objectBoundingBox"><feOffset dy="5" in="SourceAlpha" result="shadowOffsetOuter1"/><feGaussianBlur in="shadowOffsetOuter1" result="shadowBlurOuter1" stdDeviation="2.5"/><feColorMatrix in="shadowBlurOuter1" values="0 0 0 0 0 0 0 0 0 0 0 0 0 0 0 0 0 0 0.5 0"/></filter><rect id="howIcon2a" width="65" height="65" x="0" y="0" rx="32.5"/><path id="howIcon2d" d="M17.7055961,28.7766688 C18.3607713,28.7766688 19.0159464,29.1040565 19.5619257,29.6497026 L27.7516152,38.1617824 C28.1883986,38.7074286 28.4067903,38.7074286 28.9527696,38.1617824 C33.9757791,32.9235795 38.9987887,27.7945057 44.0217982,22.5563027 C44.5677775,22.0106566 45.1137568,21.3558812 45.6597361,20.8102351 C46.6424988,19.828072 48.062045,19.7189428 49.0448077,20.5919766 C50.1367663,21.4650104 50.355158,23.1019489 49.3723953,24.1932412 C48.2804367,25.5027919 47.0792822,26.7032134 45.8781278,27.9036349 C40.7459224,33.2509671 35.613717,38.5982994 30.3723158,43.9456316 C29.0619655,45.2551823 27.6424193,45.3643115 26.4412649,44.16389 C22.8378015,40.4534962 19.2343382,36.7431025 15.7400707,33.0327087 C14.9756997,32.1596749 14.7573079,31.1775118 15.3032872,30.1953487 C15.7400707,29.3223149 16.5044417,28.7766688 17.7055961,28.7766688 Z"/></defs><g fill="none" fill-rule="evenodd" transform="translate(5)"><use xlink:href="#howIcon2a" fill="#000" filter="url(#howIcon2b)"/><rect width="61" height="61" x="2" y="2" stroke="url(#howIcon2c)" stroke-linejoin="square" stroke-width="4" rx="30.5"/><g fill-rule="nonzero"><use xlink:href="#howIcon2d" fill="#000" filter="url(#howIcon2e)"/><use xlink:href="#howIcon2d" fill="url(#howIcon2f)"/></g></g></svg>