<svg xmlns="http://www.w3.org/2000/svg" xmlns:xlink="http://www.w3.org/1999/xlink" width="69" height="73" viewBox="0 0 69 73"><defs><linearGradient id="howIcon3c" x1="50%" x2="50%" y1=".971%" y2="99.438%"><stop offset="0%" stop-color="#FCCE61"/><stop offset="100%" stop-color="#FFAC02"/></linearGradient><filter id="howIcon3b" width="133.9%" height="131.7%" x="-16.9%" y="-7.9%" filterUnits="objectBoundingBox"><feOffset dy="5" in="SourceAlpha" result="shadowOffsetOuter1"/><feGaussianBlur in="shadowOffsetOuter1" result="shadowBlurOuter1" stdDeviation="2.5"/><feColorMatrix in="shadowBlurOuter1" values="0 0 0 0 0 0 0 0 0 0 0 0 0 0 0 0 0 0 0.5 0"/></filter><path id="howIcon3a" d="M42.8473228,25.0566585 C53.4523329,25.0566585 59,29.1812402 59,33.2566362 L59,33.2566362 L59,55.0318983 C58.8879259,57.104729 57.4029443,59.0440553 54.8042265,60.4915235 C51.8482726,62.135735 47.7155408,63 42.8473228,63 C32.2423127,63 26.6946456,58.8683917 26.6946456,54.7929958 L26.6946456,54.7929958 L26.6946456,33.2636627 C26.6946456,29.1812402 32.2423127,25.0566585 42.8473228,25.0566585 Z M54.4890182,49.881441 C51.5540781,51.4132277 47.540425,52.2212804 42.8473228,52.2212804 C38.1542206,52.2212804 34.1405675,51.4132277 31.2056274,49.881441 L31.2056274,49.881441 L31.2056274,54.7859692 C31.2056274,55.2918804 32.2002849,56.2193843 34.0985397,56.9923043 C35.7306185,57.659826 38.5674938,58.4608521 42.8403182,58.4608521 C47.1131426,58.4608521 49.9570224,57.659826 51.5891013,56.9923043 C53.487356,56.2123578 54.4820135,55.2918804 54.4820135,54.7859692 L54.4820135,54.7859692 L54.4890182,54.7859692 Z M23.8787843,0 C29.8397246,0 35.7656417,1.0680348 40.115517,2.93006915 C45.1098184,5.0591122 47.7505639,8.03134062 47.7505639,11.5094803 L47.7505639,11.5094803 L47.7505639,23.9324113 L43.2325775,23.9324113 L43.2325775,18.4446799 C41.0541375,19.8570154 38.1051882,21.0234218 34.6869286,21.8174214 C31.3247062,22.6043944 27.5842336,23.0189605 23.8717797,23.0189605 C20.1593257,23.0189605 16.4188531,22.5973678 13.0566307,21.8174214 C9.63837113,21.0234218 6.68942182,19.8570154 4.51098184,18.4446799 L4.51098184,18.4446799 L4.51098184,28.2537363 C4.51098184,29.7293107 6.47928292,31.4718938 9.64537576,32.7999108 C13.3928529,34.3738568 18.4501959,35.2381218 23.8717797,35.2381218 L23.8717797,35.2381218 L24.0118723,35.2381218 L24.0118723,39.7772697 L23.8717797,39.7772697 C20.1593257,39.7772697 16.4188531,39.355677 13.0566307,38.5757305 C9.63837113,37.781731 6.68942182,36.6223511 4.51098184,35.2029891 L4.51098184,35.2029891 L4.51098184,45.0120455 C4.51098184,46.4876199 6.47928292,48.230203 9.64537576,49.5582199 C13.3928529,51.1251394 18.4501959,51.9894044 23.8717797,51.9894044 L23.8717797,51.9894044 L24.0118723,51.9894044 L24.0118723,56.5215258 L23.8717797,56.5215258 C17.9108394,56.5215258 11.9919269,55.453491 7.6350469,53.5914566 C2.64074558,51.4624136 0,48.4901851 0,45.0120455 L0,45.0120455 L0,11.5094803 C0,8.03134062 2.63374095,5.0591122 7.6350469,2.93006915 C11.9849222,1.0680348 17.917844,0 23.8787843,0 Z M54.4820135,39.1167745 C51.5470735,40.6485612 47.5334204,41.4566139 42.8403182,41.4566139 C38.147216,41.4566139 34.1335629,40.6555878 31.1986228,39.1167745 L31.1986228,39.1167745 L31.1986228,44.0283292 C31.1986228,44.5342405 32.1932803,45.4617444 34.0915351,46.2346643 C35.7236139,46.9092126 38.5674938,47.7032121 42.8403182,47.7032121 L42.8403182,47.7032121 L42.9593969,47.7032121 C47.1761843,47.689159 49.9710317,46.8951595 51.5891013,46.2346643 C53.487356,45.4547178 54.4820135,44.5342405 54.4820135,44.0283292 L54.4820135,44.0283292 Z M42.8473228,29.5817533 C38.5744984,29.5817533 35.7306185,30.3827794 34.0985397,31.0503011 C32.2002849,31.8302476 31.2056274,32.750725 31.2056274,33.2566362 C31.2056274,33.7625474 32.2002849,34.6900513 34.0985397,35.4629712 C35.7306185,36.130493 38.5674938,36.9315191 42.8403182,36.9315191 C47.1131426,36.9315191 49.9570224,36.130493 51.5891013,35.4629712 C53.4943607,34.6830248 54.4820135,33.7695739 54.4890182,33.2566362 C54.4890182,32.750725 53.4943607,31.8232211 51.5961059,31.0503011 C49.9640271,30.3757528 47.1201472,29.5817533 42.8473228,29.5817533 Z M23.8717797,4.53212135 C18.4501959,4.53212135 13.3928529,5.3893598 9.64537576,6.96330582 C6.47928292,8.29132277 4.51098184,10.0339059 4.51098184,11.5094803 C4.51098184,12.9850547 6.47928292,14.7276377 9.64537576,16.0556547 C13.3928529,17.6225742 18.4501959,18.4868392 23.8717797,18.4868392 C29.300368,18.4868392 34.3507064,17.6225742 38.0981835,16.0556547 C41.2642764,14.7276377 43.2325775,12.9850547 43.2325775,11.5094803 C43.2325775,10.0339059 41.2642764,8.29132277 38.0981835,6.96330582 C34.3507064,5.39638635 29.2933634,4.53212135 23.8717797,4.53212135 Z"/></defs><g fill="none" transform="translate(5)"><use xlink:href="#howIcon3a" fill="#000" filter="url(#howIcon3b)"/><use xlink:href="#howIcon3a" fill="url(#howIcon3c)"/></g></svg>