<svg xmlns="http://www.w3.org/2000/svg" width="77" height="43" viewBox="0 0 77 43"><g fill="#FFF" transform="translate(.29 .926)"><path d="M21.6796875 23.3203125C21.6796875 23.828125 21.6796875 24.2578125 21.6796875 24.609375 21.6796875 24.9609375 21.6796875 25.2539062 21.6796875 25.4882812 21.6796875 27.0898438 21.6601562 28.8769531 21.6210938 30.8496094 21.5820312 32.8222656 21.3867188 34.3554688 21.0351562 35.4492188 19.4726562 39.7070312 15.8984375 41.8359375 10.3125 41.8359375 5.546875 41.8359375 2.3828125 39.9609375.8203125 36.2109375.546875 35.46875.341796875 34.6289062.205078125 33.6914062.068359375 32.7539062 0 31.8945312 0 31.1132812 0 30.8007813 0 30.5664062 0 30.4101562L9.0234375 30.4101562C9.0234375 31.1523438 9.0234375 31.6796875 9.0234375 31.9921875 9.0234375 33.3203125 9.12109375 34.2578125 9.31640625 34.8046875 9.51171875 35.3515625 10.0390625 35.625 10.8984375 35.625 11.5234375 35.625 11.9726562 35.390625 12.2460938 34.921875 12.5195312 34.453125 12.65625 33.8085938 12.65625 32.9882812L12.65625 24.4921875C11.640625 26.6796875 9.86328125 27.7734375 7.32421875 27.7734375 6.15234375 27.7734375 5.04882812 27.5 4.01367188 26.953125 2.97851563 26.40625 2.12890625 25.6835938 1.46484375 24.7851562.87890625 23.8867188.48828125 22.8027344.29296875 21.5332031.09765625 20.2636719 0 18.75 0 16.9921875L0 13.7695312C0 12.5585938.009765625 11.3476562.029296875 10.1367188.048828125 8.92578125.17578125 7.8125.41015625 6.796875.95703125 4.5703125 2.08984375 2.88085938 3.80859375 1.72851562 5.52734375.576171875 7.7734375 0 10.546875 0 14.4140625 0 17.2363281 1.00585938 19.0136719 3.01757812 20.7910156 5.02929688 21.6796875 8.10546875 21.6796875 12.2460938L21.6796875 23.3203125ZM12.65625 17.8125 12.65625 10.4882812C12.65625 9.16015625 12.6367188 8.37890625 12.5976562 8.14453125 12.4023438 6.85546875 11.8164062 6.2109375 10.8398438 6.2109375 10.1367188 6.2109375 9.65820312 6.57226562 9.40429688 7.29492188 9.15039062 8.01757812 9.0234375 9.0234375 9.0234375 10.3125L9.0234375 17.8125C9.0234375 19.0234375 9.140625 19.9414062 9.375 20.5664062 9.609375 21.1914062 10.0976562 21.5039062 10.8398438 21.5039062 11.7773438 21.5039062 12.34375 20.9179688 12.5390625 19.7460938 12.6171875 19.2773438 12.65625 18.6328125 12.65625 17.8125ZM45.9960938 27.890625C45.9960938 30.4296875 45.9765625 31.9335937 45.9375 32.4023438 45.7421875 34.7070312 45.0390625 36.6601562 43.828125 38.2617188 42.03125 40.6445312 39.3359375 41.8359375 35.7421875 41.8359375 33.59375 41.8359375 31.8359375 41.5722656 30.46875 41.0449219 29.1015625 40.5175781 27.9101562 39.5898438 26.8945312 38.2617188 25.8789062 36.9335938 25.2539062 35.5957031 25.0195312 34.2480469 24.7851562 32.9003906 24.6679688 30.9765625 24.6679688 28.4765625L24.6679688 14.3554688C24.6679688 11.6992188 24.7949219 9.56054688 25.0488281 7.93945312 25.3027344 6.31835938 25.8398438 4.921875 26.6601562 3.75 27.4804688 2.578125 28.6328125 1.66015625 30.1171875.99609375 31.6015625.33203125 33.2617188 0 35.0976562 0 37.2070312 0 39.0722656.400390625 40.6933594 1.20117188 42.3144531 2.00195312 43.5351562 3.10546875 44.3554688 4.51171875 45.1367188 5.72265625 45.6054688 7.00195312 45.7617188 8.34960938 45.9179688 9.69726562 45.9960938 11.6992188 45.9960938 14.3554688L45.9960938 27.890625ZM36.9726562 30.9960938 36.9726562 11.015625C36.9726562 10.546875 36.9726562 10.1953125 36.9726562 9.9609375 36.9726562 8.6328125 36.8847656 7.67578125 36.7089844 7.08984375 36.5332031 6.50390625 36.09375 6.2109375 35.390625 6.2109375 34.765625 6.2109375 34.3261719 6.49414062 34.0722656 7.06054688 33.8183594 7.62695312 33.6914062 8.4375 33.6914062 9.4921875L33.6914062 30.703125C33.6914062 31.6796875 33.6914062 32.65625 33.6914062 33.6328125 33.8085938 34.9609375 34.3554688 35.625 35.3320312 35.625 36.0742188 35.625 36.5332031 35.3222656 36.7089844 34.7167969 36.8847656 34.1113281 36.9726562 32.8710938 36.9726562 30.9960938Z"/><polygon points="16.016 9.961 10.039 9.961 10.039 15.977 5.938 15.977 5.938 9.961 0 9.961 0 6.016 5.938 6.016 5.938 0 10.039 0 10.039 6.016 16.016 6.016" transform="translate(59.82 13.668)"/></g></svg>