<svg xmlns="http://www.w3.org/2000/svg" width="102" height="43" viewBox="0 0 102 43"><g fill="#FFF" transform="translate(.465 .926)"><path d="M15.8789062 41.0742188 5.859375 41.0742188 5.859375 15.8789062C5.859375 14.4335938 5.55664062 13.4082031 4.95117188 12.8027344 4.34570312 12.1972656 3.18359375 11.8945312 1.46484375 11.8945312L0 11.8945312 0 7.20703125C2.2265625 6.73828125 4.16015625 5.9375 5.80078125 4.8046875 7.20703125 3.828125 8.59375 2.48046875 9.9609375.76171875L15.8789062.76171875 15.8789062 41.0742188ZM45.8203125 27.890625C45.8203125 30.4296875 45.8007812 31.9335937 45.7617188 32.4023438 45.5664062 34.7070312 44.8632812 36.6601562 43.6523438 38.2617188 41.8554688 40.6445312 39.1601562 41.8359375 35.5664062 41.8359375 33.4179688 41.8359375 31.6601562 41.5722656 30.2929688 41.0449219 28.9257812 40.5175781 27.734375 39.5898438 26.71875 38.2617188 25.703125 36.9335938 25.078125 35.5957031 24.84375 34.2480469 24.609375 32.9003906 24.4921875 30.9765625 24.4921875 28.4765625L24.4921875 14.3554688C24.4921875 11.6992188 24.6191406 9.56054688 24.8730469 7.93945312 25.1269531 6.31835938 25.6640625 4.921875 26.484375 3.75 27.3046875 2.578125 28.4570312 1.66015625 29.9414062.99609375 31.4257812.33203125 33.0859375 0 34.921875 0 37.03125 0 38.8964844.400390625 40.5175781 1.20117188 42.1386719 2.00195312 43.359375 3.10546875 44.1796875 4.51171875 44.9609375 5.72265625 45.4296875 7.00195312 45.5859375 8.34960938 45.7421875 9.69726562 45.8203125 11.6992188 45.8203125 14.3554688L45.8203125 27.890625ZM36.796875 30.9960938 36.796875 11.015625C36.796875 10.546875 36.796875 10.1953125 36.796875 9.9609375 36.796875 8.6328125 36.7089844 7.67578125 36.5332031 7.08984375 36.3574219 6.50390625 35.9179688 6.2109375 35.2148438 6.2109375 34.5898438 6.2109375 34.1503906 6.49414062 33.8964844 7.06054688 33.6425781 7.62695312 33.515625 8.4375 33.515625 9.4921875L33.515625 30.703125C33.515625 31.6796875 33.515625 32.65625 33.515625 33.6328125 33.6328125 34.9609375 34.1796875 35.625 35.15625 35.625 35.8984375 35.625 36.3574219 35.3222656 36.5332031 34.7167969 36.7089844 34.1113281 36.796875 32.8710938 36.796875 30.9960938ZM70.1953125 27.890625C70.1953125 30.4296875 70.1757812 31.9335937 70.1367188 32.4023438 69.9414062 34.7070312 69.2382812 36.6601562 68.0273438 38.2617188 66.2304688 40.6445312 63.5351562 41.8359375 59.9414062 41.8359375 57.7929688 41.8359375 56.0351562 41.5722656 54.6679688 41.0449219 53.3007812 40.5175781 52.109375 39.5898438 51.09375 38.2617188 50.078125 36.9335938 49.453125 35.5957031 49.21875 34.2480469 48.984375 32.9003906 48.8671875 30.9765625 48.8671875 28.4765625L48.8671875 14.3554688C48.8671875 11.6992188 48.9941406 9.56054688 49.2480469 7.93945312 49.5019531 6.31835938 50.0390625 4.921875 50.859375 3.75 51.6796875 2.578125 52.8320312 1.66015625 54.3164062.99609375 55.8007812.33203125 57.4609375 0 59.296875 0 61.40625 0 63.2714844.400390625 64.8925781 1.20117188 66.5136719 2.00195312 67.734375 3.10546875 68.5546875 4.51171875 69.3359375 5.72265625 69.8046875 7.00195312 69.9609375 8.34960938 70.1171875 9.69726562 70.1953125 11.6992188 70.1953125 14.3554688L70.1953125 27.890625ZM61.171875 30.9960938 61.171875 11.015625C61.171875 10.546875 61.171875 10.1953125 61.171875 9.9609375 61.171875 8.6328125 61.0839844 7.67578125 60.9082031 7.08984375 60.7324219 6.50390625 60.2929688 6.2109375 59.5898438 6.2109375 58.9648438 6.2109375 58.5253906 6.49414062 58.2714844 7.06054688 58.0175781 7.62695312 57.890625 8.4375 57.890625 9.4921875L57.890625 30.703125C57.890625 31.6796875 57.890625 32.65625 57.890625 33.6328125 58.0078125 34.9609375 58.5546875 35.625 59.53125 35.625 60.2734375 35.625 60.7324219 35.3222656 60.9082031 34.7167969 61.0839844 34.1113281 61.171875 32.8710938 61.171875 30.9960938Z"/><polygon points="16.016 9.961 10.039 9.961 10.039 15.977 5.938 15.977 5.938 9.961 0 9.961 0 6.016 5.938 6.016 5.938 0 10.039 0 10.039 6.016 16.016 6.016" transform="translate(84.645 13.668)"/></g></svg>