<svg xmlns="http://www.w3.org/2000/svg" width="77" height="43" viewBox="0 0 77 43"><g fill="#FFF" transform="translate(.934 .926)"><path d="M20.8007812 10.4882813C20.8007812 12.6367188 20.3515625 14.8828125 19.453125 17.2265625 18.7109375 19.140625 17.421875 21.6601563 15.5859375 24.7851562 13.75 27.9101562 11.8945312 31.0351562 10.0195312 34.1601562L19.921875 34.1601562 19.921875 41.0742188 0 41.0742188 0 35.3320312C2.8125 30.2148438 4.7265625 26.6992188 5.7421875 24.7851562 6.953125 22.5585938 8.33984375 19.8828125 9.90234375 16.7578125 10.9179688 14.609375 11.5625 13.0761719 11.8359375 12.1582031 12.109375 11.2402344 12.2460938 10.2929688 12.2460938 9.31640625 12.2460938 7.24609375 11.5625 6.2109375 10.1953125 6.2109375 9.4140625 6.2109375 8.88671875 6.6015625 8.61328125 7.3828125 8.33984375 8.1640625 8.203125 9.2578125 8.203125 10.6640625L8.203125 14.4140625 0 14.4140625 0 13.0664062C0 12.2851562.009765625 11.5234375.029296875 10.78125.048828125 10.0390625.1171875 9.27734375.234375 8.49609375.625 5.72265625 1.66015625 3.61328125 3.33984375 2.16796875 5.01953125.72265625 7.2265625 0 9.9609375 0 11.3671875 0 12.6171875.146484375 13.7109375.439453125 14.8046875.732421875 15.8203125 1.2109375 16.7578125 1.875 19.453125 3.90625 20.8007812 6.77734375 20.8007812 10.4882813ZM45.3515625 27.890625C45.3515625 30.4296875 45.3320312 31.9335937 45.2929688 32.4023438 45.0976562 34.7070312 44.3945312 36.6601562 43.1835938 38.2617188 41.3867188 40.6445312 38.6914062 41.8359375 35.0976562 41.8359375 32.9492188 41.8359375 31.1914062 41.5722656 29.8242188 41.0449219 28.4570312 40.5175781 27.265625 39.5898438 26.25 38.2617188 25.234375 36.9335938 24.609375 35.5957031 24.375 34.2480469 24.140625 32.9003906 24.0234375 30.9765625 24.0234375 28.4765625L24.0234375 14.3554688C24.0234375 11.6992188 24.1503906 9.56054688 24.4042969 7.93945312 24.6582031 6.31835938 25.1953125 4.921875 26.015625 3.75 26.8359375 2.578125 27.9882812 1.66015625 29.4726562.99609375 30.9570312.33203125 32.6171875 0 34.453125 0 36.5625 0 38.4277344.400390625 40.0488281 1.20117188 41.6699219 2.00195312 42.890625 3.10546875 43.7109375 4.51171875 44.4921875 5.72265625 44.9609375 7.00195312 45.1171875 8.34960938 45.2734375 9.69726562 45.3515625 11.6992188 45.3515625 14.3554688L45.3515625 27.890625ZM36.328125 30.9960938 36.328125 11.015625C36.328125 10.546875 36.328125 10.1953125 36.328125 9.9609375 36.328125 8.6328125 36.2402344 7.67578125 36.0644531 7.08984375 35.8886719 6.50390625 35.4492188 6.2109375 34.7460938 6.2109375 34.1210938 6.2109375 33.6816406 6.49414062 33.4277344 7.06054688 33.1738281 7.62695312 33.046875 8.4375 33.046875 9.4921875L33.046875 30.703125C33.046875 31.6796875 33.046875 32.65625 33.046875 33.6328125 33.1640625 34.9609375 33.7109375 35.625 34.6875 35.625 35.4296875 35.625 35.8886719 35.3222656 36.0644531 34.7167969 36.2402344 34.1113281 36.328125 32.8710938 36.328125 30.9960938Z"/><polygon points="16.016 9.961 10.039 9.961 10.039 15.977 5.938 15.977 5.938 9.961 0 9.961 0 6.016 5.938 6.016 5.938 0 10.039 0 10.039 6.016 16.016 6.016" transform="translate(59.176 13.668)"/></g></svg>