<svg xmlns="http://www.w3.org/2000/svg" width="108" height="43" viewBox="0 0 108 43"><g fill="#FFF" transform="translate(.465 .926)"><path d="M15.8789062,41.0742188 L5.859375,41.0742188 L5.859375,15.8789062 C5.859375,14.4335938 5.55664062,13.4082031 4.95117188,12.8027344 C4.34570312,12.1972656 3.18359375,11.8945312 1.46484375,11.8945312 L0,11.8945312 L0,7.20703125 C2.2265625,6.73828125 4.16015625,5.9375 5.80078125,4.8046875 C7.20703125,3.828125 8.59375,2.48046875 9.9609375,0.76171875 L15.8789062,0.76171875 L15.8789062,41.0742188 Z"/><polygon points="32.402 41.074 24.785 41.074 24.785 32.871 32.402 32.871"/><path d="M57.1875 23.3203125C57.1875 23.828125 57.1875 24.2578125 57.1875 24.609375 57.1875 24.9609375 57.1875 25.2539062 57.1875 25.4882812 57.1875 27.0898438 57.1679688 28.8769531 57.1289062 30.8496094 57.0898438 32.8222656 56.8945312 34.3554688 56.5429688 35.4492188 54.9804688 39.7070312 51.40625 41.8359375 45.8203125 41.8359375 41.0546875 41.8359375 37.890625 39.9609375 36.328125 36.2109375 36.0546875 35.46875 35.8496094 34.6289062 35.7128906 33.6914062 35.5761719 32.7539062 35.5078125 31.8945312 35.5078125 31.1132812 35.5078125 30.8007813 35.5078125 30.5664062 35.5078125 30.4101562L44.53125 30.4101562C44.53125 31.1523438 44.53125 31.6796875 44.53125 31.9921875 44.53125 33.3203125 44.6289062 34.2578125 44.8242188 34.8046875 45.0195312 35.3515625 45.546875 35.625 46.40625 35.625 47.03125 35.625 47.4804688 35.390625 47.7539062 34.921875 48.0273438 34.453125 48.1640625 33.8085938 48.1640625 32.9882812L48.1640625 24.4921875C47.1484375 26.6796875 45.3710938 27.7734375 42.8320312 27.7734375 41.6601562 27.7734375 40.5566406 27.5 39.5214844 26.953125 38.4863281 26.40625 37.6367188 25.6835938 36.9726562 24.7851562 36.3867188 23.8867188 35.9960938 22.8027344 35.8007812 21.5332031 35.6054688 20.2636719 35.5078125 18.75 35.5078125 16.9921875L35.5078125 13.7695312C35.5078125 12.5585938 35.5175781 11.3476562 35.5371094 10.1367188 35.5566406 8.92578125 35.6835938 7.8125 35.9179688 6.796875 36.4648438 4.5703125 37.5976562 2.88085938 39.3164062 1.72851562 41.0351562.576171875 43.28125 0 46.0546875 0 49.921875 0 52.7441406 1.00585938 54.5214844 3.01757812 56.2988281 5.02929688 57.1875 8.10546875 57.1875 12.2460938L57.1875 23.3203125ZM48.1640625 17.8125 48.1640625 10.4882812C48.1640625 9.16015625 48.1445312 8.37890625 48.1054688 8.14453125 47.9101562 6.85546875 47.3242188 6.2109375 46.3476562 6.2109375 45.6445312 6.2109375 45.1660156 6.57226562 44.9121094 7.29492188 44.6582031 8.01757812 44.53125 9.0234375 44.53125 10.3125L44.53125 17.8125C44.53125 19.0234375 44.6484375 19.9414062 44.8828125 20.5664062 45.1171875 21.1914062 45.6054688 21.5039062 46.3476562 21.5039062 47.2851562 21.5039062 47.8515625 20.9179688 48.046875 19.7460938 48.125 19.2773438 48.1640625 18.6328125 48.1640625 17.8125ZM81.328125 10.4882813C81.328125 12.6367188 80.8789062 14.8828125 79.9804688 17.2265625 79.2382812 19.140625 77.9492188 21.6601563 76.1132812 24.7851562 74.2773438 27.9101562 72.421875 31.0351562 70.546875 34.1601562L80.4492188 34.1601562 80.4492188 41.0742188 60.5273438 41.0742188 60.5273438 35.3320312C63.3398438 30.2148438 65.2539062 26.6992188 66.2695312 24.7851562 67.4804688 22.5585938 68.8671875 19.8828125 70.4296875 16.7578125 71.4453125 14.609375 72.0898438 13.0761719 72.3632812 12.1582031 72.6367188 11.2402344 72.7734375 10.2929688 72.7734375 9.31640625 72.7734375 7.24609375 72.0898438 6.2109375 70.7226562 6.2109375 69.9414062 6.2109375 69.4140625 6.6015625 69.140625 7.3828125 68.8671875 8.1640625 68.7304688 9.2578125 68.7304688 10.6640625L68.7304688 14.4140625 60.5273438 14.4140625 60.5273438 13.0664062C60.5273438 12.2851562 60.5371094 11.5234375 60.5566406 10.78125 60.5761719 10.0390625 60.6445312 9.27734375 60.7617188 8.49609375 61.1523438 5.72265625 62.1875 3.61328125 63.8671875 2.16796875 65.546875.72265625 67.7539062 0 70.4882812 0 71.8945312 0 73.1445312.146484375 74.2382812.439453125 75.3320312.732421875 76.3476562 1.2109375 77.2851562 1.875 79.9804688 3.90625 81.328125 6.77734375 81.328125 10.4882813Z"/><path d="M22.3046875,26.875 L16.2109375,26.875 L16.2109375,8.7109375 L13.359375,26.875 L9.0234375,26.875 L6.09375,9.1015625 L6.09375,26.875 L0,26.875 L0,0 L9.375,0 C9.66145833,2.03125 9.8828125,3.61979167 10.0390625,4.765625 C10.5338542,8.25520833 10.9114583,10.8463542 11.171875,12.5390625 C11.40625,11.1848958 11.6666667,9.42708333 11.953125,7.265625 C12.1354167,5.91145833 12.3307292,4.24479167 12.5390625,2.265625 C12.6171875,1.51041667 12.6953125,0.755208333 12.7734375,0 L22.3046875,0 L22.3046875,26.875 Z" transform="translate(84.863 8.2)"/></g></svg>