<svg width="17" height="20" viewBox="0 0 17 20" xmlns="http://www.w3.org/2000/svg"><path d="M12.5963198,6.00887648 C13.2738019,6.00887648 15.1933914,6.23775627 16.4354368,7.95429185 C16.3264117,8.06478555 14.3226634,9.13540203 14.1846034,11.4751275 L14.1771217,11.7306827 C14.1771217,14.7060257 17,15.7359534 17,15.7359534 C16.8870811,15.8503933 16.4354057,17.2236091 15.5321169,18.5968565 C14.6288282,19.8556325 13.7255084,21 12.3705131,21 C11.0155179,21 10.5638735,20.1989522 8.87015277,20.1989522 C7.28931985,20.1989522 6.7247566,21 5.48268024,21 C4.12768503,21 3.11144637,19.7411926 2.20812656,18.4824166 C0.401486955,16.0792416 -0.953508259,11.5018029 0.853131351,8.5264599 C1.75645116,7.03880411 3.45020293,6.12328494 5.14392368,6.00887648 C6.4989189,6.00887648 7.74099526,6.92436422 8.64428405,6.92436422 C9.434685,6.92436422 11.0155179,5.89443658 12.5963198,6.00887648 Z M11.9837987,1 C12.0903424,2.24659096 11.6641676,3.49318193 10.918391,4.49044785 C10.2791581,5.36305126 9.10720672,6.11099214 8.04179904,5.98636386 C7.82871165,4.73977289 8.46794456,3.49318193 9.10720672,2.62057853 C9.74643962,1.74794088 10.918391,1.12462828 11.9837987,1 Z" transform="translate(0 -1)" /></svg>