<svg width="19" height="22" viewBox="0 0 19 22" xmlns="http://www.w3.org/2000/svg"><path d="M52.5773205,6.98087767 L52.5772613,14.662886 C52.5753076,16.6080195 52.5088808,18.0126145 50.2503721,17.7004845 C50.2503721,18.0249682 50.2702017,18.387821 50.2881014,18.7614588 L50.3024639,19.0837176 C50.3625466,20.5939132 50.2922801,22.1505718 48.6990624,21.988321 C47.4524829,21.8275424 47.452489,20.4004914 47.5304032,19.0186638 L47.5508286,18.674908 C47.5646258,18.4473775 47.5778818,18.2241391 47.5851861,18.0112645 L47.5910025,17.7004845 L45.3748504,17.7004845 C45.3513413,18.0415632 45.3627338,18.426052 45.3783576,18.8212105 L45.3920703,19.1617671 C45.4453432,20.5283365 45.4453453,21.9103677 44.1559619,21.988321 C42.1614347,22.0955381 42.7154808,19.5228299 42.7154808,17.7004845 C41.7182172,17.8076702 40.8317499,17.5932674 40.4993287,16.8429047 C40.297881,16.3556684 40.3711347,15.5140472 40.3861184,14.7207395 L40.3885324,14.4845993 L40.3885649,7.08806337 C40.3885649,6.99874195 40.3885649,6.98385505 40.4526831,6.9813739 L40.4993611,6.98087767 L52.5773205,6.98087767 Z M39.7437539,9.72505003 L39.7390799,10.0602959 L39.7358024,10.2282566 L39.7358024,10.2282566 L39.7290765,10.5627165 C39.7259985,10.729032 39.72369,10.8935485 39.72369,11.0543427 C39.72369,11.2297546 39.727353,11.4060524 39.7326809,11.5816252 L39.7449647,11.9313271 C39.8071232,13.5543042 39.8982859,15.0205907 38.3940053,15.0205907 C37.1046218,15.0205907 36.9874008,13.8299158 37.0193667,12.4794494 L37.0298742,12.1391004 L37.0298742,12.1391004 L37.0430458,11.7956728 C37.0541456,11.5091948 37.0643205,11.2232385 37.0643205,10.9471256 C37.0643205,9.01759449 36.621103,7.30246619 38.0615841,6.98087767 C39.612883,6.73075326 39.7565218,8.16665895 39.7437539,9.72505003 Z M55.9015,7.73127182 C56.123125,8.48163456 55.9015,9.98239145 55.9015,11.0543427 C55.9015,11.3856725 55.9161518,11.7276344 55.9294715,12.0654091 L55.9417551,12.4012392 C55.9861531,13.7901419 55.914923,15.0205907 54.5718152,15.0205907 C53.3386398,14.9410658 53.2033883,13.7993953 53.2157072,12.4711745 L53.2216435,12.1210261 C53.2243216,12.0032831 53.2274906,11.8847054 53.2305257,11.7658684 L53.2386044,11.4091559 C53.2407468,11.2903763 53.2421304,11.1719134 53.2421304,11.0543427 C53.2421304,9.0176259 52.7988805,7.30249759 54.3501903,6.98090907 C54.9042364,6.87369196 55.6798751,7.08809478 55.9015,7.73127182 Z M50.4569827,-4.8103882e-14 L50.5827609,0.013115945 C50.5827609,0.656292984 49.9179185,1.19225291 49.5854973,1.72824425 C51.0771412,2.65590344 52.3638805,3.68269087 52.5591513,5.85682711 L52.577288,6.12329781 L40.4993287,6.12329781 C40.6101249,3.87217818 41.8290135,2.69304121 43.4911195,1.83546136 C43.1586983,1.19228432 42.6046846,0.870695799 42.3830596,0.120333055 C43.047902,-0.20128687 43.6019157,1.29947002 43.8235407,1.72824425 C45.1532254,1.19225291 47.5909701,1.08506721 48.9206549,1.72824425 C49.1422798,1.40665573 49.3638723,1.08506721 49.5854973,0.763478689 C49.7775722,0.484768638 49.8864025,0.0450418406 50.344797,0.00251013053 L50.4569827,-4.8103882e-14 Z M43.9343694,4.40816951 C44.710008,4.3009524 44.5992118,3.01459832 43.7127444,3.22900114 C42.9371058,3.44340395 43.3803232,4.40816951 43.9343694,4.40816951 Z M49.0314836,4.40816951 C49.696326,4.40816951 49.8071222,3.01459832 48.8098586,3.22900114 C48.1450162,3.44340395 48.4774374,4.40816951 49.0314836,4.40816951 Z" transform="translate(-37)" /></svg>