<?xml version="1.0" encoding="UTF-8"?>
<svg width="372px" height="372px" viewBox="0 0 372 372" version="1.1" xmlns="http://www.w3.org/2000/svg" xmlns:xlink="http://www.w3.org/1999/xlink">
    <defs>
        <linearGradient x1="49.999357%" y1="100.00143%" x2="49.999357%" y2="0%" id="app-logo-linearGradient-1">
            <stop stop-color="#5FFF9C" offset="0%"></stop>
            <stop stop-color="#61FF9A" offset="1.27%"></stop>
            <stop stop-color="#68FF94" offset="1.73%"></stop>
            <stop stop-color="#73FF88" offset="2.05%"></stop>
            <stop stop-color="#84FF78" offset="2.32%"></stop>
            <stop stop-color="#9AFF62" offset="2.54%"></stop>
            <stop stop-color="#B6FF48" offset="2.74%"></stop>
            <stop stop-color="#D6FF28" offset="2.92%"></stop>
            <stop stop-color="#FAFF05" offset="3.08%"></stop>
            <stop stop-color="#FFFF00" offset="3.1%"></stop>
        </linearGradient>
        <radialGradient cx="49.9987729%" cy="50.0079009%" fx="49.9987729%" fy="50.0079009%" r="64.7041231%" gradientTransform="translate(0.499988,0.500079),scale(0.652316,1.000000),translate(-0.499988,-0.500079)" id="app-logo-radialGradient-2">
            <stop stop-color="#F7E979" offset="0%"></stop>
            <stop stop-color="#FFE045" offset="100%"></stop>
        </radialGradient>
        <linearGradient x1="0.00326492537%" y1="49.9765706%" x2="100.014925%" y2="49.9765706%" id="linearGradient-3">
            <stop stop-color="#5FFF9C" offset="0%"></stop>
            <stop stop-color="#52D497" offset="99.9%"></stop>
        </linearGradient>
        <linearGradient x1="-0.0113438045%" y1="50.0257437%" x2="99.9988365%" y2="50.0257437%" id="linearGradient-4">
            <stop stop-color="#5FFF9C" offset="0%"></stop>
            <stop stop-color="#52D497" offset="99.9%"></stop>
        </linearGradient>
        <linearGradient x1="-0.000706963591%" y1="49.9951415%" x2="99.9966419%" y2="49.9951415%" id="linearGradient-5">
            <stop stop-color="#5FFF9C" offset="0%"></stop>
            <stop stop-color="#52D497" offset="99.9%"></stop>
        </linearGradient>
    </defs>
    <g stroke="none" stroke-width="1" fill="none" fill-rule="evenodd">
        <g>
            <rect  fill="#161F2C" x="0" y="0" width="372" height="372"></rect>
            <g transform="translate(26.000000, 41.000000)" fill="#01C29B" fill-rule="nonzero">
                <path d="M317.49,95.15 C307.62,41.69 259.44,1.39 205.07,0.91 C189.52,0.77 174.74,4.14 159.96,8.62 C127.87,19.22 102.9,46.12 94.51,66.68 C75.01,66.61 55.82,66.65 36.27,66.65 C35.29,66.65 34.3,66.65 33.24,66.65 C33.33,67.32 33.3,67.57 33.4,67.78 C37.95,77.78 42.49,87.78 47.15,97.73 C47.46,98.4 48.73,98.97 49.56,98.98 C54.91,99.09 60.26,99.03 65.6,99.05 C66.42,99.05 67.24,99.15 68.25,99.22 C67.95,100.23 67.78,100.92 67.54,101.58 C56.79,131.53 46.01,161.47 35.3,191.44 C34.67,193.19 33.74,193.68 31.97,193.66 C25.75,193.56 19.52,193.68 13.29,193.58 C11.58,193.55 10.77,194.07 10.2,195.72 C7.79,202.71 5.22,209.65 2.72,216.61 C1.9,218.9 1.09,221.2 0.11,223.98 C15.36,223.98 30.2,223.98 45.46,223.98 C42.24,232.94 39.2,241.41 36.14,249.93 C36.75,250.1 36.97,250.22 37.2,250.22 C46.94,250.23 56.68,250.27 66.41,250.17 C67.11,250.16 68.17,249.21 68.45,248.46 C70.51,242.95 72.39,237.37 74.38,231.83 C75.29,229.29 75.64,225.81 77.48,224.56 C79.42,223.24 82.83,224.01 85.59,223.97 C89.56,223.91 93.53,223.96 98,223.96 C94.75,232.91 91.65,241.43 88.45,250.25 C98.48,250.25 108.05,250.2 117.61,250.3 C119.48,250.32 120.22,249.63 120.81,247.97 C123.33,240.93 126.1,233.98 128.56,226.92 C129.34,224.69 130.35,223.8 132.8,223.92 C144.09,224.46 154.32,221.05 163.82,215.2 C179.4,205.59 190.6,191.89 192.75,172.68 C193.93,162.14 189.05,151.47 178.76,146.69 C177.98,146.33 177.22,145.93 176,145.33 C177.03,144.89 177.63,144.58 178.26,144.37 C188.05,141.1 196.56,135.75 203.8,128.45 C213.02,119.15 219.63,108.47 220.49,95.02 C221.1,85.4 218.06,77.26 209.92,71.55 C204.34,67.64 197.94,66.59 191.27,66.69 C189.79,66.71 188.32,66.69 186.32,66.69 C189.41,57.85 192.29,49.59 195.27,41.05 C185.25,41.05 175.68,41.12 166.11,40.99 C164.1,40.96 163.33,41.71 162.74,43.45 C160.36,50.45 157.82,57.41 155.44,64.41 C154.9,65.99 154.14,66.74 152.38,66.72 C147.03,66.63 141.68,66.7 136.34,66.67 C135.6,66.67 134.86,66.46 133.88,66.32 C136.21,59.67 137.92,53.53 141.59,46.7 C149.94,30.18 164.84,14.45 194.73,9.75 C197.03,9.39 197.88,10.52 198.38,12.72 C199.77,18.77 201.57,24.73 202.96,30.79 C203.42,32.78 204.35,33.64 206.21,34.14 C215.66,36.7 225.07,39.4 234.53,41.95 C236.6,42.51 237.77,43.53 238.59,45.58 C244.02,59.03 249.59,72.41 255.16,85.8 C255.59,86.84 255.68,88.22 257.03,88.84 C257.45,87.47 256.8,86.44 256.48,85.36 C252.51,71.9 248.58,58.42 244.49,44.99 C243.88,42.98 244.14,41.91 245.88,40.73 C249.98,37.95 254.04,35.08 257.9,31.97 C259.95,30.32 261.29,30.58 263.24,32.09 C296.41,57.96 310.8,91.71 307.32,133.74 C303.3,167.92 278.44,191.38 278.44,191.38 C278.44,191.38 276.17,171.29 275.54,164.52 C275.41,163.08 275.54,161.8 276.05,160.49 C281.05,147.62 286.07,134.76 290.98,121.85 C291.65,120.1 292.64,119.39 294.41,119.03 C298.18,118.25 301.89,117.2 305.63,116.27 C302.17,115.81 298.81,115.65 295.49,115.86 C292.46,116.06 289.98,115.26 287.48,113.51 C279.05,107.66 270.43,102.08 261.97,96.27 C259.96,94.9 258.4,94.85 256.35,96.21 C247.15,102.36 237.89,108.43 228.57,114.41 C226.82,115.54 226.43,116.63 226.91,118.63 C229.21,128.25 231.17,137.96 233.63,147.54 C234.46,150.77 233.6,152.52 231.19,154.5 C222.38,161.74 213.74,169.19 205.03,176.56 C204.68,176.74 204.32,176.93 203.97,177.11 C204.49,177.58 204.98,177.44 205.46,177.03 C216.04,170.69 226.64,164.38 237.18,157.98 C238.86,156.96 240.31,156.6 242.32,157.14 C250.78,159.41 259.27,161.53 267.81,163.5 C270.2,164.05 271.15,165.27 271.65,167.51 C273.04,173.76 273.42,187.79 274.99,194.35 C188.99,267.21 77.06,285.65 77.06,285.65 C77.06,285.65 75.52,287.38 76.83,288.26 C78.14,289.14 98.93,285.68 129.81,278.41 C219.01,255.65 261.47,219.97 261.66,219.83 C310.28,188.65 326.43,143.57 317.49,95.15 Z M167.03,99.06 C171.08,99.06 174.58,100.29 176.8,103.95 C178.47,106.72 178.39,109.73 177.73,112.75 C175.86,121.25 165.52,129.82 156.08,129.66 C140.6,129.4 125.12,129.64 109.64,129.54 C107.44,129.53 106.41,130.17 105.69,132.27 C102.72,140.92 99.57,149.5 96.49,158.11 C96.23,158.84 96,159.59 95.61,160.79 C96.95,160.79 97.89,160.79 98.84,160.79 C113.92,160.79 129,160.78 144.08,160.79 C153.75,160.8 158.65,167.79 154.78,176.69 C150.75,185.93 143.52,191.34 133.23,191.43 C112.01,191.62 90.78,191.49 69.56,191.48 C68.87,191.48 68.17,191.35 67.19,191.24 C67.57,190 67.83,188.96 68.19,187.95 C77.53,161.99 86.86,136.02 96.26,110.08 C96.96,108.15 96.96,106.71 95.5,105.12 C93.96,103.45 92.73,101.5 91.05,99.25 C92.31,99.15 93.05,99.05 93.8,99.05 C118.19,99.05 142.61,99.05 167.03,99.06 Z" id="形状"></path>
            </g>
            <path d="M343.49,136.15 C333.62,82.69 285.44,42.39 231.07,41.91 C215.52,41.77 200.74,45.14 185.96,49.62 C153.98,60.19 129.08,86.94 120.6,107.47 L161.09,107.47 C160.74,107.41 160.36,107.33 159.93,107.27 C162.26,100.62 163.97,94.48 167.64,87.65 C175.99,71.13 190.9,55.4 220.78,50.7 C223.08,50.34 223.93,51.47 224.43,53.67 C225.82,59.72 227.62,65.68 229.01,71.74 C229.47,73.73 230.4,74.59 232.26,75.09 C241.71,77.65 251.12,80.35 260.58,82.9 C262.65,83.46 263.82,84.48 264.64,86.53 C270.07,99.98 275.64,113.36 281.21,126.75 C281.64,127.79 281.73,129.17 283.08,129.79 C283.5,128.42 282.85,127.39 282.53,126.31 C278.56,112.85 274.63,99.37 270.54,85.94 C269.93,83.93 270.19,82.86 271.93,81.68 C276.03,78.9 280.09,76.03 283.95,72.92 C286,71.27 287.34,71.53 289.29,73.04 C322.46,98.91 336.85,132.66 333.37,174.69 C327.82,210.77 304.49,232.33 304.49,232.33 C304.49,232.33 302.22,212.24 301.59,205.47 C301.45,204.03 301.59,202.75 302.1,201.44 C307.1,188.57 312.12,175.71 317.03,162.8 C317.7,161.05 318.69,160.34 320.46,159.98 C324.23,159.2 327.94,158.15 331.68,157.22 C328.22,156.76 324.86,156.6 321.54,156.81 C318.51,157.01 316.03,156.21 313.53,154.46 C305.1,148.61 296.48,143.03 288.02,137.22 C286.01,135.85 284.45,135.8 282.4,137.16 C273.2,143.31 263.94,149.38 254.62,155.36 C252.87,156.49 252.48,157.58 252.96,159.58 C255.26,169.2 257.22,178.91 259.69,188.49 C260.52,191.72 259.66,193.47 257.25,195.45 C248.44,202.69 239.8,210.14 231.09,217.51 C231.09,217.51 231.09,217.51 231.09,217.51 C230.74,217.69 230.38,217.88 230.03,218.06 C230.55,218.53 231.04,218.39 231.52,217.98 C242.1,211.64 252.7,205.33 263.24,198.93 C264.92,197.91 266.37,197.55 268.38,198.09 C276.84,200.36 285.33,202.48 293.87,204.45 C296.26,205 297.21,206.22 297.71,208.46 C299.1,214.71 299.48,228.74 301.05,235.3 C215.05,308.16 103.12,326.6 103.12,326.6 C103.12,326.6 101.58,328.33 102.89,329.21 C104.2,330.09 124.99,326.63 155.87,319.36 C245.07,296.6 287.53,262.08 287.72,261.94 C338.21,226.92 352.43,184.57 343.49,136.15 Z" id="路径" fill="#FFAB00" fill-rule="nonzero"></path>
            <path d="M199.21,45.99 C199.21,45.99 166.23,51.27 140.3,78.38 C140.3,78.38 125.57,93.87 120.51,107.68 L59.24,107.68 L59.4,108.77 L122.76,108.91 C122.76,108.91 128.22,94.4 143,78.73 C154.79,66.23 169.05,54.09 199.21,45.99 Z" id="路径" fill="url(#app-logo-linearGradient-1)" fill-rule="nonzero" opacity="0.5"></path>
            <path d="M288.63,137.64 C288.63,137.64 285.81,134.65 282.39,137.15 L254.61,155.35 C254.61,155.35 251.97,156.54 252.95,159.57 C252.95,159.57 253.56,158.16 255.16,157.24 C257.16,156.09 283.1,138.93 283.1,138.93 C283.1,138.93 286.69,135.94 288.63,137.64 Z" id="路径" fill="url(#app-logo-radialGradient-2)" fill-rule="nonzero" opacity="0.6"></path>
            <path d="M216.22,81.9 L192.15,81.9 C192.15,81.9 188.98,81.81 188.78,84.41 L181.48,105.37 C181.48,105.37 180.58,107.92 178.42,107.68 C178.42,107.68 180.84,109.02 183.83,105.5 L190.87,85.26 C190.87,85.26 191.22,83.32 194.21,83.85 L220.61,83.85 L221.3,82.02 L216.22,81.9 Z" id="路径" fill="url(#linearGradient-3)" fill-rule="nonzero" opacity="0.6"></path>
            <path d="M197.68,163.69 C197.68,163.69 190.99,171.44 178.79,170.61 L135.64,170.61 C135.64,170.61 132.22,169.82 131.69,173.26 L128.92,181.17 C128.92,181.17 132.44,172.6 135.37,173.19 L179.02,173.19 C179.02,173.2 190.52,173.67 197.68,163.69 Z" id="路径" fill="url(#linearGradient-4)" fill-rule="nonzero" opacity="0.6"></path>
            <path d="M218.13,217.69 C218.13,217.69 215.82,243.09 184.71,259.08 C184.71,259.08 174.25,265.03 161.55,265.03 C161.55,265.03 175.21,262.41 185.8,255.79 C195.03,250.02 213.51,236.16 218.13,217.69 Z" id="路径" fill="url(#linearGradient-5)" fill-rule="nonzero" opacity="0.6"></path>
        </g>
    </g>
</svg>