<?xml version="1.0" encoding="UTF-8"?>
<svg viewBox="0 0 763 261" version="1.1" xmlns="http://www.w3.org/2000/svg" xmlns:xlink="http://www.w3.org/1999/xlink">
    <g stroke="none" stroke-width="1" fill="none" fill-rule="evenodd">
        <g>
            <path d="M149.736494,41 L140.36966,67.6125 L161.547785,67.6125 L170.945966,41 L204.600385,41 L195.22591,67.6125 L201.269821,67.6140351 C224.584474,67.6140351 236.695228,86.5142951 228.319949,109.828947 C221.522872,128.750285 203.321842,144.764143 184.24146,150.127451 C199.470301,155.485857 206.166073,171.499715 199.368996,190.421053 C190.993717,213.735705 165.303952,232.635965 141.989299,232.635965 L135.945408,232.634375 L125.74748,260.019415 L92.2296577,260.019415 L102.267283,232.634375 L81.0891577,232.634375 L71.4021945,260.019415 L37.5118843,260.019415 L47.4141577,232.634375 L0,232.635965 L11.6024604,200.337659 L36.1034117,200.337659 L71.4021945,102.074806 L49.8554549,102.074806 L34.1097335,67.6140351 L106.69466,67.6125 L115.945844,41 L149.736494,41 Z M174.999108,102.153509 L95.6757778,102.153509 L102.044627,110.521868 L70.585358,198.096491 L140.533688,198.096491 C149.208556,198.096491 158.76715,191.064122 161.883407,182.389254 C164.917656,173.942673 160.725406,167.05328 152.494786,166.69653 L151.818651,166.682018 L99.570459,166.681634 L111.466524,133.566009 L163.714145,133.567982 C172.389012,133.567982 181.947607,126.535613 185.063863,117.860746 C188.18012,109.185878 183.673975,102.153509 174.999108,102.153509 Z" fill="#02996A"></path>
            <g transform="translate(182.919355, 173.000000)" fill="#02996A" fill-rule="nonzero">
                <path d="M29.6623068,87.0194152 L62.2568359,-3.63797881e-12 L26.097168,-3.63797881e-12 L29.6623068,6.02929688 L0.0693008263,87.0194152 L29.6623068,87.0194152 Z M98.3686263,87 L122.028321,24.6746995 L118.603594,19.2289407 L156.316529,19.2289407 L163.757324,1.8189894e-12 L68.4476197,1.8189894e-12 L62.0341904,19.2289407 L94.91613,19.2289407 L68.4476197,87 L98.3686263,87 Z"></path>
            </g>
            <path d="M641.688643,4.99999966 C688.252541,4.99999966 726.000039,42.4162113 726.000039,88.5714473 C726.000039,124.561311 703.048775,155.237665 670.862723,167.004415 C699.00514,154.002284 718.509202,125.711251 718.509202,92.9047817 C718.509202,65.7274862 705.124197,41.6489891 684.532081,26.7929634 L672.247853,35.4124773 L682.774853,73.2844773 L705.519853,89.1414773 L718.339042,89.1415274 L706.019853,91.8704773 L693.551853,122.555477 L695.072597,145.665303 L690.263853,123.909477 L667.889853,117.859477 L638.856767,134.756702 L664.191853,114.298477 L658.825853,88.5474773 L627.090853,74.5064773 L607.370853,86.0184773 L605.865603,113.551596 L605.780039,110.641 L605.826417,113.492997 L350.605681,149.251576 L604.901039,85.4419997 L591.799039,74.6569997 L471.64208,101.541053 L581.112853,65.8619462 L593.610139,41.4077461 L615.857853,44.6364773 L643.444853,28.3064773 L639.370428,11.2547134 C638.276096,11.2120229 637.176283,11.1904773 636.071393,11.1904773 C620.548038,11.1904773 606.026812,15.4434458 593.628942,22.8379966 C585.335811,28.6564931 579.530117,33.5310735 576.21194,37.4622234 C570.817212,43.8535308 566.337224,51.1148049 562.771976,59.2460458 L562.379602,60.1530972 L216.000039,151.19049 L469.828175,62.3275004 L395.079056,71.3179092 L614.209223,9.53252953 C614.199517,9.53842699 614.189812,9.5443238 614.180109,9.55021997 C622.801852,6.60101645 632.056623,4.99999966 641.688643,4.99999966 Z M643.561853,28.4554773 L621.088853,47.5214773 L628.061853,70.9264773 L658.794853,88.3624773 L682.478853,73.3954773 L667.687853,35.6804773 L643.561853,28.4554773 Z" fill="#FFAB00" transform="translate(471.000039, 86.002208) rotate(-1.000000) translate(-471.000039, -86.002208) "></path>
            <path d="M419.365406,251.480104 L433.85417,212.810954 L433.85417,212.810954 L393.021388,212.810954 L400.938948,222.424067 L392.554267,245.243816 L356.293496,245.243816 L376.600036,192.975757 L373.372696,187.756184 L414.363132,187.756184 L410.392966,198.05477 L440.662827,198.05477 L447.272046,180.060028 C448.271696,177.338306 446.875681,174.321537 444.15396,173.321887 C443.574246,173.108966 442.961511,173 442.343932,173 L354.483502,173 L354.483502,173 L324.919355,249.701413 L331.354453,260 L407.074814,260 C412.547225,260 417.445329,256.604611 419.365406,251.480104 Z M447.418181,260 L463.834662,236.328622 L499.545037,236.328622 L496.835038,260 L523.93291,260 L532.85975,178.823877 C533.176693,175.941756 531.097206,173.348403 528.215086,173.031459 C528.024512,173.010502 527.832932,173 527.641209,173 L471.427162,173 L471.427162,173 L474.930368,177.303887 L419.637611,260 L447.418181,260 Z M502.895664,221.424528 L472.94393,221.424528 L493.273751,192.032217 L489.97938,187.773585 L506.671232,187.773585 L502.895664,221.424528 Z M554.409331,260 L571.392034,215.731449 L574.019969,254.159011 L598.34085,254.159011 L632.417609,214.194346 L613.474328,260 L640.795838,260 L671.765446,180.14838 C672.813893,177.44508 671.472369,174.403689 668.769069,173.355242 C668.163688,173.120452 667.520005,173 666.870688,173 L642.636455,173 L642.636455,173 L597.356809,227.567138 L594.15262,173 L554.67067,173 L559.187622,179 L527.087822,260 L554.409331,260 Z M732.405672,260 L737.531349,244.219081 L685.135718,244.219081 L693.32439,223.109541 L741.309969,223.109541 L746.988351,206.816254 L700.210288,206.816254 L706.058253,192.925565 L700.487788,189.293286 L756.19096,189.293286 L762.919355,173 L676.765817,173 L679.814575,179 L651.219589,251.057454 L656.82814,260 L732.405672,260 Z" fill="#FFFFFF" fill-rule="nonzero"></path>
        </g>
    </g>
</svg>