<svg xmlns="http://www.w3.org/2000/svg" width="38" height="38" viewBox="0 0 38 38">
  <g fill="none">
    <path fill="#475975" d="M18.4933828,0 C18.6200371,0 18.7467285,0 19.0000371,0 C24.8266914,0.253382813 29.0066914,2.53338281 32.0466914,5.57338281 C35.0866914,8.61338281 37.3666914,12.7933828 37.6200371,18.6200371 C37.6200371,18.7466914 37.6200371,18.8733828 37.6200371,19.1266914 C37.3666914,24.9533457 35.0866914,29.1333457 32.0466914,32.1733457 C29.0066914,35.2133457 24.7000371,37.4933457 18.8733457,37.62 C18.7466914,37.62 18.62,37.62 18.4933457,37.62 C12.6666914,37.3666543 8.48669141,35.0866543 5.32,32.0466543 C2.4066543,29.0066543 0.126654297,24.8266543 0,19 C0,18.8733457 0,18.8733457 0,18.7466543 C0,18.7466543 0.126654297,18.7466543 0,18.62 C0.126654297,12.7933457 2.5333457,8.6133457 5.5733457,5.5733457 C8.6133457,2.5333457 12.7933457,0.253345703 18.4933457,0 L18.4933828,0 Z"/>
    <path fill="#161F2C" d="M11.4251559,29.26 C11.1144246,28.6409461 10.9697394,27.9517873 11.0052665,27.26 L11.0052665,10.76 C10.9697394,10.0682127 11.1144246,9.37905388 11.4251559,8.76000002 L21.4025279,19 L11.4251559,29.26 Z M25.6214167,23.35 L15.4341,29 C14.6373644,29.5710163 13.7013915,29.9164847 12.7248136,30 L12.6348373,30 L22.3522778,20 L25.6214167,23.35 Z M26.8510928,15.35 L29.0005266,16.56 C29.800316,17.01 31,17.82 31,19.03 C31,20.24 29.800316,21.03 29.0005266,21.48 L26.8510928,22.69 L23.2920303,19 L26.8510928,15.35 Z M12.6348373,8 L12.7248136,8 C13.700639,8.08687709 14.6357534,8.43202868 15.4341,9 L25.6214167,14.68 L22.3522778,18 L12.6348373,8 Z"/>
  </g>
</svg>
