<svg xmlns="http://www.w3.org/2000/svg" width="38" height="38" viewBox="0 0 38 38">
  <path fill="#475975" d="M18.6528125,0.0267578125 C8.4128125,0.0267578125 0.0216796875,8.275625 0.0216796875,18.6578906 C0.0216796875,29.0401563 8.4128125,37.2890234 18.6528125,37.2890234 C28.8928125,37.2890234 37.2839453,28.8978906 37.2839453,18.6578906 C37.2839453,8.41789063 29.0350781,0.0267578125 18.6528125,0.0267578125 Z M19.1288864,9.6473021 C19.7681193,8.7746987 20.9400707,8.15138609 22.0054784,8.02675781 C22.112022,9.27334878 21.6858473,10.5199397 20.9400707,11.5172057 C20.3008378,12.3898091 19.1288864,13.13775 18.0634787,13.0131217 C17.8503913,11.7665307 18.4896242,10.5199397 19.1288864,9.64733634 L19.1288864,9.6473021 Z M25.5538276,25.6235829 C24.6505078,26.8823903 23.747188,28.0267578 22.3921928,28.0267578 C21.0371976,28.0267578 20.5855532,27.22571 18.8918325,27.22571 C17.3109995,27.22571 16.7464363,28.0267578 15.5043599,28.0267578 C14.1493647,28.0267578 13.1331261,26.7679504 12.2298063,25.5091744 C10.4231666,23.1059994 9.06817143,18.5285607 10.874811,15.5532177 C11.7781308,14.0655619 13.4718826,13.1500428 15.1656034,13.0356343 C16.5205986,13.0356343 17.7626749,13.951122 18.6659637,13.951122 C19.4563647,13.951122 21.0371976,12.9211944 22.6179995,13.0356343 C23.2954816,13.0356343 25.2150711,13.2645141 26.4571164,14.9810497 C26.3441976,15.0954896 24.1988014,16.2398571 24.1988014,18.7574405 L24.1988014,18.7574405 C24.1988014,21.7327835 27.0216797,22.7627112 27.0216797,22.7627112 C26.9087608,22.8771511 26.4570854,24.250367 25.5537966,25.6236143 L25.5538276,25.6235829 Z"/>
</svg>
