<svg xmlns="http://www.w3.org/2000/svg" width="38" height="38" viewBox="0 0 38 38">
  <g fill="none">
    <path fill="#475975" d="M18.5086719,0.0149550781 C18.6353262,0.0149550781 18.7620176,0.0149550781 19.0153262,0.0149550781 C24.8419805,0.268337891 29.0219805,2.54833789 32.0619805,5.58833789 C35.1019805,8.62833789 37.3819805,12.8083379 37.6353262,18.6349922 C37.6353262,18.7616465 37.6353262,18.8883379 37.6353262,19.1416465 C37.3819805,24.9683008 35.1019805,29.1483008 32.0619805,32.1883008 C29.0219805,35.2283008 24.7153262,37.5083008 18.8886348,37.6349551 C18.7619805,37.6349551 18.6352891,37.6349551 18.5086348,37.6349551 C12.6819805,37.3816094 8.50198047,35.1016094 5.33528906,32.0616094 C2.42194336,29.0216094 0.141943359,24.8416094 0.0152890625,19.0149551 C0.0152890625,18.8883008 0.0152890625,18.8883008 0.0152890625,18.7616094 C0.0152890625,18.7616094 0.141943359,18.7616094 0.0152890625,18.6349551 C0.141943359,12.8083008 2.54863477,8.62830078 5.58863477,5.58830078 C8.62863477,2.54830078 12.8086348,0.268300781 18.5086348,0.0149550781 L18.5086719,0.0149550781 Z"/>
    <g transform="translate(8.55 6.65)">
      <path fill="#161F2C" d="M16.9165286,7.83732721 L16.9161295,16.6259019 C16.9091451,18.7231206 16.779934,20.2121353 14.3895286,19.8706488 C14.3895286,20.3038462 14.4199868,20.7979634 14.4411544,21.3009146 L14.4534535,21.6369525 C14.50203,23.2619359 14.3624333,24.8584622 12.7048502,24.6839704 C10.8998502,24.4433272 11.5015286,21.6756488 11.5015286,19.8706488 L11.5015286,19.8706488 L9.0948502,19.8706488 C9.07077883,20.2316488 9.08040174,20.6359688 9.09580149,21.0528034 L9.10976488,21.4124364 C9.17076026,22.9779003 9.20141067,24.5945886 7.77117178,24.6839704 C6.11817178,24.7758216 6.07709529,23.1155759 6.15036169,21.4147471 L6.16666055,21.0628338 C6.18643313,20.6529027 6.2068502,20.2474843 6.2068502,19.8706488 C5.1238502,19.9909704 4.16117178,19.750292 3.80017178,18.9079704 C3.55952861,18.3063272 3.6798502,17.2233272 3.6798502,16.2606488 L3.6798502,16.2606488 L3.67988545,7.9576488 C3.67988545,7.83732721 3.67988545,7.83732721 3.80020703,7.83732721 L16.9165286,7.83732721 L16.9165286,7.83732721 Z M1.1528502,7.83732721 C3.3188502,7.47632721 2.9578502,10.2440056 2.9578502,12.4100056 C2.9578502,14.5760056 3.43917178,16.8623272 1.5138502,16.8623272 C-0.411471386,16.8623272 0.0698501964,14.3353272 0.0698501964,12.2896488 C0.0698501964,10.1236488 -0.411471386,8.19832721 1.1528502,7.83732721 Z M18.8418149,7.83736247 C19.4434934,7.71700563 20.2858149,7.95768405 20.5264934,8.67968405 C20.6640239,9.16101067 20.6443767,9.91739258 20.6022755,10.7018395 L20.5685945,11.2915776 C20.5461406,11.6830989 20.5264934,12.0661995 20.5264934,12.4100056 C20.5264934,12.7108355 20.5369026,13.0194732 20.5485363,13.3271166 L20.5624967,13.6952479 L20.5624967,13.6952479 L20.5741056,14.0590445 C20.6126791,15.5611386 20.498171,16.8623272 19.0824934,16.8623272 C17.4962812,16.7565901 17.5828019,14.9781201 17.6270818,13.1602096 L17.6350779,12.7840631 C17.6371674,12.6588506 17.6384934,12.5339861 17.6384934,12.4100056 C17.6384934,10.1236841 17.1571365,8.19836247 18.8418149,7.83736247 Z M14.6139018,0.000925459888 L14.7504934,0.0156487968 C14.7504934,0.737648797 14.0284934,1.33929196 13.6674934,1.94097038 C15.3521718,3.02397038 16.7961718,4.22732721 16.9164934,6.8746488 L16.9164934,6.8746488 L3.80017178,6.8746488 C3.92049336,4.3476488 5.24417178,3.02400563 7.04917178,2.06132721 C6.68817178,1.33932721 6.08652861,0.978327215 5.8458502,0.136005633 L5.8458502,0.136005633 C6.5678502,-0.225029621 7.16949336,1.4596488 7.41017178,1.94097038 C8.85417178,1.33929196 11.5014934,1.21897038 12.9454934,1.94097038 C13.1861718,1.57997038 13.4268149,1.21897038 13.6674934,0.857970379 C13.9081718,0.496970379 14.0284934,-0.104672785 14.7504934,0.0156487968 Z"/>
      <path fill="#475975" d="M7.2898502 3.6256488C8.25252861 3.38497038 8.3728502 4.82897038 7.53052861 4.94932721 6.9288502 4.94932721 6.44752861 3.86632721 7.2898502 3.6256488zM12.8251718 3.6256488C13.9081718 3.38497038 13.7878502 4.94932721 13.0658502 4.94932721 12.4641718 4.94932721 12.1031718 3.86632721 12.8251718 3.6256488L12.8251718 3.6256488z"/>
    </g>
  </g>
</svg>
