<svg width="39" height="36" viewBox="0 0 39 36" xmlns="http://www.w3.org/2000/svg"><path d="M17.7734375 23.2421875C17.7734375 25.3580729 17.7571615 26.6113281 17.7246094 27.0019531 17.561849 28.922526 16.9759115 30.5501302 15.9667969 31.8847656 14.469401 33.8704427 12.2233073 34.8632812 9.22851562 34.8632812 7.43815104 34.8632812 5.97330729 34.6435547 4.83398438 34.2041016 3.69466146 33.7646484 2.70182292 32.9915365 1.85546875 31.8847656 1.00911458 30.7779948.48828125 29.6630859.29296875 28.5400391.09765625 27.4169922 0 25.8138021 0 23.7304688L0 11.9628906C0 9.74934896.105794271 7.9671224.317382812 6.61621094.528971354 5.26529948.9765625 4.1015625 1.66015625 3.125 2.34375 2.1484375 3.30403646 1.38346354 4.54101562.830078125 5.77799479.276692708 7.16145833 0 8.69140625 0 10.4492188 0 12.0035807.333658854 13.3544922 1.00097656 14.7054036 1.66829427 15.7226562 2.58789062 16.40625 3.75976562 17.0572917 4.76888021 17.4479167 5.83496094 17.578125 6.95800781 17.7083333 8.08105469 17.7734375 9.74934896 17.7734375 11.9628906L17.7734375 23.2421875ZM10.2539062 25.8300781 10.2539062 9.1796875C10.2539062 8.7890625 10.2539062 8.49609375 10.2539062 8.30078125 10.2539062 7.19401042 10.1806641 6.39648438 10.0341797 5.90820312 9.88769531 5.41992188 9.52148438 5.17578125 8.93554688 5.17578125 8.41471354 5.17578125 8.0485026 5.41178385 7.83691406 5.88378906 7.62532552 6.35579427 7.51953125 7.03125 7.51953125 7.91015625L7.51953125 25.5859375C7.51953125 26.3997396 7.51953125 27.2135417 7.51953125 28.0273438 7.6171875 29.1341146 8.07291667 29.6875 8.88671875 29.6875 9.50520833 29.6875 9.88769531 29.4352214 10.0341797 28.9306641 10.1806641 28.4261068 10.2539062 27.3925781 10.2539062 25.8300781ZM38.0859375 24.1699219C38.0859375 26.2207031 37.9557292 27.8645833 37.6953125 29.1015625 37.4348958 30.3385417 36.9140625 31.4127604 36.1328125 32.3242188 34.7005208 34.0169271 32.5520833 34.8632812 29.6875 34.8632812 26.6601562 34.8632812 24.3652344 34.2529297 22.8027344 33.0322266 21.2402344 31.8115234 20.4589844 29.9967448 20.4589844 27.5878906L20.3125 23.5351562 20.3125 22.3632813 27.8320312 22.3632813 27.8320312 27.6367188C27.8320312 29.0039062 28.2552083 29.6875 29.1015625 29.6875 29.7526042 29.6875 30.1513672 29.3619792 30.2978516 28.7109375 30.4443359 28.0598958 30.5175781 26.8391927 30.5175781 25.0488281L30.5175781 22.7050781C30.5175781 20.7519531 30.1757812 19.514974 29.4921875 18.9941406 28.9713542 18.6035156 27.8157552 18.4082031 26.0253906 18.4082031L26.0253906 13.5253906 26.4648438 13.5253906C28.2877604 13.5253906 29.4189453 13.3463542 29.8583984 12.9882812 30.2978516 12.6302083 30.5175781 11.6048177 30.5175781 9.91210938L30.5175781 8.0078125C30.5175781 6.99869792 30.46875 6.34765625 30.3710938 6.0546875 30.1757812 5.46875 29.7851562 5.17578125 29.1992188 5.17578125 28.2877604 5.17578125 27.8320312 5.84309896 27.8320312 7.17773438L27.8320312 10.0585937 20.3125 10.0585937 20.3125 8.15429688C20.3125 5.02929687 20.9554036 2.8889974 22.2412109 1.73339844 23.5270182.577799479 25.764974 0 28.9550781 0 31.9498698 0 34.1715495.708007812 35.6201172 2.12402344 37.0686849 3.54003906 37.7929688 5.79427083 37.7929688 8.88671875 37.7929688 10.8072917 37.483724 12.2558594 36.8652344 13.2324219 36.4420573 13.9160156 35.7096354 14.5670573 34.6679688 15.1855469 36.1653646 15.8040365 37.109375 16.7073568 37.5 17.8955078 37.890625 19.0836589 38.0859375 21.1751302 38.0859375 24.1699219Z" transform="translate(.506 .771)" fill="currentColor"/></svg>