<svg width="40" height="40" viewBox="0 0 40 40" xmlns="http://www.w3.org/2000/svg"><g fill="none" fill-rule="evenodd"><rect fill="#FFF" x="4" y="4" width="31.2" height="31.2"/><path d="M30.4278607,0 C35.5820896,0 39.800995,4.21890547 39.8208955,9.37313433 L39.8208955,9.37313433 L39.8208955,30.4278607 C39.8208955,35.5820896 35.60199,39.800995 30.4477612,39.800995 L30.4477612,39.800995 L9.37313433,39.800995 C4.21890547,39.800995 -7.10542736e-15,35.5820896 -7.10542736e-15,30.4477612 L-7.10542736e-15,30.4477612 L-7.10542736e-15,9.37313433 C-7.10542736e-15,4.21890547 4.21890547,0 9.37313433,0 L9.37313433,0 Z M25.7235705,7.36880818 L22.2614694,7.36880818 C18.1691323,7.36880818 16.6995928,9.46858378 16.6995928,12.9306848 L16.6995928,12.9306848 L16.6995928,15.5549784 L14.0752992,15.5549784 L14.0752992,19.857505 L16.6995928,19.857505 L16.6995928,32.3473654 L21.8425449,32.3473654 L21.8425449,19.857505 L25.3033993,19.8576712 L25.8279172,15.449385 L21.9455203,15.449385 L21.9455203,13.3497756 C21.9455203,12.3016539 22.0504072,11.6713348 23.6239611,11.6713348 L23.6239611,11.6713348 L25.7235705,11.6713348 L25.7235705,7.36880818 Z" fill="#3B8FF1" fill-rule="nonzero"/></g></svg>