<svg width="18" height="18" viewBox="0 0 18 18" xmlns="http://www.w3.org/2000/svg"><path d="M95,21 C99.9705627,21 104,25.0294373 104,30 C104,34.9705627 99.9705627,39 95,39 C90.0294373,39 86,34.9705627 86,30 C86,25.0294373 90.0294373,21 95,21 Z M95,22.6363636 C92.3692261,22.6363636 89.9382907,24.0398647 88.6229037,26.3181818 C87.3075168,28.5964988 87.3075168,31.4035012 88.6229037,33.6818182 C89.9382907,35.9601353 92.3692261,37.3636364 95,37.3636364 C99.066824,37.3636364 102.363636,34.066824 102.363636,30 C102.363636,25.933176 99.066824,22.6363636 95,22.6363636 Z M94.6181818,33.1377273 C94.9181818,33.1377273 95.1772727,33.2331818 95.3818182,33.4240909 C95.5727273,33.615 95.6818182,33.8604545 95.6818182,34.1604545 C95.6818182,34.4604546 95.5727273,34.7195454 95.3818182,34.9104546 C95.1636364,35.1013636 94.9181818,35.1968182 94.6181818,35.1968182 C94.3181818,35.1968182 94.0727273,35.0877273 93.8818182,34.8968182 C93.670609,34.7119201 93.5551573,34.4408596 93.5681818,34.1604545 C93.5681818,33.8604545 93.6636364,33.615 93.8818182,33.4240909 C94.0727273,33.2331818 94.3181818,33.1377273 94.6181818,33.1377273 L94.6181818,33.1377273 Z M94.8636364,25.2695455 C95.75,25.2695455 96.4727273,25.5013636 97.0181818,25.9922727 C97.5636364,26.4695455 97.8363636,27.1240909 97.8363636,27.9559091 C97.8363636,28.6377273 97.6590909,29.1968182 97.3318182,29.6331818 C97.2090909,29.7695455 96.8136364,30.1377273 96.1590909,30.7104546 C95.9136364,30.9013636 95.7363636,31.1331818 95.6136364,31.3786364 C95.4772727,31.6513636 95.4090909,31.9513636 95.4090909,32.2786364 L95.4090909,32.4695454 L93.8409091,32.4695454 L93.8409091,32.2786364 C93.8409091,31.7604545 93.9227273,31.3104545 94.1136364,30.9422727 C94.2909091,30.5740909 94.8227273,30.0013636 95.7090909,29.2104546 L95.8727273,29.0195455 C96.1181818,28.7195455 96.2409091,28.3922727 96.2409091,28.0513636 C96.2409091,27.6013636 96.1045454,27.2468182 95.8590909,26.9877273 C95.6,26.7286364 95.2318182,26.6059091 94.7681818,26.6059091 C94.1818182,26.6059091 93.7590909,26.7831818 93.4863636,27.1513636 C93.2545455,27.465 93.1454546,27.915 93.1454545,28.5013636 L91.5909091,28.5013636 C91.5909091,27.4922727 91.8772727,26.7013636 92.4772727,26.1286364 C93.0636364,25.5559091 93.8545455,25.2695455 94.8636364,25.2695455 Z" transform="translate(-86 -21)" fill="currentColor"/></svg>