<svg width="128" height="104" viewBox="0 0 128 104" xmlns="http://www.w3.org/2000/svg"><defs><linearGradient x1="50%" y1=".971%" x2="50%" y2="99.438%" id="b"><stop stop-color="#FCCE61" offset="0%"/><stop stop-color="#FFAC02" offset="100%"/></linearGradient><filter x="-31.2%" y="-40.2%" width="162.5%" height="180.5%" filterUnits="objectBoundingBox" id="a"><feOffset dy="9" in="SourceAlpha" result="shadowOffsetOuter1"/><feGaussianBlur stdDeviation="4.5" in="shadowOffsetOuter1" result="shadowBlurOuter1"/><feColorMatrix values="0 0 0 0 0 0 0 0 0 0 0 0 0 0 0 0 0 0 0.5 0" in="shadowBlurOuter1" result="shadowMatrixOuter1"/><feMerge><feMergeNode in="shadowMatrixOuter1"/><feMergeNode in="SourceGraphic"/></feMerge></filter></defs><g filter="url(#a)" transform="translate(8.05 .1)" fill="url(#b)"><path d="M55.4503125,0.0612304075 C68.9769742,0.0612304075 79.9425,11.0267563 79.9425,24.5534179 C79.9295784,32.6488279 75.9961358,39.8243653 69.9391831,44.2830193 C83.8419616,50.4410243 93.658125,65.1864074 93.658125,82.3549805 C93.658125,84.5192463 91.9036408,86.2737304 89.739375,86.2737304 C87.5751092,86.2737304 85.8206251,84.5192463 85.820625,82.3549805 C85.820625,63.9956368 72.2029688,49.0456055 55.4503125,49.0456055 C38.6976563,49.0456055 25.08,63.9956367 25.08,82.3549805 C25.0796687,84.5190121 23.3252816,86.2731306 21.16125,86.2731306 C18.9972184,86.2731306 17.2425,84.5190121 17.2425,82.3549805 C17.2425,65.193008 27.051117,50.4523626 40.9450765,44.2887441 C34.8883049,39.831637 30.958125,32.6514988 30.958125,24.5534179 C30.958125,11.0267563 41.9236508,0.0612304075 55.4503125,0.0612304075 Z M87.78,11.8174805 C97.5191964,11.8174805 105.414375,19.7126591 105.414375,29.4518555 C105.414375,34.77725 103.053792,39.5513008 99.3219183,42.7847154 C106.463854,47.4972302 111.2925,56.4423924 111.2925,66.6799805 C111.2925,68.8442463 109.538016,70.5987305 107.37375,70.5987305 C105.209484,70.5987305 103.455,68.8442463 103.455,66.6799805 C103.455,55.8838242 96.4208438,47.0862305 87.78,47.0862305 C85.6157341,47.0862305 83.86125,45.3317463 83.86125,43.1674805 C83.86125,41.0032146 85.6157341,39.2487304 87.78,39.2487304 C93.1902942,39.2482066 97.5759265,34.8621497 97.5759265,29.4518555 C97.5759265,24.0415612 93.1902942,19.6555043 87.78,19.6549805 C85.6159684,19.6546492 83.8618499,17.9002621 83.8618499,15.7362305 C83.8618499,13.5721989 85.6159684,11.8174805 87.78,11.8174805 Z M23.120625,11.8174805 C25.2846565,11.8174805 27.0387751,13.5721989 27.0387751,15.7362305 C27.0387751,17.9002621 25.2846565,19.6546492 23.120625,19.6549805 C17.7103308,19.6555043 13.3246985,24.0415612 13.3246985,29.4518555 C13.3246985,34.8621497 17.7103308,39.2482066 23.120625,39.2487304 C23.2419571,39.2487304 23.3620013,39.2542446 23.4805207,39.265036 C23.7509302,39.2541891 24.0230512,39.2487304 24.29625,39.2487304 C26.4605158,39.2487304 28.215,41.0032146 28.215,43.1674805 C28.215,45.3317463 26.4605158,47.0862305 24.29625,47.0862305 C15.6554062,47.0862305 8.62124994,55.8838242 8.62124994,66.6799805 C8.62124994,68.8442463 6.86676584,70.5987305 4.7025,70.5987305 C2.53823412,70.5987305 0.783749969,68.8442463 0.783749969,66.6799805 C0.783749969,56.7541507 5.32278724,48.0432307 12.1088663,43.2267512 C8.07188293,39.9948863 5.48624997,35.0253244 5.48624997,29.4518555 C5.48624997,19.7126591 13.3814286,11.8174805 23.120625,11.8174805 Z M55.4503125,7.89873047 C46.2521826,7.89873047 38.795625,15.355288 38.795625,24.5534179 C38.795625,33.7515478 46.2521826,41.2081054 55.4503125,41.2081054 C64.6484424,41.2081054 72.105,33.7515478 72.105,24.5534179 C72.0942029,15.359764 64.6439664,7.90952752 55.4503125,7.89873047 Z"/></g></svg>