<svg width="15" height="17" viewBox="0 0 15 17" xmlns="http://www.w3.org/2000/svg"><path d="M21.000084,11.8751004 C21.742521,11.8751004 22.3461926,12.506239 22.3461926,13.2812814 L22.3461926,13.2812814 L22.3461926,23.968819 C22.3461926,24.7443885 21.7426892,25.375 21.000084,25.375 L21.000084,25.375 L11.8461086,25.375 C11.1041762,25.375 10.5,24.7445642 10.5,23.968819 L10.5,23.968819 L10.5,13.2812814 C10.500841,12.505009 11.1029988,11.8759789 11.8461086,11.8751004 L11.8461086,11.8751004 Z M21.000084,12.9999749 L11.8461086,12.9999749 C11.6974193,12.9999749 11.5768196,13.1259566 11.5768196,13.2812814 L11.5768196,13.2812814 L11.5768196,23.968819 C11.5768196,24.1241438 11.6974193,24.2501255 11.8461086,24.2501255 L11.8461086,24.2501255 L20.9999158,24.2501255 C21.1481005,24.2501255 21.2692048,24.123441 21.2692048,23.968819 L21.269373,23.968819 L21.269373,13.2812814 C21.269373,13.1259566 21.1487733,12.9999749 21.000084,12.9999749 L21.000084,12.9999749 Z M23.1538914,9.625 C23.8964966,9.625 24.5001681,10.2561386 24.5,11.0313567 L24.5,11.0313567 L24.5,21.7187186 C24.5,22.0293681 24.2589686,22.2811559 23.9615901,22.2811559 C23.6642117,22.2811559 23.4231804,22.0293681 23.4231804,21.7187186 L23.4231804,21.7187186 L23.4231804,11.031181 C23.4231804,10.8758562 23.3025806,10.7498745 23.1538914,10.7498745 L23.1538914,10.7498745 L13.9999159,10.7498745 C13.7025374,10.7498745 13.4615061,10.4980867 13.4615061,10.1874372 C13.4615061,9.87678775 13.7025374,9.625 13.9999159,9.625 L13.9999159,9.625 Z M16.9615902,20.4295583 C17.2589687,20.4295583 17.5,20.6813461 17.5,20.9919956 C17.5,21.3026451 17.2589687,21.5544328 16.9615902,21.5544328 L16.9615902,21.5544328 L13.7307951,21.5544328 C13.4334166,21.5544328 13.1923853,21.3026451 13.1923853,20.9919956 C13.1923853,20.6813461 13.4334166,20.4295583 13.7307951,20.4295583 L13.7307951,20.4295583 Z M19.1153975,17.6407411 C19.412776,17.6407411 19.6538073,17.8925288 19.6538073,18.2031783 C19.6538073,18.5138278 19.412776,18.7656156 19.1153975,18.7656156 L19.1153975,18.7656156 L13.7307951,18.7656156 C13.4334166,18.7656156 13.1923853,18.5138278 13.1923853,18.2031783 C13.1923853,17.8925288 13.4334166,17.6407411 13.7307951,17.6407411 L13.7307951,17.6407411 Z M19.1153975,14.8282034 C19.412776,14.8282034 19.6538073,15.0799912 19.6538073,15.3906407 C19.6538073,15.7012902 19.412776,15.9530779 19.1153975,15.9530779 L19.1153975,15.9530779 L13.7307951,15.9530779 C13.4334166,15.9530779 13.1923853,15.7012902 13.1923853,15.3906407 C13.1923853,15.0799912 13.4334166,14.8282034 13.7307951,14.8282034 L13.7307951,14.8282034 Z" transform="translate(-10 -9)" fill="currentColor"/></svg>