<svg width="39" height="36" viewBox="0 0 39 36" xmlns="http://www.w3.org/2000/svg"><path d="M17.7734375 23.2421875C17.7734375 25.3580729 17.7571615 26.6113281 17.7246094 27.0019531 17.561849 28.922526 16.9759115 30.5501302 15.9667969 31.8847656 14.469401 33.8704427 12.2233073 34.8632812 9.22851562 34.8632812 7.43815104 34.8632812 5.97330729 34.6435547 4.83398438 34.2041016 3.69466146 33.7646484 2.70182292 32.9915365 1.85546875 31.8847656 1.00911458 30.7779948.48828125 29.6630859.29296875 28.5400391.09765625 27.4169922 0 25.8138021 0 23.7304688L0 11.9628906C0 9.74934896.105794271 7.9671224.317382812 6.61621094.528971354 5.26529948.9765625 4.1015625 1.66015625 3.125 2.34375 2.1484375 3.30403646 1.38346354 4.54101562.830078125 5.77799479.276692708 7.16145833 0 8.69140625 0 10.4492188 0 12.0035807.333658854 13.3544922 1.00097656 14.7054036 1.66829427 15.7226562 2.58789062 16.40625 3.75976562 17.0572917 4.76888021 17.4479167 5.83496094 17.578125 6.95800781 17.7083333 8.08105469 17.7734375 9.74934896 17.7734375 11.9628906L17.7734375 23.2421875ZM10.2539062 25.8300781 10.2539062 9.1796875C10.2539062 8.7890625 10.2539062 8.49609375 10.2539062 8.30078125 10.2539062 7.19401042 10.1806641 6.39648438 10.0341797 5.90820312 9.88769531 5.41992188 9.52148438 5.17578125 8.93554688 5.17578125 8.41471354 5.17578125 8.0485026 5.41178385 7.83691406 5.88378906 7.62532552 6.35579427 7.51953125 7.03125 7.51953125 7.91015625L7.51953125 25.5859375C7.51953125 26.3997396 7.51953125 27.2135417 7.51953125 28.0273438 7.6171875 29.1341146 8.07291667 29.6875 8.88671875 29.6875 9.50520833 29.6875 9.88769531 29.4352214 10.0341797 28.9306641 10.1806641 28.4261068 10.2539062 27.3925781 10.2539062 25.8300781ZM37.9394531 8.74023438C37.9394531 10.530599 37.5651042 12.4023438 36.8164062 14.3554688 36.1979167 15.9505208 35.1236979 18.0501302 33.59375 20.6542969 32.0638021 23.2584635 30.5175781 25.8626302 28.9550781 28.4667969L37.2070312 28.4667969 37.2070312 34.2285156 20.6054688 34.2285156 20.6054688 29.4433594C22.9492188 25.1790365 24.5442708 22.249349 25.390625 20.6542969 26.3997396 18.7988281 27.5553385 16.5690104 28.8574219 13.9648438 29.703776 12.1744792 30.2408854 10.8968099 30.46875 10.1318359 30.6966146 9.36686198 30.8105469 8.57747396 30.8105469 7.76367188 30.8105469 6.03841146 30.2408854 5.17578125 29.1015625 5.17578125 28.4505208 5.17578125 28.0110677 5.50130208 27.7832031 6.15234375 27.5553385 6.80338542 27.4414062 7.71484375 27.4414062 8.88671875L27.4414062 12.0117188 20.6054688 12.0117188 20.6054688 10.8886719C20.6054688 10.2376302 20.6136068 9.60286458 20.6298828 8.984375 20.6461589 8.36588542 20.703125 7.73111979 20.8007812 7.08007812 21.1263021 4.76888021 21.9889323 3.01106771 23.3886719 1.80664062 24.7884115.602213542 26.6276042 0 28.90625 0 30.078125 0 31.1197917.122070312 32.03125.366210938 32.9427083.610351562 33.7890625 1.00911458 34.5703125 1.5625 36.8164062 3.25520833 37.9394531 5.64778646 37.9394531 8.74023438Z" transform="translate(.506 .771)" fill="currentColor"/></svg>