<svg width="126" height="126" viewBox="0 0 126 126" xmlns="http://www.w3.org/2000/svg"><defs><linearGradient x1="50%" y1="0%" x2="50%" y2="100%" id="b"><stop stop-color="#FCCF65" offset="0%"/><stop stop-color="#FFAB00" offset="100%"/></linearGradient><linearGradient x1="50%" y1=".971%" x2="50%" y2="99.438%" id="c"><stop stop-color="#FCCE61" offset="0%"/><stop stop-color="#FFAC02" offset="100%"/></linearGradient><filter x="-32.6%" y="-32.6%" width="165.3%" height="165.3%" filterUnits="objectBoundingBox" id="a"><feOffset dy="9" in="SourceAlpha" result="shadowOffsetOuter1"/><feGaussianBlur stdDeviation="4.5" in="shadowOffsetOuter1" result="shadowBlurOuter1"/><feColorMatrix values="0 0 0 0 0 0 0 0 0 0 0 0 0 0 0 0 0 0 0.5 0" in="shadowBlurOuter1" result="shadowMatrixOuter1"/><feMerge><feMergeNode in="shadowMatrixOuter1"/><feMergeNode in="SourceGraphic"/></feMerge></filter></defs><g filter="url(#a)" transform="translate(9.7 .2)" fill="none" fill-rule="evenodd"><rect stroke="url(#b)" stroke-width="6.6" x="3.3" y="3.3" width="100.65" height="100.65" rx="50.325"/><path d="M76.9610629,39.441885 L76.9610629,28.05 L30.3960048,28.05 L30.3960048,39.441885 L47.5630702,39.441885 L47.5630702,46.8845236 C33.6081986,47.5131394 23.1,50.2685597 23.1,53.5744957 C23.1,56.880513 33.6081176,59.6357709 47.5630702,60.2644679 L47.5630702,84.15 L59.7940785,84.15 L59.7940785,60.2588661 C73.6951326,59.6207517 84.15,56.8703649 84.15,53.5744146 C84.15,50.2780583 73.6951326,47.5267785 59.7940785,46.8894759 L59.7940785,39.4418038 L76.9610629,39.4418038 L76.9610629,39.441885 Z M78.8925776,52.9014718 C78.8925776,55.0757695 70.7671829,56.8995915 59.7940785,57.4059426 L59.0849676,57.4360622 L59.0065918,57.4360622 L58.3416534,57.4605801 L58.2696805,57.4605801 C57.7751103,57.4775478 57.2745424,57.4920799 56.7676525,57.503527 L56.7362049,57.503527 L56.0562722,57.5176532 L55.8641014,57.5176532 L55.327547,57.5248787 L51.9296665,57.5248787 L51.3986235,57.5176532 L51.2141526,57.5176532 L50.5797702,57.5043388 L50.5100668,57.5043388 C49.7581612,57.4875335 49.0176027,57.4643146 48.287986,57.4360622 L48.278422,57.4360622 L47.5520474,57.4045624 C36.5242339,56.9059239 28.3464806,55.0757695 28.3464806,52.8910801 C28.3464806,50.7059035 36.5256118,48.8811885 47.5520474,48.3770294 L47.5520474,55.2864447 C49.4662173,55.3863835 51.5024492,55.4411834 53.6143013,55.4411834 C55.7597894,55.4411834 57.837114,55.3854905 59.783542,55.2809241 L59.783542,48.3975692 C70.7662103,48.9026214 78.8925776,50.7273363 78.8925776,52.9014718 L78.8925776,52.9014718 Z" fill="url(#c)" fill-rule="nonzero"/></g></svg>