<svg width="40" height="40" viewBox="0 0 40 40" xmlns="http://www.w3.org/2000/svg"><g fill="none" fill-rule="evenodd"><ellipse fill="#FFF" cx="20.4" cy="20" rx="17.2" ry="16.863"/><path d="M30.5647176,6.79891873e-14 C35.7421289,6.79891873e-14 39.98001,4.24 40,9.42 L40,9.42 L40,30.58 C40,35.76 35.7621189,40 30.5847076,40 L30.5847076,40 L9.41529235,40 C4.23788106,40 -1.56319402e-14,35.76 -1.56319402e-14,30.6 L-1.56319402e-14,30.6 L-1.56319402e-14,9.42 C-1.56319402e-14,4.24 4.23788106,6.79891873e-14 9.41529235,6.79891873e-14 L9.41529235,6.79891873e-14 Z M24.5666257,11.1739064 L24.5666257,11.1940063 L24.5448616,11.1940063 L23.9220741,11.2744062 C23.5403656,11.3548061 23.158657,11.4754059 22.7970385,11.6161056 C21.3683865,12.2409524 20.313254,13.4973365 19.9442696,15.013 C19.7433704,15.7968987 19.7433704,16.6209973 19.9442696,17.384796 C19.1808526,17.384796 18.4174356,17.2842962 17.6941984,17.0832965 C15.4386645,16.5796205 13.3325778,15.5538742 11.5450082,14.0884015 C10.9951937,13.6570069 10.495911,13.1647793 10.0566799,12.621104 C9.88720754,12.4539632 9.73260108,12.2723779 9.59461169,12.0784049 C9.359547,12.4893196 9.17729558,12.9282924 9.05218381,13.3849027 C8.67213247,15.010908 9.09005433,16.7207644 10.1772194,17.987795 C10.4383884,18.3093945 10.8401868,18.5103942 11.1013558,18.7917937 C10.8723207,18.8318849 10.6367781,18.8110913 10.4182985,18.7314938 C10.0532206,18.6711637 9.69606335,18.5700309 9.35353262,18.4299943 L8.81110474,18.2289946 C8.7488858,20.0008922 9.65785183,21.6655941 11.1817155,22.5705874 C11.6638736,22.9323868 12.2263914,23.1534864 12.8290891,23.2338863 C12.5076503,23.5152858 11.0812659,23.394686 10.5790178,23.3343861 C11.0812659,24.8619836 12.2665712,26.0478816 13.7749895,26.5704807 C14.2571477,26.7513804 14.7593957,26.8317803 15.2616437,26.8317803 C14.8443973,27.1817212 14.3855532,27.4787688 13.8955291,27.7161788 C12.951212,28.2317704 11.9356583,28.6043263 10.8820408,28.821677 C10.4199726,28.9221768 9.93781451,28.9020769 9.41547655,28.9824767 C8.87917848,29.0226435 8.34006792,29.0024167 7.80828285,28.9221768 L8.25026112,29.1834763 C8.7123293,29.4648759 9.17439752,29.7060755 9.67664553,29.9070752 C10.6409618,30.3090745 11.6253679,30.630674 12.629864,30.8718736 C15.0004747,31.3743727 17.4732093,31.2939729 19.8036402,30.630674 C25.0688738,28.9824767 28.4038007,25.1232831 29.67114,19.4349926 C29.8720391,18.3696944 29.9523989,17.2641962 29.912219,16.178798 L30.7158159,15.5154992 C31.3836546,14.9514418 31.9597531,14.286902 32.4234592,13.5457024 C31.5165011,13.9466719 30.5551192,14.2108455 29.5706903,14.3296011 C29.7715895,14.2291013 29.9523989,14.0884015 30.1332081,13.9276018 C30.8966252,13.3045028 31.459143,12.4804042 31.7604918,11.5558058 L31.1377042,11.8975052 C30.3223017,12.3314022 29.4391921,12.6236538 28.5260144,12.7618037 C27.5035939,11.676061 26.0555291,11.0953203 24.5666257,11.1739064 Z" fill="#2FB0EC" fill-rule="nonzero"/></g></svg>