<svg width="34" height="36" viewBox="0 0 34 36" xmlns="http://www.w3.org/2000/svg"><path d="M17.7734375 23.2421875C17.7734375 25.3580729 17.7571615 26.6113281 17.7246094 27.0019531 17.561849 28.922526 16.9759115 30.5501302 15.9667969 31.8847656 14.469401 33.8704427 12.2233073 34.8632812 9.22851562 34.8632812 7.43815104 34.8632812 5.97330729 34.6435547 4.83398438 34.2041016 3.69466146 33.7646484 2.70182292 32.9915365 1.85546875 31.8847656 1.00911458 30.7779948.48828125 29.6630859.29296875 28.5400391.09765625 27.4169922 0 25.8138021 0 23.7304688L0 11.9628906C0 9.74934896.105794271 7.9671224.317382812 6.61621094.528971354 5.26529948.9765625 4.1015625 1.66015625 3.125 2.34375 2.1484375 3.30403646 1.38346354 4.54101562.830078125 5.77799479.276692708 7.16145833 0 8.69140625 0 10.4492188 0 12.0035807.333658854 13.3544922 1.00097656 14.7054036 1.66829427 15.7226562 2.58789062 16.40625 3.75976562 17.0572917 4.76888021 17.4479167 5.83496094 17.578125 6.95800781 17.7083333 8.08105469 17.7734375 9.74934896 17.7734375 11.9628906L17.7734375 23.2421875ZM10.2539062 25.8300781 10.2539062 9.1796875C10.2539062 8.7890625 10.2539062 8.49609375 10.2539062 8.30078125 10.2539062 7.19401042 10.1806641 6.39648438 10.0341797 5.90820312 9.88769531 5.41992188 9.52148438 5.17578125 8.93554688 5.17578125 8.41471354 5.17578125 8.0485026 5.41178385 7.83691406 5.88378906 7.62532552 6.35579427 7.51953125 7.03125 7.51953125 7.91015625L7.51953125 25.5859375C7.51953125 26.3997396 7.51953125 27.2135417 7.51953125 28.0273438 7.6171875 29.1341146 8.07291667 29.6875 8.88671875 29.6875 9.50520833 29.6875 9.88769531 29.4352214 10.0341797 28.9306641 10.1806641 28.4261068 10.2539062 27.3925781 10.2539062 25.8300781ZM33.4472656 34.2285156 25.0976562 34.2285156 25.0976562 13.2324219C25.0976562 12.0279948 24.8453776 11.1735026 24.3408203 10.6689453 23.836263 10.164388 22.8678385 9.91210938 21.4355469 9.91210938L20.2148438 9.91210938 20.2148438 6.00585938C22.0703125 5.61523438 23.6816406 4.94791667 25.0488281 4.00390625 26.2207031 3.19010417 27.3763021 2.06705729 28.515625.634765625L33.4472656.634765625 33.4472656 34.2285156Z" transform="translate(.506 .771)" fill="currentColor"/></svg>