<svg width="40" height="40" viewBox="0 0 40 40" xmlns="http://www.w3.org/2000/svg"><defs><linearGradient x1="50%" y1="0%" x2="50%" y2="100%" id="iconTelegram"><stop stop-color="#37AEE2" offset="0%"/><stop stop-color="#149CE3" offset="100%"/></linearGradient></defs><g fill="none" fill-rule="evenodd"><ellipse fill="#FFF" cx="20.4" cy="20.455" rx="17.2" ry="17.246"/><path d="M30.4278607,4.61852778e-14 C35.5820896,4.61852778e-14 39.800995,4.23018597 39.8208955,9.39819618 L39.8208955,9.39819618 L39.8208955,30.5092186 C39.8208955,35.6772288 35.60199,39.9074148 30.4477612,39.9074148 L30.4477612,39.9074148 L9.37313433,39.9074148 C4.21890547,39.9074148 7.46069873e-14,35.6772288 7.46069873e-14,30.5291723 L7.46069873e-14,30.5291723 L7.46069873e-14,9.39819618 C7.46069873e-14,4.23018597 4.21890547,4.61852778e-14 9.37313433,4.61852778e-14 L9.37313433,4.61852778e-14 Z M31.9316149,10.994409 C32.2530722,9.43044956 31.3904953,8.81822344 30.4046932,9.20225619 L30.4046932,9.20225619 L9.11351009,17.7233305 C7.66159499,18.3132939 7.68302547,19.1592791 8.86705956,19.5433118 L8.86705956,19.5433118 L14.3104018,21.3132018 L26.9543857,13.0425836 C27.5490815,12.6307224 28.0902012,12.8589158 27.6455187,13.270777 L27.6455187,13.270777 L17.4178216,22.8715956 L17.0213577,28.7100064 C17.5892654,28.7100064 17.8357159,28.4539846 18.1303851,28.1478715 L18.1303851,28.1478715 L20.7931223,25.4874708 L26.3114712,29.711831 C27.3240615,30.3017943 28.036625,29.9901156 28.3098636,28.7378349 L28.3098636,28.7378349 Z" fill="url(#iconTelegram)" fill-rule="nonzero"/></g></svg>