<svg width="23" height="21" viewBox="0 0 23 21" xmlns="http://www.w3.org/2000/svg"><g fill="#7286A6"><path d="M23,16.7808471 C22.7791411,14.4775936 21.4458078,12.4665439 19.4826176,11.4524248 C20.1533742,10.898097 20.6564417,10.1632904 20.9427403,9.31246164 C21.2658487,8.34990793 21.2862986,7.32719461 21.00409,6.34745242 C20.7177914,5.37200735 20.1574642,4.53406998 19.3762781,3.92817679 C18.595092,3.32228361 17.6707567,3 16.6973415,3 C16.3496932,3 16.002045,3.04726827 15.6257669,3.1418048 L15.3108384,3.21915286 L15.5276074,3.46838551 C15.8343558,3.81645181 16.1042945,4.20319213 16.3333333,4.61571517 L16.390593,4.71884592 L16.5051125,4.71454882 C16.5419223,4.71454882 16.5787321,4.70595459 16.6114519,4.70165746 C16.6441718,4.69736033 16.6728016,4.69306323 16.6973415,4.69306323 C17.4703476,4.69306323 18.198364,5.01104972 18.7423313,5.582566 C19.2903886,6.1583794 19.5889571,6.9189687 19.5889571,7.73112339 C19.5889571,8.54327808 19.2903885,9.30816451 18.7423313,9.8839779 C18.194274,10.4597913 17.4703477,10.7734807 16.6973415,10.7734807 C16.6687116,10.7734807 16.6359918,10.7691835 16.595092,10.7648864 C16.5664622,10.7605893 16.5378323,10.7562922 16.5092024,10.7562922 L16.390593,10.747698 L16.3333333,10.8551258 C16.0838446,11.31062 15.7811861,11.7360344 15.4294479,12.1141805 L15,12.5782689 L15.601227,12.4450583 C15.9243354,12.3720074 16.2515337,12.3376304 16.5705522,12.3376304 C19.0163599,12.3376304 21.0449898,14.267035 21.2903885,16.8238183 L21.3067485,17 L22.99591,17 L22.99591,16.8023327 L23,16.7808471 L23,16.7808471 Z"/><path d="M17.5388764,17.8882759 C17.2395506,16.9696552 16.7986517,16.1048276 16.2323596,15.3268965 C15.6660674,14.5448276 14.9905618,13.8662069 14.2179775,13.3034483 C13.534382,12.8068965 12.7901124,12.4096552 12.0013483,12.1241379 C13.0692135,11.3875862 13.8862921,10.3572414 14.3797753,9.12827586 C14.9217978,7.76689655 15.0067416,6.30206895 14.6305618,4.88689655 C14.254382,3.47172415 13.4494382,2.25103449 12.312809,1.36137931 C11.1721349,0.471724126 9.81303372,0 8.37707867,0 C6.912809,0.00413794238 5.47280901,0.52137932 4.33213484,1.46068965 C3.18741574,2.40000001 2.38247193,3.72000001 2.06292136,5.18482758 C1.7433708,6.64965517 1.92134832,8.19724136 2.56044945,9.54206897 C3.14292137,10.7668966 4.09348315,11.7848276 5.25438203,12.4427586 C3.74966292,13.1503448 2.47146069,14.2593103 1.54112361,15.6703448 C0.52988766,17.1931035 0,18.9682759 0,20.8096552 L0,21 L1.51280899,21 L1.51280899,20.8096552 C1.51280899,20.7806896 1.51280899,20.7558621 1.50876406,20.7310345 C1.50876406,20.7103448 1.50471911,20.6937931 1.50471911,20.6813793 C1.50471911,16.5227586 4.8094382,13.137931 8.8705618,13.1337931 C12.9316854,13.1337931 16.2364045,16.5186207 16.2364045,20.6772414 C16.2364045,20.6937931 16.2364045,20.7103448 16.2323596,20.7310345 C16.2323596,20.7558621 16.2283146,20.7806896 16.2283146,20.8055172 L16.2283146,20.9958621 L18,20.9958621 L18,20.8055172 C18,19.8124138 17.8462921,18.8275862 17.5388764,17.8882759 Z M13.2269663,6.63310345 C13.2269663,9.37241379 11.0507865,11.5986207 8.37303371,11.5986207 C5.69528091,11.5986207 3.51910114,9.37241377 3.51910114,6.63310345 C3.51910114,3.89379313 5.69528093,1.6675862 8.37303371,1.6675862 C11.0507865,1.6675862 13.2269663,3.89379311 13.2269663,6.63310345 Z"/></g></svg>