<svg width="126" height="126" viewBox="0 0 126 126" xmlns="http://www.w3.org/2000/svg"><defs><linearGradient x1="50%" y1="0%" x2="50%" y2="100%" id="b"><stop stop-color="#FCCF65" offset="0%"/><stop stop-color="#FFAB00" offset="100%"/></linearGradient><linearGradient x1="50%" y1=".971%" x2="50%" y2="99.438%" id="c"><stop stop-color="#FCCE61" offset="0%"/><stop stop-color="#FFAC02" offset="100%"/></linearGradient><filter x="-32.4%" y="-32.4%" width="164.8%" height="164.8%" filterUnits="objectBoundingBox" id="a"><feOffset dy="9" in="SourceAlpha" result="shadowOffsetOuter1"/><feGaussianBlur stdDeviation="4.5" in="shadowOffsetOuter1" result="shadowBlurOuter1"/><feColorMatrix values="0 0 0 0 0 0 0 0 0 0 0 0 0 0 0 0 0 0 0.5 0" in="shadowBlurOuter1" result="shadowMatrixOuter1"/><feMerge><feMergeNode in="shadowMatrixOuter1"/><feMergeNode in="SourceGraphic"/></feMerge></filter></defs><g filter="url(#a)" transform="translate(9.7 .2)" fill="none" fill-rule="evenodd"><rect stroke="url(#b)" stroke-width="6.6" x="3.3" y="3.3" width="100.65" height="100.65" rx="50.325"/><path d="M46.2422599,46.2826335 C47.2004251,45.2781483 48.6275717,44.8715795 49.9712446,45.2203118 C51.3149175,45.5690441 52.3642139,46.6183404 52.7129461,47.9620133 C53.0616784,49.3056862 52.6551096,50.7328328 51.6506245,51.690998 C49.0624871,54.690231 49.3544723,59.210057 52.3069939,61.8513579 L52.3069939,61.8513579 L64.2701419,73.8145059 C65.8279324,75.2911074 67.861646,76.1631503 70.0052062,76.2736635 C71.7150727,76.3149337 73.3693479,75.6650016 74.5938516,74.4708753 C75.8480312,73.151841 76.5005711,71.3726752 76.3966398,69.5555301 C76.3124656,67.5012955 75.4301968,65.5609436 73.9374822,64.1471656 L73.9374822,64.1471656 L69.185487,59.3951704 C68.1810022,58.4370051 67.7744337,57.0098586 68.123166,55.666186 C68.4718984,54.3225133 69.5211945,53.2732171 70.8648672,52.9244848 C72.2085398,52.5757525 73.6356863,52.982321 74.5938516,53.9868058 L74.5938516,53.9868058 L79.3458468,58.738801 C82.2122156,61.4984838 83.912698,65.2512359 84.0978421,69.2258605 C84.3960787,73.2592098 82.8970342,77.2182525 80.0022161,80.0425897 C77.3436774,82.6777118 73.7484056,84.150641 70.0052062,84.1382936 C65.8127286,84.0700579 61.813254,82.364525 58.8617773,79.3862203 L58.8617773,79.3862203 L46.8986293,67.4230723 C43.910126,64.4785314 42.2027264,60.4746794 42.146634,56.2796434 C42.0891065,52.5277817 43.5689223,48.9157005 46.2422599,46.2826335 Z M38.8558773,24.750077 C43.0483549,24.8183127 47.0478295,26.5238456 49.9993062,29.5021502 L49.9993062,29.5021502 L61.9624542,41.4652983 C64.9509575,44.4098392 66.6583571,48.4136912 66.7144494,52.6087271 C66.7719769,56.3605889 65.2921611,59.9726701 62.6188235,62.6057371 C61.6606583,63.6102219 60.2335118,64.0167904 58.8898391,63.6680581 C57.5461665,63.3193257 56.4968703,62.2700295 56.148138,60.9263569 C55.7994057,59.5826843 56.2059742,58.1555378 57.2104589,57.1973725 C59.7985964,54.1981396 59.5066111,49.6783136 56.5540896,47.0370127 L56.5540896,47.0370127 L44.5909416,35.0738647 C43.0761862,33.5330855 41.0162598,32.6498027 38.8558773,32.6147071 C37.1460108,32.5734369 35.4917356,33.223369 34.2672319,34.4174953 C33.0127439,35.736338 32.3601532,37.5156421 32.4644437,39.3328404 C32.6877582,41.3372099 33.6174441,43.1965819 35.0869511,44.5778552 L35.0869511,44.5778552 L39.9933862,49.4842902 C40.7027585,50.229447 41.0645704,51.2328084 41.0027749,52.2558052 C40.9409794,53.278802 40.4610202,54.231315 39.6755965,54.8896848 C38.1739113,56.3632179 35.7689171,56.3632179 34.2672319,54.8896848 L34.2672319,54.8896848 L31.154675,51.6226881 L29.5152367,49.9832498 C26.6488679,47.223567 24.9483855,43.4708149 24.7632414,39.4961903 C24.5926789,35.5317446 26.0759941,31.6744798 28.8588673,28.8457809 C31.517406,26.2106588 35.1126779,24.7377295 38.8558773,24.750077 Z" fill="url(#c)" fill-rule="nonzero"/></g></svg>