<svg width="18" height="17" viewBox="0 0 18 17" xmlns="http://www.w3.org/2000/svg"><path d="M280.058254,5.2571536 C280.458954,5.2571536 280.783787,5.57435938 280.783787,5.96565254 C280.783787,6.3569457 280.458954,6.67415148 280.058254,6.67415148 L274.055677,6.67415148 C273.72176,6.67415149 273.451066,6.93848964 273.451066,7.26456727 L273.451066,18.987863 C273.449777,19.1452678 273.512907,19.2966586 273.626433,19.4084067 C273.73996,19.5201549 273.894483,19.5830072 274.055677,19.5830021 L286.505824,19.5830021 C286.667855,19.5842731 286.823628,19.5219793 286.938205,19.4100924 C287.052782,19.2982055 287.116573,19.1460899 287.115272,18.987863 L287.115272,13.1262151 C287.115272,12.734922 287.440104,12.4177162 287.840805,12.4177162 C288.241505,12.4177162 288.566338,12.734922 288.566338,13.1262151 L288.566338,18.987863 C288.566338,20.0991356 287.643814,21 286.505824,21 L274.055677,21 C272.919576,20.9973957 272,20.0972936 272,18.987863 L272,7.26456727 C272.002659,6.15698079 272.921461,5.25975054 274.055677,5.2571536 L280.058254,5.2571536 Z M285.286928,4.27470175 C285.664242,3.90843275 286.273617,3.90843275 286.65093,4.27470175 L286.65093,4.27470175 L288.716281,6.27739208 C288.897932,6.45458129 289,6.69501984 289,6.94574274 C289,7.19646563 288.897932,7.43690418 288.716281,7.6140934 L288.716281,7.6140934 L279.497175,16.6498165 L276.38222,17.5189085 C276.038962,17.6198479 275.666686,17.5271464 275.414842,17.2780189 C275.161444,17.0310844 275.068409,16.6676837 275.172998,16.3333537 L275.172998,16.3333537 L276.048474,13.2915316 Z M283.57467,7.94472625 L277.354434,14.0283705 L276.803029,15.9177009 L278.708762,15.3697951 L284.943509,9.28142757 L283.57467,7.94472625 Z M285.978603,5.60667975 L284.609764,6.94338108 L285.978603,8.2800824 L287.347442,6.94338108 L285.978603,5.60667975 Z" transform="translate(-271.5 -4)" fill="currentColor"/></svg>