<svg xmlns="http://www.w3.org/2000/svg" width="22" height="29" viewBox="0 0 22 29">
  <path id="122233" fill="#FFAF0A" d="M35.0591304,29.37625 C35.0591304,29.37625 37.9669565,28.07125 37.4313043,24.7 C37.0869565,21.8 33.3373913,20.67625 30.4678261,20.35 L30.4678261,16 L27.56,16 L27.56,20.35 L25.6852174,20.35 L25.6852174,16 L22.7773913,16 L22.7773913,20.35 L17,20.35 L17,23.25 L19.2191304,23.25 C20.2521739,23.25 20.5965217,23.57625 20.5965217,24.22875 L20.5965217,36.3 C20.5965217,37.27875 20.0991304,37.605 19.4104348,37.605 L17.3826087,37.605 L17.2295652,40.505 L22.853913,40.505 L22.853913,45 L25.6852174,45 L25.6852174,40.505 L27.56,40.505 L27.56,45 L30.4678261,45 L30.4678261,40.505 L31.1565217,40.505 C37.1252174,40.505 39,37.75 39,34.0525 C39,30.355 35.0591304,29.37625 35.0591304,29.37625 Z M25.8,23.25 L27.695935,23.25 C28.9837398,23.25 31.6666667,23.4078231 31.6666667,25.8935374 C31.6666667,28.1819728 30.2357724,28.8921769 29.2699187,29.05 L25.8,29.05 L25.8,23.25 Z M28.804878,37.75 L25.8,37.75 L25.8,31.95 L29.3056911,31.95 C30.0926829,31.95 33.1333333,32.27625 33.1333333,34.37875 C33.1333333,36.48125 31.6666667,37.75 28.804878,37.75 Z" transform="translate(-17 -16)"/>
</svg>
