<?xml version="1.0" encoding="utf-8"?>
<svg viewbox="0 0 60 60" version="1.1" xmlns:xlink="http://www.w3.org/1999/xlink" xmlns="http://www.w3.org/2000/svg">
  <defs>
    <linearGradient x1="0.5" y1="0" x2="0.5" y2="1" id="gradient_favorite">
      <stop offset="0" stop-color="#ABBBD2" />
      <stop offset="1" stop-color="#7286A6" />
    </linearGradient>
    <filter filterUnits="userSpaceOnUse" color-interpolation-filters="sRGB" id="filter_favorite">
      <feFlood flood-opacity="0" result="BackgroundImageFix" />
      <feColorMatrix in="SourceAlpha" type="matrix" values="0 0 0 0 0 0 0 0 0 0 0 0 0 0 0 0 0 0 127 0" />
      <feOffset dx="0" dy="5" />
      <feGaussianBlur stdDeviation="2.5" />
      <feColorMatrix type="matrix" values="0 0 0 0 0 0 0 0 0 0 0 0 0 0 0 0 0 0 0.2 0" />
      <feBlend mode="normal" in2="BackgroundImageFix" result="effect0_dropShadow" />
      <feBlend mode="normal" in="SourceGraphic" in2="effect0_dropShadow" result="shape" />
    </filter>
    <path d="M11.999 0L48.001 0Q48.2956 0 48.5898 0.0144533Q48.884 0.0289066 49.1771 0.0577785Q49.4702 0.0866503 49.7616 0.129871Q50.053 0.173092 50.3419 0.230557Q50.6308 0.288023 50.9165 0.359595Q51.2022 0.431167 51.4841 0.516673Q51.766 0.602179 52.0433 0.701413Q52.3207 0.800647 52.5928 0.913369Q52.8649 1.02609 53.1312 1.15203Q53.3975 1.27797 53.6573 1.41683Q53.9171 1.55568 54.1697 1.70711Q54.4224 1.85855 54.6673 2.0222Q54.9122 2.18584 55.1488 2.36131Q55.3854 2.53678 55.6131 2.72365Q55.8408 2.91051 56.059 3.10833Q56.2773 3.30614 56.4856 3.51443Q56.6939 3.72271 56.8917 3.94096Q57.0895 4.15922 57.2764 4.38691Q57.4632 4.61461 57.6387 4.8512Q57.8142 5.0878 57.9778 5.33271Q58.1414 5.57763 58.2929 5.83028Q58.4443 6.08293 58.5832 6.34271Q58.722 6.60249 58.848 6.86877Q58.9739 7.13504 59.0866 7.40718Q59.1993 7.67932 59.2986 7.95666Q59.3978 8.234 59.4833 8.51587Q59.5688 8.79775 59.6404 9.08348Q59.712 9.36921 59.7694 9.65811Q59.8269 9.94701 59.8701 10.2384Q59.9133 10.5298 59.9422 10.8229Q59.9711 11.116 59.9855 11.4102Q60 11.7044 60 11.999L60 48.001Q60 48.2956 59.9855 48.5898Q59.9711 48.884 59.9422 49.1771Q59.9133 49.4702 59.8701 49.7616Q59.8269 50.053 59.7694 50.3419Q59.712 50.6308 59.6404 50.9165Q59.5688 51.2022 59.4833 51.4841Q59.3978 51.766 59.2986 52.0433Q59.1993 52.3207 59.0866 52.5928Q58.9739 52.8649 58.848 53.1312Q58.722 53.3975 58.5832 53.6573Q58.4443 53.9171 58.2929 54.1697Q58.1414 54.4224 57.9778 54.6673Q57.8141 54.9122 57.6387 55.1488Q57.4632 55.3854 57.2764 55.6131Q57.0895 55.8408 56.8917 56.059Q56.6939 56.2773 56.4856 56.4856Q56.2773 56.6939 56.059 56.8917Q55.8408 57.0895 55.6131 57.2764Q55.3854 57.4632 55.1488 57.6387Q54.9122 57.8142 54.6673 57.9778Q54.4224 58.1414 54.1697 58.2929Q53.9171 58.4443 53.6573 58.5832Q53.3975 58.722 53.1312 58.848Q52.865 58.9739 52.5928 59.0866Q52.3207 59.1993 52.0433 59.2986Q51.766 59.3978 51.4841 59.4833Q51.2022 59.5688 50.9165 59.6404Q50.6308 59.712 50.3419 59.7694Q50.053 59.8269 49.7616 59.8701Q49.4702 59.9133 49.1771 59.9422Q48.884 59.9711 48.5898 59.9855Q48.2956 60 48.001 60L11.999 60Q11.7044 60 11.4102 59.9855Q11.116 59.9711 10.8229 59.9422Q10.5298 59.9133 10.2384 59.8701Q9.94701 59.8269 9.65811 59.7694Q9.36921 59.712 9.08348 59.6404Q8.79775 59.5688 8.51587 59.4833Q8.234 59.3978 7.95666 59.2986Q7.67932 59.1993 7.40718 59.0866Q7.13504 58.9739 6.86877 58.848Q6.60249 58.722 6.34271 58.5832Q6.08293 58.4443 5.83028 58.2929Q5.57763 58.1414 5.33271 57.9778Q5.0878 57.8141 4.8512 57.6387Q4.61461 57.4632 4.38691 57.2764Q4.15922 57.0895 3.94096 56.8917Q3.72271 56.6939 3.51443 56.4856Q3.30614 56.2773 3.10833 56.059Q2.91051 55.8408 2.72365 55.6131Q2.53678 55.3854 2.36131 55.1488Q2.18584 54.9122 2.0222 54.6673Q1.85855 54.4224 1.70711 54.1697Q1.55568 53.9171 1.41683 53.6573Q1.27797 53.3975 1.15203 53.1312Q1.02609 52.865 0.913369 52.5928Q0.800647 52.3207 0.701413 52.0433Q0.602179 51.766 0.516673 51.4841Q0.431167 51.2022 0.359595 50.9165Q0.288023 50.6308 0.230557 50.3419Q0.173092 50.053 0.129871 49.7616Q0.0866503 49.4702 0.0577785 49.1771Q0.0289066 48.884 0.0144533 48.5898Q0 48.2956 0 48.001L0 11.999Q0 11.7044 0.0144533 11.4102Q0.0289066 11.116 0.0577785 10.8229Q0.0866503 10.5298 0.129871 10.2384Q0.173092 9.94701 0.230557 9.65811Q0.288023 9.36921 0.359595 9.08348Q0.431167 8.79775 0.516673 8.51587Q0.602179 8.234 0.701413 7.95666Q0.800647 7.67932 0.913369 7.40718Q1.02609 7.13504 1.15203 6.86877Q1.27797 6.60249 1.41683 6.34271Q1.55568 6.08293 1.70711 5.83028Q1.85855 5.57763 2.0222 5.33271Q2.18584 5.0878 2.36131 4.8512Q2.53678 4.61461 2.72365 4.38691Q2.91051 4.15922 3.10833 3.94096Q3.30614 3.72271 3.51443 3.51443Q3.72271 3.30614 3.94096 3.10833Q4.15922 2.91051 4.38691 2.72365Q4.61461 2.53678 4.8512 2.36131Q5.0878 2.18584 5.33271 2.0222Q5.57763 1.85855 5.83028 1.70711Q6.08293 1.55568 6.34271 1.41683Q6.60249 1.27797 6.86877 1.15203Q7.13504 1.02609 7.40718 0.913369Q7.67932 0.800647 7.95666 0.701413Q8.234 0.602179 8.51587 0.516673Q8.79775 0.431167 9.08348 0.359595Q9.36921 0.288023 9.65811 0.230557Q9.94701 0.173092 10.2384 0.129871Q10.5298 0.0866503 10.8229 0.0577785Q11.116 0.0289066 11.4102 0.0144533Q11.7044 0 11.999 0Z" id="path_favorite" />
    <clipPath id="clip_favorite">
      <use xlink:href="#path_favorite" />
    </clipPath>
  </defs>
  <g>
    <g filter="url(#filter_favorite)">
      <g clip-path="url(#clip_favorite)">
        <use xlink:href="#path_favorite" fill="none" stroke="#2A3A4D" stroke-width="10" />
      </g>
    </g>
    <path d="M24.3887 4.7139C24.0015 3.7913 23.4455 2.96316 22.7433 2.25332C22.0401 1.54623 21.2227 0.994139 20.3134 0.603453C19.3738 0.203597 18.377 0 17.3508 0C15.9257 0 14.5337 0.401691 13.3227 1.1583C13.0327 1.33897 12.7588 1.53706 12.4973 1.75625C12.235 1.53706 11.961 1.33897 11.671 1.1583C10.4637 0.405359 9.07428 0.00275131 7.64652 0.00275131C6.61943 0.00275131 5.62357 0.203597 4.68393 0.606204C3.77463 0.991387 2.95635 1.54899 2.25407 2.25607C1.54822 2.96591 0.99586 3.79405 0.607688 4.71666C0.206132 5.67411 0 6.69393 0 7.74309C0 8.73173 0.198101 9.76438 0.588949 10.8135C0.914656 11.6903 1.38403 12.5982 1.98369 13.5181C2.93225 14.9699 4.23776 16.4877 5.85826 18.022C8.54422 20.5688 11.2025 22.3278 11.3141 22.4002L12.0003 22.8514C12.3046 23.0495 12.6954 23.0495 12.9988 22.8514L13.685 22.4002C13.7966 22.325 16.4549 20.5688 19.1417 18.022C20.7622 16.4877 22.0651 14.9699 23.0163 13.5181C23.616 12.601 24.088 11.6903 24.4111 10.8135C24.8019 9.76438 25 8.73173 25 7.74309C24.9973 6.69393 24.7903 5.67411 24.3887 4.7139L24.3887 4.7139ZM12.5 20.5789C12.5 20.5789 2.38095 13.8306 2.38095 7.87837C2.38095 4.8653 4.77635 2.42105 7.73376 2.42105C9.81088 2.42105 11.6144 3.62902 12.5 5.39213C13.3882 3.62902 15.1882 2.42105 17.2662 2.42105C20.2237 2.42105 22.619 4.8653 22.619 7.87837C22.619 13.8306 12.5 20.5789 12.5 20.5789Z" transform="translate(18 19)" fill="url(#gradient_favorite)" fill-rule="evenodd" stroke="none" />
  </g>
</svg>