<?xml version="1.0" encoding="utf-8"?>
<svg viewBox="0 0 60 60" version="1.1" xmlns:xlink="http://www.w3.org/1999/xlink" xmlns="http://www.w3.org/2000/svg">
  <defs>
    <linearGradient x1="0.5" y1="0" x2="0.5" y2="1" id="gradient_1_virtual_current">
      <stop offset="0" stop-color="#05C9A3" />
      <stop offset="1" stop-color="#02996A" />
    </linearGradient>
    <filter filterUnits="userSpaceOnUse" color-interpolation-filters="sRGB" id="filter_1_virtual_current">
      <feFlood flood-opacity="0" result="BackgroundImageFix" />
      <feColorMatrix in="SourceAlpha" type="matrix" values="0 0 0 0 0 0 0 0 0 0 0 0 0 0 0 0 0 0 127 0" />
      <feOffset dx="0" dy="5" />
      <feGaussianBlur stdDeviation="2.5" />
      <feColorMatrix type="matrix" values="0 0 0 0 0 0 0 0 0 0 0 0 0 0 0 0 0 0 0.29803923 0" />
      <feBlend mode="normal" in2="BackgroundImageFix" result="effect0_dropShadow" />
      <feBlend mode="normal" in="SourceGraphic" in2="effect0_dropShadow" result="shape" />
    </filter>
  </defs>
  <g>
    <path d="M11.999 0L48.001 0Q48.2956 0 48.5898 0.0144533Q48.884 0.0289066 49.1771 0.0577785Q49.4702 0.0866503 49.7616 0.129871Q50.053 0.173092 50.3419 0.230557Q50.6308 0.288023 50.9165 0.359595Q51.2022 0.431167 51.4841 0.516673Q51.766 0.602179 52.0433 0.701413Q52.3207 0.800647 52.5928 0.913369Q52.8649 1.02609 53.1312 1.15203Q53.3975 1.27797 53.6573 1.41683Q53.9171 1.55568 54.1697 1.70711Q54.4224 1.85855 54.6673 2.0222Q54.9122 2.18584 55.1488 2.36131Q55.3854 2.53678 55.6131 2.72365Q55.8408 2.91051 56.059 3.10833Q56.2773 3.30614 56.4856 3.51443Q56.6939 3.72271 56.8917 3.94096Q57.0895 4.15922 57.2764 4.38691Q57.4632 4.61461 57.6387 4.8512Q57.8142 5.0878 57.9778 5.33271Q58.1414 5.57763 58.2929 5.83028Q58.4443 6.08293 58.5832 6.34271Q58.722 6.60249 58.848 6.86877Q58.9739 7.13504 59.0866 7.40718Q59.1993 7.67932 59.2986 7.95666Q59.3978 8.234 59.4833 8.51587Q59.5688 8.79775 59.6404 9.08348Q59.712 9.36921 59.7694 9.65811Q59.8269 9.94701 59.8701 10.2384Q59.9133 10.5298 59.9422 10.8229Q59.9711 11.116 59.9855 11.4102Q60 11.7044 60 11.999L60 48.001Q60 48.2956 59.9855 48.5898Q59.9711 48.884 59.9422 49.1771Q59.9133 49.4702 59.8701 49.7616Q59.8269 50.053 59.7694 50.3419Q59.712 50.6308 59.6404 50.9165Q59.5688 51.2022 59.4833 51.4841Q59.3978 51.766 59.2986 52.0433Q59.1993 52.3207 59.0866 52.5928Q58.9739 52.8649 58.848 53.1312Q58.722 53.3975 58.5832 53.6573Q58.4443 53.9171 58.2929 54.1697Q58.1414 54.4224 57.9778 54.6673Q57.8141 54.9122 57.6387 55.1488Q57.4632 55.3854 57.2764 55.6131Q57.0895 55.8408 56.8917 56.059Q56.6939 56.2773 56.4856 56.4856Q56.2773 56.6939 56.059 56.8917Q55.8408 57.0895 55.6131 57.2764Q55.3854 57.4632 55.1488 57.6387Q54.9122 57.8142 54.6673 57.9778Q54.4224 58.1414 54.1697 58.2929Q53.9171 58.4443 53.6573 58.5832Q53.3975 58.722 53.1312 58.848Q52.865 58.9739 52.5928 59.0866Q52.3207 59.1993 52.0433 59.2986Q51.766 59.3978 51.4841 59.4833Q51.2022 59.5688 50.9165 59.6404Q50.6308 59.712 50.3419 59.7694Q50.053 59.8269 49.7616 59.8701Q49.4702 59.9133 49.1771 59.9422Q48.884 59.9711 48.5898 59.9855Q48.2956 60 48.001 60L11.999 60Q11.7044 60 11.4102 59.9855Q11.116 59.9711 10.8229 59.9422Q10.5298 59.9133 10.2384 59.8701Q9.94701 59.8269 9.65811 59.7694Q9.36921 59.712 9.08348 59.6404Q8.79775 59.5688 8.51587 59.4833Q8.234 59.3978 7.95666 59.2986Q7.67932 59.1993 7.40718 59.0866Q7.13504 58.9739 6.86877 58.848Q6.60249 58.722 6.34271 58.5832Q6.08293 58.4443 5.83028 58.2929Q5.57763 58.1414 5.33271 57.9778Q5.0878 57.8141 4.8512 57.6387Q4.61461 57.4632 4.38691 57.2764Q4.15922 57.0895 3.94096 56.8917Q3.72271 56.6939 3.51443 56.4856Q3.30614 56.2773 3.10833 56.059Q2.91051 55.8408 2.72365 55.6131Q2.53678 55.3854 2.36131 55.1488Q2.18584 54.9122 2.0222 54.6673Q1.85855 54.4224 1.70711 54.1697Q1.55568 53.9171 1.41683 53.6573Q1.27797 53.3975 1.15203 53.1312Q1.02609 52.865 0.913369 52.5928Q0.800647 52.3207 0.701413 52.0433Q0.602179 51.766 0.516673 51.4841Q0.431167 51.2022 0.359595 50.9165Q0.288023 50.6308 0.230557 50.3419Q0.173092 50.053 0.129871 49.7616Q0.0866503 49.4702 0.0577785 49.1771Q0.0289066 48.884 0.0144533 48.5898Q0 48.2956 0 48.001L0 11.999Q0 11.7044 0.0144533 11.4102Q0.0289066 11.116 0.0577785 10.8229Q0.0866503 10.5298 0.129871 10.2384Q0.173092 9.94701 0.230557 9.65811Q0.288023 9.36921 0.359595 9.08348Q0.431167 8.79775 0.516673 8.51587Q0.602179 8.234 0.701413 7.95666Q0.800647 7.67932 0.913369 7.40718Q1.02609 7.13504 1.15203 6.86877Q1.27797 6.60249 1.41683 6.34271Q1.55568 6.08293 1.70711 5.83028Q1.85855 5.57763 2.0222 5.33271Q2.18584 5.0878 2.36131 4.8512Q2.53678 4.61461 2.72365 4.38691Q2.91051 4.15922 3.10833 3.94096Q3.30614 3.72271 3.51443 3.51443Q3.72271 3.30614 3.94096 3.10833Q4.15922 2.91051 4.38691 2.72365Q4.61461 2.53678 4.8512 2.36131Q5.0878 2.18584 5.33271 2.0222Q5.57763 1.85855 5.83028 1.70711Q6.08293 1.55568 6.34271 1.41683Q6.60249 1.27797 6.86877 1.15203Q7.13504 1.02609 7.40718 0.913369Q7.67932 0.800647 7.95666 0.701413Q8.234 0.602179 8.51587 0.516673Q8.79775 0.431167 9.08348 0.359595Q9.36921 0.288023 9.65811 0.230557Q9.94701 0.173092 10.2384 0.129871Q10.5298 0.0866503 10.8229 0.0577785Q11.116 0.0289066 11.4102 0.0144533Q11.7044 0 11.999 0Z" fill="url(#gradient_1_virtual_current)" fill-rule="evenodd" stroke="none" filter="url(#filter_1_virtual_current)" />
    <g transform="translate(13 13)">
      <path d="M28.6515 3.99382C26.6775 3.65287 24.6438 3.93026 22.6701 4.12547C20.7037 4.32002 18.6505 4.55809 16.7022 4.09564C14.4081 3.55111 12.9569 2.04316 11.8867 0C11.5916 0.800542 11.2966 1.60105 11.0016 2.40166C9.07143 7.63896 7.14133 12.8762 5.2112 18.1135L0 32.2541L2.01254 33L6.70235 20.2744C7.57274 21.2056 8.64732 21.8817 10.0268 22.2091C11.9749 22.6713 14.0284 22.4337 15.9947 22.2391C17.9682 22.0435 20.0021 21.7663 21.9761 22.1073C24.5126 22.5454 26.1516 24.069 27.3245 26.3087C29.5499 20.271 31.7749 14.2332 34 8.19524C32.8269 5.95537 31.1884 4.4321 28.6515 3.99382ZM28.8988 14.7438C27.9065 13.9039 26.8411 13.3423 25.5566 13.0947C25.1281 14.257 24.6997 15.4195 24.2713 16.5819C25.5559 16.8297 26.621 17.3913 27.6136 18.2311L26.435 21.429C25.4427 20.5892 24.3771 20.0272 23.0926 19.7799C23.4855 18.7138 23.8784 17.6478 24.2713 16.5819C22.9633 16.3704 21.6862 16.3716 20.3665 16.4526C19.9737 17.5186 19.5807 18.5846 19.1879 19.6506C17.8223 19.7612 16.4615 19.9183 15.096 20.0287C15.4888 18.9626 15.8818 17.8966 16.2745 16.8308C14.9548 16.9119 13.6776 16.9132 12.3697 16.7015C11.9768 17.7675 11.584 18.8335 11.1911 19.8994C9.90668 19.652 8.84086 19.09 7.84872 18.2501L9.02723 15.0523C10.0198 15.8922 11.0851 16.454 12.3697 16.7015C12.798 15.5391 13.2266 14.3766 13.6549 13.2141C12.3704 12.9671 11.3049 12.4046 10.3125 11.565L11.5978 8.07748C12.5903 8.91767 13.6556 9.47878 14.9401 9.72681L16.1187 6.529C17.4267 6.74053 18.704 6.7393 20.0235 6.65809C19.6307 7.72404 19.2378 8.79005 18.845 9.856C20.2104 9.74539 21.5713 9.58843 22.9369 9.47788C23.3296 8.41197 23.7226 7.34592 24.1154 6.27991C25.4353 6.19887 26.7122 6.19757 28.0202 6.4092L26.8416 9.60724C28.1263 9.85496 29.1914 10.4164 30.1841 11.2563C29.7557 12.4188 29.3275 13.5814 28.8989 14.7438L28.8988 14.7438Z" fill="#FFFFFF" stroke="none" />
      <path d="M3.8496 4.23154C3.42728 5.48772 3.00493 6.74379 2.58251 8C3.92871 7.88037 5.2704 7.71069 6.6165 7.59124L7.88351 3.823C6.53725 3.94252 5.19573 4.1122 3.8496 4.23154L3.8496 4.23154ZM3.8496 4.23154C4.27201 2.97551 4.69436 1.71923 5.11668 0.463232C3.81529 0.55059 2.55672 0.552065 1.26699 0.323633L0 4.09195C1.28947 4.32077 2.54844 4.31941 3.8496 4.23154ZM9.15053 0.0546893C8.72818 1.31072 8.30586 2.56683 7.88351 3.823C9.18467 3.73564 10.4435 3.73417 11.733 3.96274C12.1553 2.70671 12.5777 1.4505 13 0.194432C11.7106 -0.0342152 10.4517 -0.0330998 9.15053 0.0546893L9.15053 0.0546893Z" transform="translate(14 9)" fill="#FFFFFF" stroke="none" />
    </g>
  </g>
</svg>